<?xml version="1.0" encoding="UTF-8"?>
<!DOCTYPE svg PUBLIC "-//W3C//DTD SVG 1.1//EN" "http://www.w3.org/Graphics/SVG/1.1/DTD/svg11.dtd">
<svg xmlns="http://www.w3.org/2000/svg" version="1.1" width="256px" height="256px" style="shape-rendering:geometricPrecision; text-rendering:geometricPrecision; image-rendering:optimizeQuality; fill-rule:evenodd; clip-rule:evenodd" xmlns:xlink="http://www.w3.org/1999/xlink">
<g><path style="opacity:1" fill="#c5d773" d="M 137.5,2.5 C 137.169,29.0053 137.502,55.3386 138.5,81.5C 164.425,108.092 190.758,134.425 217.5,160.5C 217.667,190.169 217.5,219.835 217,249.5C 216.167,250.333 215.333,251.167 214.5,252C 156.5,252.667 98.5,252.667 40.5,252C 39.6667,251.167 38.8333,250.333 38,249.5C 37.3333,168.167 37.3333,86.8333 38,5.5C 38.8333,4.66667 39.6667,3.83333 40.5,3C 72.8316,2.50002 105.165,2.33335 137.5,2.5 Z"/></g>
<g><path style="opacity:0.988" fill="#d2de87" d="M 137.5,2.5 C 164.783,28.1162 191.45,54.4496 217.5,81.5C 191.167,81.5 164.833,81.5 138.5,81.5C 137.502,55.3386 137.169,29.0053 137.5,2.5 Z"/></g>
<g><path style="opacity:1" fill="#b6c66c" d="M 138.5,81.5 C 164.833,81.5 191.167,81.5 217.5,81.5C 217.5,107.833 217.5,134.167 217.5,160.5C 190.758,134.425 164.425,108.092 138.5,81.5 Z"/></g>
<g><path style="opacity:1" fill="#eef0ed" d="M 86.5,173.5 C 91.6989,173.014 96.6989,173.681 101.5,175.5C 102.655,178.446 102.821,181.446 102,184.5C 95.61,181.552 89.4433,181.885 83.5,185.5C 79.1383,190.897 78.3049,196.897 81,203.5C 82.8734,205.709 85.04,207.542 87.5,209C 92.6635,209.817 97.6635,209.317 102.5,207.5C 102.777,210.448 102.444,213.281 101.5,216C 76.5296,221.362 66.363,211.529 71,186.5C 74.2341,179.758 79.4007,175.425 86.5,173.5 Z"/></g>
<g><path style="opacity:1" fill="#eef0ed" d="M 108.5,174.5 C 115.508,174.334 122.508,174.5 129.5,175C 140.854,176.543 146.521,183.043 146.5,194.5C 146.496,207.338 140.162,214.838 127.5,217C 121.175,217.5 114.842,217.666 108.5,217.5C 108.5,203.167 108.5,188.833 108.5,174.5 Z"/></g>
<g><path style="opacity:1" fill="#dbe4b2" d="M 152.5,174.5 C 152.5,188.5 152.5,202.5 152.5,216.5C 155.5,216.5 158.5,216.5 161.5,216.5C 161.5,216.833 161.5,217.167 161.5,217.5C 158.167,217.5 154.833,217.5 151.5,217.5C 151.171,202.99 151.504,188.657 152.5,174.5 Z"/></g>
<g><path style="opacity:1" fill="#eff0ef" d="M 152.5,174.5 C 159.508,174.334 166.508,174.5 173.5,175C 181.877,177.059 184.711,182.226 182,190.5C 180.135,194.028 177.301,196.528 173.5,198C 175.286,198.785 176.786,199.951 178,201.5C 181.167,206.5 184.333,211.5 187.5,216.5C 183.833,217.833 180.167,217.833 176.5,216.5C 173.918,211.667 171.085,207 168,202.5C 167.329,201.748 166.496,201.414 165.5,201.5C 164.432,200.566 163.099,200.232 161.5,200.5C 161.5,205.833 161.5,211.167 161.5,216.5C 158.5,216.5 155.5,216.5 152.5,216.5C 152.5,202.5 152.5,188.5 152.5,174.5 Z"/></g>
<g><path style="opacity:1" fill="#c5d775" d="M 118.5,182.5 C 132.997,181.826 138.497,188.493 135,202.5C 131.019,208.056 125.519,210.39 118.5,209.5C 118.5,200.5 118.5,191.5 118.5,182.5 Z"/></g>
<g><path style="opacity:1" fill="#c7d878" d="M 161.5,181.5 C 164.649,181.211 167.649,181.711 170.5,183C 173.167,186 173.167,189 170.5,192C 167.649,193.289 164.649,193.789 161.5,193.5C 161.5,189.5 161.5,185.5 161.5,181.5 Z"/></g>
<g><path style="opacity:1" fill="#d0de94" d="M 165.5,201.5 C 164.5,201.5 163.5,201.5 162.5,201.5C 162.821,207.026 162.488,212.36 161.5,217.5C 161.5,217.167 161.5,216.833 161.5,216.5C 161.5,211.167 161.5,205.833 161.5,200.5C 163.099,200.232 164.432,200.566 165.5,201.5 Z"/></g>
</svg>
