<?xml version="1.0" encoding="UTF-8"?>
<!DOCTYPE svg PUBLIC "-//W3C//DTD SVG 1.1//EN" "http://www.w3.org/Graphics/SVG/1.1/DTD/svg11.dtd">
<svg xmlns="http://www.w3.org/2000/svg" version="1.1" width="256px" height="256px" style="shape-rendering:geometricPrecision; text-rendering:geometricPrecision; image-rendering:optimizeQuality; fill-rule:evenodd; clip-rule:evenodd" xmlns:xlink="http://www.w3.org/1999/xlink">
<g><path style="opacity:1" fill="#37c49c" d="M 137.5,2.5 C 137.169,29.0053 137.502,55.3386 138.5,81.5C 164.425,108.092 190.758,134.425 217.5,160.5C 217.667,190.169 217.5,219.835 217,249.5C 216.167,250.333 215.333,251.167 214.5,252C 156.5,252.667 98.5,252.667 40.5,252C 39.6667,251.167 38.8333,250.333 38,249.5C 37.3333,168.167 37.3333,86.8333 38,5.5C 38.8333,4.66667 39.6667,3.83333 40.5,3C 72.8316,2.50002 105.165,2.33335 137.5,2.5 Z"/></g>
<g><path style="opacity:0.984" fill="#4dcda6" d="M 137.5,2.5 C 164.783,28.1162 191.45,54.4496 217.5,81.5C 191.167,81.5 164.833,81.5 138.5,81.5C 137.502,55.3386 137.169,29.0053 137.5,2.5 Z"/></g>
<g><path style="opacity:1" fill="#37b591" d="M 138.5,81.5 C 164.833,81.5 191.167,81.5 217.5,81.5C 217.5,107.833 217.5,134.167 217.5,160.5C 190.758,134.425 164.425,108.092 138.5,81.5 Z"/></g>
<g><path style="opacity:1" fill="#ebefee" d="M 60.5,174.5 C 63.8333,174.5 67.1667,174.5 70.5,174.5C 72.7728,185.134 74.9394,195.801 77,206.5C 79.6789,196.117 82.5122,185.784 85.5,175.5C 89.1073,174.511 92.774,174.177 96.5,174.5C 98.6857,185.227 101.186,195.894 104,206.5C 105.863,195.751 108.03,185.085 110.5,174.5C 113.85,174.335 117.183,174.502 120.5,175C 115.974,188.937 112.307,203.104 109.5,217.5C 105.774,217.823 102.107,217.489 98.5,216.5C 96.122,206.646 93.2886,196.979 90,187.5C 87.1774,197.457 84.6774,207.457 82.5,217.5C 78.5633,217.793 74.73,217.46 71,216.5C 67.3925,202.514 63.8925,188.514 60.5,174.5 Z"/></g>
<g><path style="opacity:1" fill="#ebf0ef" d="M 158.5,214.5 C 156.012,216.388 153.012,217.055 149.5,216.5C 148.516,213.949 147.516,211.282 146.5,208.5C 141.167,207.167 135.833,207.167 130.5,208.5C 129.42,211.332 128.42,214.165 127.5,217C 124.118,217.824 120.784,217.657 117.5,216.5C 122.303,202.757 127.303,189.09 132.5,175.5C 136.715,174.202 140.882,174.202 145,175.5C 149.606,188.486 154.106,201.486 158.5,214.5 Z"/></g>
<g><path style="opacity:1" fill="#eaefee" d="M 155.5,175.5 C 158.962,174.518 162.629,174.185 166.5,174.5C 168.898,185.096 172.064,195.43 176,205.5C 179.202,195.56 182.202,185.56 185,175.5C 188.455,174.209 191.955,174.209 195.5,175.5C 190.568,189.129 185.735,202.796 181,216.5C 177.27,217.46 173.437,217.793 169.5,217.5C 165.411,203.233 160.744,189.233 155.5,175.5 Z"/></g>
<g><path style="opacity:1" fill="#4ac7a3" d="M 137.5,185.5 C 138.75,185.577 139.583,186.244 140,187.5C 141.684,191.716 142.851,196.049 143.5,200.5C 140.167,200.5 136.833,200.5 133.5,200.5C 134.424,195.393 135.758,190.393 137.5,185.5 Z"/></g>
<g><path style="opacity:1" fill="#a4dece" d="M 158.5,214.5 C 159.404,215.209 159.737,216.209 159.5,217.5C 155.958,217.813 152.625,217.479 149.5,216.5C 153.012,217.055 156.012,216.388 158.5,214.5 Z"/></g>
</svg>
