<?xml version="1.0" encoding="UTF-8"?>
<!DOCTYPE svg PUBLIC "-//W3C//DTD SVG 1.1//EN" "http://www.w3.org/Graphics/SVG/1.1/DTD/svg11.dtd">
<svg xmlns="http://www.w3.org/2000/svg" version="1.1" width="256px" height="256px" style="shape-rendering:geometricPrecision; text-rendering:geometricPrecision; image-rendering:optimizeQuality; fill-rule:evenodd; clip-rule:evenodd" xmlns:xlink="http://www.w3.org/1999/xlink">
<g><path style="opacity:1" fill="#998b79" d="M 137.5,2.5 C 137.5,28.8333 137.5,55.1667 137.5,81.5C 164.167,81.5 190.833,81.5 217.5,81.5C 217.5,81.8333 217.5,82.1667 217.5,82.5C 191.491,82.1669 165.491,82.5002 139.5,83.5C 165.494,109.161 191.494,134.827 217.5,160.5C 217.667,190.169 217.5,219.835 217,249.5C 216.167,250.333 215.333,251.167 214.5,252C 156.5,252.667 98.5,252.667 40.5,252C 39.6667,251.167 38.8333,250.333 38,249.5C 37.3333,168.167 37.3333,86.8333 38,5.5C 38.8333,4.66667 39.6667,3.83333 40.5,3C 72.8316,2.50002 105.165,2.33335 137.5,2.5 Z"/></g>
<g><path style="opacity:0.992" fill="#a2968c" d="M 137.5,2.5 C 164.783,28.1162 191.45,54.4496 217.5,81.5C 190.833,81.5 164.167,81.5 137.5,81.5C 137.5,55.1667 137.5,28.8333 137.5,2.5 Z"/></g>
<g><path style="opacity:1" fill="#8f8272" d="M 217.5,82.5 C 217.5,108.5 217.5,134.5 217.5,160.5C 191.494,134.827 165.494,109.161 139.5,83.5C 165.491,82.5002 191.491,82.1669 217.5,82.5 Z"/></g>
<g><path style="opacity:1" fill="#edeeed" d="M 119.5,216.5 C 115.629,216.815 111.962,216.482 108.5,215.5C 112.908,209.089 116.908,202.422 120.5,195.5C 116.936,188.708 113.102,182.041 109,175.5C 108.503,177.81 108.337,180.143 108.5,182.5C 104.5,182.5 100.5,182.5 96.5,182.5C 95.5052,193.654 95.1719,204.988 95.5,216.5C 92.5,216.5 89.5,216.5 86.5,216.5C 86.5,205.167 86.5,193.833 86.5,182.5C 82.5,182.5 78.5,182.5 74.5,182.5C 74.5,179.833 74.5,177.167 74.5,174.5C 89.837,174.333 105.17,174.5 120.5,175C 123.401,179.968 125.901,185.135 128,190.5C 129.973,185.221 132.473,180.221 135.5,175.5C 139.122,174.341 142.789,174.175 146.5,175C 142.084,181.753 138.084,188.753 134.5,196C 138.818,202.99 143.151,209.99 147.5,217C 143.459,217.827 139.459,217.66 135.5,216.5C 132.833,211.833 130.167,207.167 127.5,202.5C 124.316,206.868 121.649,211.535 119.5,216.5 Z"/></g>
<g><path style="opacity:1" fill="#efefef" d="M 169.5,216.5 C 166.5,216.5 163.5,216.5 160.5,216.5C 160.828,204.988 160.495,193.654 159.5,182.5C 155.5,182.5 151.5,182.5 147.5,182.5C 147.5,179.833 147.5,177.167 147.5,174.5C 158.833,174.5 170.167,174.5 181.5,174.5C 181.5,177.167 181.5,179.833 181.5,182.5C 177.5,182.5 173.5,182.5 169.5,182.5C 169.5,193.833 169.5,205.167 169.5,216.5 Z"/></g>
<g><path style="opacity:1" fill="#c5beb5" d="M 96.5,182.5 C 96.5,194.167 96.5,205.833 96.5,217.5C 92.9581,217.813 89.6248,217.479 86.5,216.5C 89.5,216.5 92.5,216.5 95.5,216.5C 95.1719,204.988 95.5052,193.654 96.5,182.5 Z"/></g>
<g><path style="opacity:1" fill="#cec9c2" d="M 159.5,182.5 C 160.495,193.654 160.828,204.988 160.5,216.5C 163.5,216.5 166.5,216.5 169.5,216.5C 166.375,217.479 163.042,217.813 159.5,217.5C 159.5,205.833 159.5,194.167 159.5,182.5 Z"/></g>
<g><path style="opacity:1" fill="#c7c2b9" d="M 108.5,215.5 C 111.962,216.482 115.629,216.815 119.5,216.5C 115.649,217.809 111.649,217.809 107.5,216.5C 107.624,215.893 107.957,215.56 108.5,215.5 Z"/></g>
</svg>
