<?xml version="1.0" encoding="UTF-8"?>
<!DOCTYPE svg PUBLIC "-//W3C//DTD SVG 1.1//EN" "http://www.w3.org/Graphics/SVG/1.1/DTD/svg11.dtd">
<svg xmlns="http://www.w3.org/2000/svg" version="1.1" width="256px" height="256px" style="shape-rendering:geometricPrecision; text-rendering:geometricPrecision; image-rendering:optimizeQuality; fill-rule:evenodd; clip-rule:evenodd" xmlns:xlink="http://www.w3.org/1999/xlink">
<g><path style="opacity:1" fill="#37c49c" d="M 137.5,2.5 C 137.169,29.0053 137.502,55.3386 138.5,81.5C 164.425,108.092 190.758,134.425 217.5,160.5C 217.667,190.169 217.5,219.835 217,249.5C 216.167,250.333 215.333,251.167 214.5,252C 156.5,252.667 98.5,252.667 40.5,252C 39.6667,251.167 38.8333,250.333 38,249.5C 37.3333,168.167 37.3333,86.8333 38,5.5C 38.8333,4.66667 39.6667,3.83333 40.5,3C 72.8316,2.50002 105.165,2.33335 137.5,2.5 Z"/></g>
<g><path style="opacity:0.984" fill="#4dcda6" d="M 137.5,2.5 C 164.783,28.1162 191.45,54.4496 217.5,81.5C 191.167,81.5 164.833,81.5 138.5,81.5C 137.502,55.3386 137.169,29.0053 137.5,2.5 Z"/></g>
<g><path style="opacity:1" fill="#37b591" d="M 138.5,81.5 C 164.833,81.5 191.167,81.5 217.5,81.5C 217.5,107.833 217.5,134.167 217.5,160.5C 190.758,134.425 164.425,108.092 138.5,81.5 Z"/></g>
<g><path style="opacity:1" fill="#a6decf" d="M 50.5,174.5 C 50.5,188.5 50.5,202.5 50.5,216.5C 56.8333,216.5 63.1667,216.5 69.5,216.5C 63.021,217.491 56.3543,217.824 49.5,217.5C 49.1707,202.99 49.5041,188.657 50.5,174.5 Z"/></g>
<g><path style="opacity:1" fill="#eef0f0" d="M 50.5,174.5 C 58.903,174.13 67.2363,174.63 75.5,176C 86.4186,181.027 90.252,189.527 87,201.5C 84.3889,210.279 78.5556,215.279 69.5,216.5C 63.1667,216.5 56.8333,216.5 50.5,216.5C 50.5,202.5 50.5,188.5 50.5,174.5 Z"/></g>
<g><path style="opacity:1" fill="#ebefee" d="M 107.5,173.5 C 123.396,172.402 131.729,179.736 132.5,195.5C 131.215,212.937 121.882,220.104 104.5,217C 93.5633,211.562 89.0633,202.729 91,190.5C 93.3493,181.652 98.8493,175.986 107.5,173.5 Z"/></g>
<g><path style="opacity:1" fill="#eaefee" d="M 168.5,175.5 C 168.806,178.385 168.473,181.052 167.5,183.5C 155.38,179.22 148.047,183.22 145.5,195.5C 146.297,206.131 151.964,210.631 162.5,209C 164.888,208.697 167.055,207.863 169,206.5C 169.821,209.554 169.655,212.554 168.5,215.5C 146.088,221.899 135.255,213.566 136,190.5C 142.129,175.353 152.962,170.353 168.5,175.5 Z"/></g>
<g><path style="opacity:1" fill="#ebefee" d="M 181.5,216.5 C 177.958,216.813 174.625,216.479 171.5,215.5C 175.37,208.928 179.37,202.428 183.5,196C 180.013,188.69 176.013,181.69 171.5,175C 175.541,174.173 179.541,174.34 183.5,175.5C 186.016,180.531 188.516,185.531 191,190.5C 192.973,185.221 195.473,180.221 198.5,175.5C 202.122,174.341 205.789,174.175 209.5,175C 205.106,181.625 201.106,188.458 197.5,195.5C 201.231,202.625 205.231,209.625 209.5,216.5C 205.833,217.833 202.167,217.833 198.5,216.5C 195.412,211.325 192.579,205.992 190,200.5C 187.916,206.339 185.083,211.673 181.5,216.5 Z"/></g>
<g><path style="opacity:1" fill="#a9dfd0" d="M 168.5,175.5 C 169.803,178.355 169.803,181.355 168.5,184.5C 167.893,184.376 167.56,184.043 167.5,183.5C 168.473,181.052 168.806,178.385 168.5,175.5 Z"/></g>
<g><path style="opacity:1" fill="#3bc49d" d="M 59.5,182.5 C 75.0547,181.611 80.5547,188.611 76,203.5C 71.5917,208.36 66.0917,210.36 59.5,209.5C 59.5,200.5 59.5,191.5 59.5,182.5 Z"/></g>
<g><path style="opacity:1" fill="#3bc49d" d="M 107.5,182.5 C 114.445,180.775 119.278,183.108 122,189.5C 123.01,195.064 122.343,200.398 120,205.5C 112.892,211.484 106.892,210.484 102,202.5C 101.333,198.167 101.333,193.833 102,189.5C 102.967,186.379 104.8,184.046 107.5,182.5 Z"/></g>
<g><path style="opacity:1" fill="#a0ddcc" d="M 171.5,215.5 C 174.625,216.479 177.958,216.813 181.5,216.5C 177.981,217.808 174.315,217.808 170.5,216.5C 170.624,215.893 170.957,215.56 171.5,215.5 Z"/></g>
</svg>
