<?xml version="1.0" encoding="UTF-8"?>
<!DOCTYPE svg PUBLIC "-//W3C//DTD SVG 1.1//EN" "http://www.w3.org/Graphics/SVG/1.1/DTD/svg11.dtd">
<svg xmlns="http://www.w3.org/2000/svg" version="1.1" width="256px" height="256px" style="shape-rendering:geometricPrecision; text-rendering:geometricPrecision; image-rendering:optimizeQuality; fill-rule:evenodd; clip-rule:evenodd" xmlns:xlink="http://www.w3.org/1999/xlink">
<g><path style="opacity:1" fill="#47b8f6" d="M 137.5,2.5 C 137.169,29.0053 137.502,55.3386 138.5,81.5C 164.425,108.092 190.758,134.425 217.5,160.5C 217.667,190.169 217.5,219.835 217,249.5C 216.167,250.333 215.333,251.167 214.5,252C 156.5,252.667 98.5,252.667 40.5,252C 39.6667,251.167 38.8333,250.333 38,249.5C 37.3333,168.167 37.3333,86.8333 38,5.5C 38.8333,4.66667 39.6667,3.83333 40.5,3C 72.8316,2.50002 105.165,2.33335 137.5,2.5 Z"/></g>
<g><path style="opacity:0.989" fill="#6acffb" d="M 137.5,2.5 C 164.783,28.1162 191.45,54.4496 217.5,81.5C 191.167,81.5 164.833,81.5 138.5,81.5C 137.502,55.3386 137.169,29.0053 137.5,2.5 Z"/></g>
<g><path style="opacity:1" fill="#45aae3" d="M 138.5,81.5 C 164.833,81.5 191.167,81.5 217.5,81.5C 217.5,107.833 217.5,134.167 217.5,160.5C 190.758,134.425 164.425,108.092 138.5,81.5 Z"/></g>
<g><path style="opacity:1" fill="#addaf3" d="M 67.5,174.5 C 67.5,188.5 67.5,202.5 67.5,216.5C 73.8333,216.5 80.1667,216.5 86.5,216.5C 80.021,217.491 73.3543,217.824 66.5,217.5C 66.1707,202.99 66.5041,188.657 67.5,174.5 Z"/></g>
<g><path style="opacity:1" fill="#eef0f1" d="M 67.5,174.5 C 74.175,174.334 80.8417,174.5 87.5,175C 96.1605,176.493 98.9938,181.327 96,189.5C 94.2691,191.617 92.1024,193.117 89.5,194C 100.663,198.314 102.329,204.981 94.5,214C 92.0912,215.707 89.4245,216.54 86.5,216.5C 80.1667,216.5 73.8333,216.5 67.5,216.5C 67.5,202.5 67.5,188.5 67.5,174.5 Z"/></g>
<g><path style="opacity:1" fill="#eef0f1" d="M 153.5,216.5 C 150.5,216.5 147.5,216.5 144.5,216.5C 144.667,205.162 144.5,193.828 144,182.5C 143.495,184.518 142.995,186.518 142.5,188.5C 139.3,197.433 136.3,206.433 133.5,215.5C 130.609,216.403 127.609,216.736 124.5,216.5C 120.965,206.562 117.632,196.562 114.5,186.5C 113.91,185.234 113.41,183.901 113,182.5C 112.5,193.828 112.333,205.162 112.5,216.5C 109.833,216.5 107.167,216.5 104.5,216.5C 104.5,202.5 104.5,188.5 104.5,174.5C 109.5,174.5 114.5,174.5 119.5,174.5C 122.361,184.584 125.528,194.584 129,204.5C 132.388,194.839 135.888,185.173 139.5,175.5C 144.12,174.507 148.786,174.173 153.5,174.5C 153.5,188.5 153.5,202.5 153.5,216.5 Z"/></g>
<g><path style="opacity:1" fill="#eceff1" d="M 161.5,174.5 C 168.508,174.334 175.508,174.5 182.5,175C 186.664,175.823 189.831,177.99 192,181.5C 193.913,196.756 187.08,203.756 171.5,202.5C 171.5,207.5 171.5,212.5 171.5,217.5C 168.167,217.5 164.833,217.5 161.5,217.5C 161.5,203.167 161.5,188.833 161.5,174.5 Z"/></g>
<g><path style="opacity:1" fill="#4fbaf6" d="M 76.5,181.5 C 78.8568,181.337 81.1902,181.503 83.5,182C 88.3681,184.477 88.7014,187.477 84.5,191C 81.854,191.497 79.1873,191.664 76.5,191.5C 76.5,188.167 76.5,184.833 76.5,181.5 Z"/></g>
<g><path style="opacity:1" fill="#c5e1f2" d="M 171.5,181.5 C 171.5,185.833 171.5,190.167 171.5,194.5C 173.5,194.5 175.5,194.5 177.5,194.5C 175.393,195.468 173.059,195.802 170.5,195.5C 170.181,190.637 170.514,185.97 171.5,181.5 Z"/></g>
<g><path style="opacity:1" fill="#4fb9f6" d="M 171.5,181.5 C 181.833,180.647 184.833,184.813 180.5,194C 179.552,194.483 178.552,194.649 177.5,194.5C 175.5,194.5 173.5,194.5 171.5,194.5C 171.5,190.167 171.5,185.833 171.5,181.5 Z"/></g>
<g><path style="opacity:1" fill="#aad9f3" d="M 153.5,216.5 C 150.375,217.479 147.042,217.813 143.5,217.5C 143.827,207.652 143.494,197.986 142.5,188.5C 142.995,186.518 143.495,184.518 144,182.5C 144.5,193.828 144.667,205.162 144.5,216.5C 147.5,216.5 150.5,216.5 153.5,216.5 Z"/></g>
<g><path style="opacity:1" fill="#cde5f2" d="M 114.5,186.5 C 113.506,196.653 113.172,206.986 113.5,217.5C 110.287,217.81 107.287,217.477 104.5,216.5C 107.167,216.5 109.833,216.5 112.5,216.5C 112.333,205.162 112.5,193.828 113,182.5C 113.41,183.901 113.91,185.234 114.5,186.5 Z"/></g>
<g><path style="opacity:1" fill="#79c7f5" d="M 84.5,199.5 C 82.1667,199.5 79.8333,199.5 77.5,199.5C 77.5,202.833 77.5,206.167 77.5,209.5C 79.5,209.5 81.5,209.5 83.5,209.5C 81.3926,210.468 79.0593,210.802 76.5,210.5C 76.5,206.5 76.5,202.5 76.5,198.5C 79.3854,198.194 82.0521,198.527 84.5,199.5 Z"/></g>
<g><path style="opacity:1" fill="#49b8f6" d="M 84.5,199.5 C 88.254,200.828 89.4207,203.494 88,207.5C 86.8904,209.037 85.3904,209.703 83.5,209.5C 81.5,209.5 79.5,209.5 77.5,209.5C 77.5,206.167 77.5,202.833 77.5,199.5C 79.8333,199.5 82.1667,199.5 84.5,199.5 Z"/></g>
<g><path style="opacity:1" fill="#9ed5f4" d="M 133.5,215.5 C 132.486,216.765 130.986,217.431 129,217.5C 127.293,217.492 125.793,217.158 124.5,216.5C 127.609,216.736 130.609,216.403 133.5,215.5 Z"/></g>
</svg>
