<?xml version="1.0" encoding="UTF-8"?>
<!DOCTYPE svg PUBLIC "-//W3C//DTD SVG 1.1//EN" "http://www.w3.org/Graphics/SVG/1.1/DTD/svg11.dtd">
<svg xmlns="http://www.w3.org/2000/svg" version="1.1" width="256px" height="256px" style="shape-rendering:geometricPrecision; text-rendering:geometricPrecision; image-rendering:optimizeQuality; fill-rule:evenodd; clip-rule:evenodd" xmlns:xlink="http://www.w3.org/1999/xlink">
<g><path style="opacity:1" fill="#47b8f6" d="M 137.5,2.5 C 137.169,29.0053 137.502,55.3386 138.5,81.5C 164.425,108.092 190.758,134.425 217.5,160.5C 217.667,190.169 217.5,219.835 217,249.5C 216.167,250.333 215.333,251.167 214.5,252C 156.5,252.667 98.5,252.667 40.5,252C 39.6667,251.167 38.8333,250.333 38,249.5C 37.3333,168.167 37.3333,86.8333 38,5.5C 38.8333,4.66667 39.6667,3.83333 40.5,3C 72.8316,2.50002 105.165,2.33335 137.5,2.5 Z"/></g>
<g><path style="opacity:0.99" fill="#6acffb" d="M 137.5,2.5 C 164.783,28.1162 191.45,54.4496 217.5,81.5C 191.167,81.5 164.833,81.5 138.5,81.5C 137.502,55.3386 137.169,29.0053 137.5,2.5 Z"/></g>
<g><path style="opacity:1" fill="#45aae3" d="M 138.5,81.5 C 164.833,81.5 191.167,81.5 217.5,81.5C 217.5,107.833 217.5,134.167 217.5,160.5C 190.758,134.425 164.425,108.092 138.5,81.5 Z"/></g>
<g><path style="opacity:1" fill="#eef0f1" d="M 97.5,174.5 C 97.5,188.5 97.5,202.5 97.5,216.5C 94.8333,216.5 92.1667,216.5 89.5,216.5C 89.6665,205.162 89.4999,193.828 89,182.5C 88.5899,183.901 88.0899,185.234 87.5,186.5C 84.4441,196.168 81.2774,205.835 78,215.5C 76.8197,216.684 75.3197,217.351 73.5,217.5C 71.6803,217.351 70.1803,216.684 69,215.5C 65.8166,206.475 62.6499,197.475 59.5,188.5C 59.0046,186.518 58.5046,184.518 58,182.5C 57.5001,193.828 57.3335,205.162 57.5,216.5C 54.8333,216.5 52.1667,216.5 49.5,216.5C 49.5,202.5 49.5,188.5 49.5,174.5C 54.43,174.197 59.2633,174.531 64,175.5C 67.5307,185.092 70.864,194.759 74,204.5C 77.136,194.759 80.4693,185.092 84,175.5C 88.4014,174.533 92.9014,174.2 97.5,174.5 Z"/></g>
<g><path style="opacity:1" fill="#eef0f1" d="M 116.5,202.5 C 115.514,206.97 115.181,211.637 115.5,216.5C 112.5,216.5 109.5,216.5 106.5,216.5C 106.5,202.5 106.5,188.5 106.5,174.5C 113.508,174.334 120.508,174.5 127.5,175C 136.27,177.702 139.437,183.536 137,192.5C 132.575,200.462 125.741,203.795 116.5,202.5 Z"/></g>
<g><path style="opacity:1" fill="#edf0f1" d="M 152.5,191.5 C 156.634,192.485 160.968,192.818 165.5,192.5C 165.5,194.833 165.5,197.167 165.5,199.5C 161.167,199.5 156.833,199.5 152.5,199.5C 152.5,202.833 152.5,206.167 152.5,209.5C 157.5,209.5 162.5,209.5 167.5,209.5C 167.5,211.833 167.5,214.167 167.5,216.5C 159.167,216.5 150.833,216.5 142.5,216.5C 142.5,202.5 142.5,188.5 142.5,174.5C 150.833,174.5 159.167,174.5 167.5,174.5C 167.5,177.167 167.5,179.833 167.5,182.5C 162.5,182.5 157.5,182.5 152.5,182.5C 152.5,185.5 152.5,188.5 152.5,191.5 Z"/></g>
<g><path style="opacity:1" fill="#ebeff1" d="M 188.5,173.5 C 194.667,173.101 200.667,173.768 206.5,175.5C 206.665,178.518 206.498,181.518 206,184.5C 188.243,177.701 180.243,183.701 182,202.5C 185.655,209.07 191.155,211.237 198.5,209C 199.444,206.281 199.777,203.448 199.5,200.5C 196.5,200.5 193.5,200.5 190.5,200.5C 190.5,197.833 190.5,195.167 190.5,192.5C 196.5,192.5 202.5,192.5 208.5,192.5C 208.831,199.863 208.497,207.197 207.5,214.5C 200.453,217.401 193.12,218.235 185.5,217C 177.592,214.758 172.759,209.591 171,201.5C 169.483,187.528 175.316,178.195 188.5,173.5 Z"/></g>
<g><path style="opacity:1" fill="#a8d8f3" d="M 122.5,182.5 C 120.5,182.5 118.5,182.5 116.5,182.5C 116.5,186.5 116.5,190.5 116.5,194.5C 118.5,194.5 120.5,194.5 122.5,194.5C 120.393,195.468 118.059,195.802 115.5,195.5C 115.5,190.833 115.5,186.167 115.5,181.5C 118.059,181.198 120.393,181.532 122.5,182.5 Z"/></g>
<g><path style="opacity:1" fill="#4ab8f6" d="M 122.5,182.5 C 127.368,184.218 128.702,187.551 126.5,192.5C 125.423,193.705 124.09,194.372 122.5,194.5C 120.5,194.5 118.5,194.5 116.5,194.5C 116.5,190.5 116.5,186.5 116.5,182.5C 118.5,182.5 120.5,182.5 122.5,182.5 Z"/></g>
<g><path style="opacity:1" fill="#c8e3f2" d="M 97.5,174.5 C 98.4959,188.657 98.8293,202.99 98.5,217.5C 95.1667,217.5 91.8333,217.5 88.5,217.5C 88.8276,206.986 88.4942,196.653 87.5,186.5C 88.0899,185.234 88.5899,183.901 89,182.5C 89.4999,193.828 89.6665,205.162 89.5,216.5C 92.1667,216.5 94.8333,216.5 97.5,216.5C 97.5,202.5 97.5,188.5 97.5,174.5 Z"/></g>
<g><path style="opacity:1" fill="#aad9f3" d="M 59.5,188.5 C 58.5062,197.986 58.1729,207.652 58.5,217.5C 55.2869,217.81 52.2869,217.477 49.5,216.5C 52.1667,216.5 54.8333,216.5 57.5,216.5C 57.3335,205.162 57.5001,193.828 58,182.5C 58.5046,184.518 59.0046,186.518 59.5,188.5 Z"/></g>
<g><path style="opacity:1" fill="#bddff2" d="M 152.5,191.5 C 157.167,191.5 161.833,191.5 166.5,191.5C 166.806,194.385 166.473,197.052 165.5,199.5C 165.5,197.167 165.5,194.833 165.5,192.5C 160.968,192.818 156.634,192.485 152.5,191.5 Z"/></g>
<g><path style="opacity:1" fill="#a8d8f3" d="M 116.5,202.5 C 116.5,207.5 116.5,212.5 116.5,217.5C 112.958,217.813 109.625,217.479 106.5,216.5C 109.5,216.5 112.5,216.5 115.5,216.5C 115.181,211.637 115.514,206.97 116.5,202.5 Z"/></g>
<g><path style="opacity:1" fill="#a9d8f3" d="M 167.5,209.5 C 168.473,211.948 168.806,214.615 168.5,217.5C 159.651,217.826 150.984,217.493 142.5,216.5C 150.833,216.5 159.167,216.5 167.5,216.5C 167.5,214.167 167.5,211.833 167.5,209.5 Z"/></g>
</svg>
