<?xml version="1.0" encoding="UTF-8"?>
<!DOCTYPE svg PUBLIC "-//W3C//DTD SVG 1.1//EN" "http://www.w3.org/Graphics/SVG/1.1/DTD/svg11.dtd">
<svg xmlns="http://www.w3.org/2000/svg" version="1.1" width="256px" height="256px" style="shape-rendering:geometricPrecision; text-rendering:geometricPrecision; image-rendering:optimizeQuality; fill-rule:evenodd; clip-rule:evenodd" xmlns:xlink="http://www.w3.org/1999/xlink">
<g><path style="opacity:1" fill="#47b8f6" d="M 137.5,2.5 C 137.169,29.0053 137.502,55.3386 138.5,81.5C 164.425,108.092 190.758,134.425 217.5,160.5C 217.667,190.169 217.5,219.835 217,249.5C 216.167,250.333 215.333,251.167 214.5,252C 156.5,252.667 98.5,252.667 40.5,252C 39.6667,251.167 38.8333,250.333 38,249.5C 37.3333,168.167 37.3333,86.8333 38,5.5C 38.8333,4.66667 39.6667,3.83333 40.5,3C 72.8316,2.50002 105.165,2.33335 137.5,2.5 Z"/></g>
<g><path style="opacity:0.989" fill="#6acffb" d="M 137.5,2.5 C 164.783,28.1162 191.45,54.4496 217.5,81.5C 191.167,81.5 164.833,81.5 138.5,81.5C 137.502,55.3386 137.169,29.0053 137.5,2.5 Z"/></g>
<g><path style="opacity:1" fill="#45aae3" d="M 138.5,81.5 C 164.833,81.5 191.167,81.5 217.5,81.5C 217.5,107.833 217.5,134.167 217.5,160.5C 190.758,134.425 164.425,108.092 138.5,81.5 Z"/></g>
<g><path style="opacity:1" fill="#addaf3" d="M 70.5,174.5 C 70.5,188.5 70.5,202.5 70.5,216.5C 76.5,216.5 82.5,216.5 88.5,216.5C 82.3554,217.49 76.0221,217.823 69.5,217.5C 69.1707,202.99 69.5041,188.657 70.5,174.5 Z"/></g>
<g><path style="opacity:1" fill="#eef0f1" d="M 70.5,174.5 C 78.903,174.13 87.2363,174.63 95.5,176C 106.419,181.027 110.252,189.527 107,201.5C 104.259,210.742 98.0923,215.742 88.5,216.5C 82.5,216.5 76.5,216.5 70.5,216.5C 70.5,202.5 70.5,188.5 70.5,174.5 Z"/></g>
<g><path style="opacity:1" fill="#ebeff1" d="M 126.5,173.5 C 138.601,171.901 147.101,176.568 152,187.5C 155.136,209.026 145.969,218.86 124.5,217C 113.563,211.562 109.063,202.729 111,190.5C 113.283,182.056 118.45,176.389 126.5,173.5 Z"/></g>
<g><path style="opacity:1" fill="#ebeff1" d="M 188.5,175.5 C 188.806,178.385 188.473,181.052 187.5,183.5C 171.056,179.783 164.222,186.116 167,202.5C 169.748,207.292 173.915,209.626 179.5,209.5C 182.409,209.615 185.075,208.949 187.5,207.5C 188.473,209.948 188.806,212.615 188.5,215.5C 166.17,221.931 155.336,213.597 156,190.5C 162.141,175.346 172.974,170.346 188.5,175.5 Z"/></g>
<g><path style="opacity:1" fill="#a5d7f4" d="M 188.5,175.5 C 189.803,178.355 189.803,181.355 188.5,184.5C 187.893,184.376 187.56,184.043 187.5,183.5C 188.473,181.052 188.806,178.385 188.5,175.5 Z"/></g>
<g><path style="opacity:1" fill="#4ab8f6" d="M 79.5,182.5 C 93.3978,180.896 99.2311,186.896 97,200.5C 93.4829,207.743 87.6495,210.743 79.5,209.5C 79.5,200.5 79.5,191.5 79.5,182.5 Z"/></g>
<g><path style="opacity:1" fill="#4bb9f6" d="M 127.5,182.5 C 134.445,180.775 139.278,183.108 142,189.5C 143.091,195.097 142.424,200.43 140,205.5C 132.892,211.484 126.892,210.484 122,202.5C 121.333,197.833 121.333,193.167 122,188.5C 123.36,185.977 125.193,183.977 127.5,182.5 Z"/></g>
<g><path style="opacity:1" fill="#9fd5f4" d="M 187.5,207.5 C 187.56,206.957 187.893,206.624 188.5,206.5C 189.803,209.645 189.803,212.645 188.5,215.5C 188.806,212.615 188.473,209.948 187.5,207.5 Z"/></g>
</svg>
