<?xml version="1.0" encoding="UTF-8"?>
<!DOCTYPE svg PUBLIC "-//W3C//DTD SVG 1.1//EN" "http://www.w3.org/Graphics/SVG/1.1/DTD/svg11.dtd">
<svg xmlns="http://www.w3.org/2000/svg" version="1.1" width="256px" height="256px" style="shape-rendering:geometricPrecision; text-rendering:geometricPrecision; image-rendering:optimizeQuality; fill-rule:evenodd; clip-rule:evenodd" xmlns:xlink="http://www.w3.org/1999/xlink">
<g><path style="opacity:1" fill="#47b8f6" d="M 137.5,2.5 C 137.169,29.0053 137.502,55.3386 138.5,81.5C 164.425,108.092 190.758,134.425 217.5,160.5C 217.667,190.169 217.5,219.835 217,249.5C 216.167,250.333 215.333,251.167 214.5,252C 156.5,252.667 98.5,252.667 40.5,252C 39.6667,251.167 38.8333,250.333 38,249.5C 37.3333,168.167 37.3333,86.8333 38,5.5C 38.8333,4.66667 39.6667,3.83333 40.5,3C 72.8316,2.50002 105.165,2.33335 137.5,2.5 Z"/></g>
<g><path style="opacity:0.99" fill="#6acffb" d="M 137.5,2.5 C 164.783,28.1162 191.45,54.4496 217.5,81.5C 191.167,81.5 164.833,81.5 138.5,81.5C 137.502,55.3386 137.169,29.0053 137.5,2.5 Z"/></g>
<g><path style="opacity:1" fill="#45aae3" d="M 138.5,81.5 C 164.833,81.5 191.167,81.5 217.5,81.5C 217.5,107.833 217.5,134.167 217.5,160.5C 190.758,134.425 164.425,108.092 138.5,81.5 Z"/></g>
<g><path style="opacity:1" fill="#85ccf4" d="M 76.5,174.5 C 76.5,188.5 76.5,202.5 76.5,216.5C 79.5,216.5 82.5,216.5 85.5,216.5C 85.1805,211.637 85.5139,206.97 86.5,202.5C 86.5,207.5 86.5,212.5 86.5,217.5C 82.8333,217.5 79.1667,217.5 75.5,217.5C 75.1707,202.99 75.5041,188.657 76.5,174.5 Z"/></g>
<g><path style="opacity:1" fill="#eef0f1" d="M 76.5,174.5 C 84.5705,174.137 92.5705,174.637 100.5,176C 106.908,179.323 109.075,184.489 107,191.5C 105.421,197.41 101.588,200.91 95.5,202C 92.5184,202.498 89.5184,202.665 86.5,202.5C 85.5139,206.97 85.1805,211.637 85.5,216.5C 82.5,216.5 79.5,216.5 76.5,216.5C 76.5,202.5 76.5,188.5 76.5,174.5 Z"/></g>
<g><path style="opacity:1" fill="#eceff1" d="M 121.5,173.5 C 126.699,173.014 131.699,173.681 136.5,175.5C 137.833,178.167 137.833,180.833 136.5,183.5C 131.527,181.25 126.527,181.083 121.5,183C 119.972,185.881 120.638,188.214 123.5,190C 130.006,191.659 135.173,195.159 139,200.5C 141.041,209.073 137.874,214.573 129.5,217C 124.167,217.667 118.833,217.667 113.5,217C 112.584,216.626 111.75,216.126 111,215.5C 110.333,212.5 110.333,209.5 111,206.5C 116.045,210.567 121.545,211.401 127.5,209C 128.574,208.261 129.241,207.261 129.5,206C 128.561,204.056 127.227,202.389 125.5,201C 119.042,199.541 114.209,196.041 111,190.5C 108.99,181.357 112.49,175.69 121.5,173.5 Z"/></g>
<g><path style="opacity:1" fill="#9dd5f4" d="M 145.5,174.5 C 145.5,188.5 145.5,202.5 145.5,216.5C 151.5,216.5 157.5,216.5 163.5,216.5C 157.355,217.49 151.022,217.823 144.5,217.5C 144.171,202.99 144.504,188.657 145.5,174.5 Z"/></g>
<g><path style="opacity:1" fill="#eef0f1" d="M 145.5,174.5 C 153.893,174.17 162.227,174.67 170.5,176C 175.91,177.743 179.744,181.243 182,186.5C 186.174,203.188 180.007,213.188 163.5,216.5C 157.5,216.5 151.5,216.5 145.5,216.5C 145.5,202.5 145.5,188.5 145.5,174.5 Z"/></g>
<g><path style="opacity:1" fill="#95d2f4" d="M 92.5,182.5 C 90.5,182.5 88.5,182.5 86.5,182.5C 86.5,186.5 86.5,190.5 86.5,194.5C 88.5,194.5 90.5,194.5 92.5,194.5C 90.3926,195.468 88.0593,195.802 85.5,195.5C 85.5,190.833 85.5,186.167 85.5,181.5C 88.0593,181.198 90.3926,181.532 92.5,182.5 Z"/></g>
<g><path style="opacity:1" fill="#4ab8f6" d="M 92.5,182.5 C 97.0779,183.843 98.5779,186.843 97,191.5C 95.871,193.141 94.371,194.141 92.5,194.5C 90.5,194.5 88.5,194.5 86.5,194.5C 86.5,190.5 86.5,186.5 86.5,182.5C 88.5,182.5 90.5,182.5 92.5,182.5 Z"/></g>
<g><path style="opacity:1" fill="#6ac4f5" d="M 155.5,182.5 C 155.5,191.167 155.5,199.833 155.5,208.5C 157.833,208.5 160.167,208.5 162.5,208.5C 160.052,209.473 157.385,209.806 154.5,209.5C 154.173,200.318 154.507,191.318 155.5,182.5 Z"/></g>
<g><path style="opacity:1" fill="#48b8f6" d="M 155.5,182.5 C 170.775,181.949 175.942,188.949 171,203.5C 168.971,206.596 166.138,208.262 162.5,208.5C 160.167,208.5 157.833,208.5 155.5,208.5C 155.5,199.833 155.5,191.167 155.5,182.5 Z"/></g>
</svg>
