<?xml version="1.0" encoding="UTF-8"?>
<!DOCTYPE svg PUBLIC "-//W3C//DTD SVG 1.1//EN" "http://www.w3.org/Graphics/SVG/1.1/DTD/svg11.dtd">
<svg xmlns="http://www.w3.org/2000/svg" version="1.1" width="256px" height="256px" style="shape-rendering:geometricPrecision; text-rendering:geometricPrecision; image-rendering:optimizeQuality; fill-rule:evenodd; clip-rule:evenodd" xmlns:xlink="http://www.w3.org/1999/xlink">
<g><path style="opacity:1" fill="#fec35a" d="M 137.5,2.5 C 137.5,28.8333 137.5,55.1667 137.5,81.5C 164.14,107.806 190.806,134.139 217.5,160.5C 217.667,190.169 217.5,219.835 217,249.5C 216.167,250.333 215.333,251.167 214.5,252C 156.5,252.667 98.5,252.667 40.5,252C 39.6667,251.167 38.8333,250.333 38,249.5C 37.3333,168.167 37.3333,86.8333 38,5.5C 38.8333,4.66667 39.6667,3.83333 40.5,3C 72.8316,2.50002 105.165,2.33335 137.5,2.5 Z"/></g>
<g><path style="opacity:0.98" fill="#ffcd86" d="M 137.5,2.5 C 164.783,28.1162 191.45,54.4496 217.5,81.5C 190.833,81.5 164.167,81.5 137.5,81.5C 137.5,55.1667 137.5,28.8333 137.5,2.5 Z"/></g>
<g><path style="opacity:1" fill="#eab456" d="M 137.5,81.5 C 164.167,81.5 190.833,81.5 217.5,81.5C 217.5,107.833 217.5,134.167 217.5,160.5C 190.806,134.139 164.14,107.806 137.5,81.5 Z"/></g>
<g><path style="opacity:1" fill="#f4e4c6" d="M 87.5,174.5 C 87.5,188.5 87.5,202.5 87.5,216.5C 90.5,216.5 93.5,216.5 96.5,216.5C 93.3752,217.479 90.0419,217.813 86.5,217.5C 86.1707,202.99 86.5041,188.657 87.5,174.5 Z"/></g>
<g><path style="opacity:1" fill="#f0f0ef" d="M 87.5,174.5 C 95.5,174.5 103.5,174.5 111.5,174.5C 111.5,177.167 111.5,179.833 111.5,182.5C 106.5,182.5 101.5,182.5 96.5,182.5C 96.5,185.833 96.5,189.167 96.5,192.5C 101.167,192.5 105.833,192.5 110.5,192.5C 110.5,195.167 110.5,197.833 110.5,200.5C 105.833,200.5 101.167,200.5 96.5,200.5C 96.5,205.833 96.5,211.167 96.5,216.5C 93.5,216.5 90.5,216.5 87.5,216.5C 87.5,202.5 87.5,188.5 87.5,174.5 Z"/></g>
<g><path style="opacity:1" fill="#f0efeb" d="M 112.5,175.5 C 116.019,174.192 119.685,174.192 123.5,175.5C 125.666,185.829 127.833,196.162 130,206.5C 132.528,195.721 135.361,185.054 138.5,174.5C 142.167,174.5 145.833,174.5 149.5,174.5C 151.53,184.287 154.03,193.954 157,203.5C 158.849,194.086 161.016,184.752 163.5,175.5C 166.428,174.516 169.428,174.183 172.5,174.5C 169.447,188.595 165.947,202.595 162,216.5C 158.27,217.46 154.437,217.793 150.5,217.5C 148.942,207.27 146.442,197.27 143,187.5C 139.87,197.355 137.37,207.355 135.5,217.5C 131.5,217.5 127.5,217.5 123.5,217.5C 120.343,203.241 116.676,189.241 112.5,175.5 Z"/></g>
</svg>
