<?xml version="1.0" encoding="UTF-8"?>
<!DOCTYPE svg PUBLIC "-//W3C//DTD SVG 1.1//EN" "http://www.w3.org/Graphics/SVG/1.1/DTD/svg11.dtd">
<svg xmlns="http://www.w3.org/2000/svg" version="1.1" width="256px" height="256px" style="shape-rendering:geometricPrecision; text-rendering:geometricPrecision; image-rendering:optimizeQuality; fill-rule:evenodd; clip-rule:evenodd" xmlns:xlink="http://www.w3.org/1999/xlink">
<g><path style="opacity:1" fill="#47b8f6" d="M 137.5,2.5 C 137.169,29.0053 137.502,55.3386 138.5,81.5C 164.425,108.092 190.758,134.425 217.5,160.5C 217.667,190.169 217.5,219.835 217,249.5C 216.167,250.333 215.333,251.167 214.5,252C 156.5,252.667 98.5,252.667 40.5,252C 39.6667,251.167 38.8333,250.333 38,249.5C 37.3333,168.167 37.3333,86.8333 38,5.5C 38.8333,4.66667 39.6667,3.83333 40.5,3C 72.8316,2.50002 105.165,2.33335 137.5,2.5 Z"/></g>
<g><path style="opacity:0.989" fill="#6acffb" d="M 137.5,2.5 C 164.783,28.1162 191.45,54.4496 217.5,81.5C 191.167,81.5 164.833,81.5 138.5,81.5C 137.502,55.3386 137.169,29.0053 137.5,2.5 Z"/></g>
<g><path style="opacity:1" fill="#45aae3" d="M 138.5,81.5 C 164.833,81.5 191.167,81.5 217.5,81.5C 217.5,107.833 217.5,134.167 217.5,160.5C 190.758,134.425 164.425,108.092 138.5,81.5 Z"/></g>
<g><path style="opacity:1" fill="#edf0f1" d="M 72.5,174.5 C 81.6626,173.907 90.6626,174.74 99.5,177C 103.5,182 103.5,187 99.5,192C 98.1667,192.667 96.8333,193.333 95.5,194C 104.811,197.49 106.977,203.657 102,212.5C 101.097,213.701 99.9308,214.535 98.5,215C 89.9164,216.41 81.2498,216.91 72.5,216.5C 72.5,202.5 72.5,188.5 72.5,174.5 Z"/></g>
<g><path style="opacity:1" fill="#eceff1" d="M 116.5,216.5 C 112.958,216.813 109.625,216.479 106.5,215.5C 111.167,201.833 115.833,188.167 120.5,174.5C 124.767,174.203 128.934,174.536 133,175.5C 138.338,189.348 143.171,203.348 147.5,217.5C 144.102,217.82 140.768,217.487 137.5,216.5C 136.5,213.833 135.5,211.167 134.5,208.5C 129.208,207.505 123.875,207.172 118.5,207.5C 117.833,210.5 117.167,213.5 116.5,216.5 Z"/></g>
<g><path style="opacity:1" fill="#cde4f2" d="M 152.5,174.5 C 152.5,188.5 152.5,202.5 152.5,216.5C 155.167,216.5 157.833,216.5 160.5,216.5C 160.17,209.8 160.503,203.134 161.5,196.5C 162.107,196.624 162.44,196.957 162.5,197.5C 161.509,203.979 161.176,210.646 161.5,217.5C 158.167,217.5 154.833,217.5 151.5,217.5C 151.171,202.99 151.504,188.657 152.5,174.5 Z"/></g>
<g><path style="opacity:1" fill="#edf0f1" d="M 152.5,174.5 C 155.5,174.5 158.5,174.5 161.5,174.5C 161.334,180.842 161.5,187.175 162,193.5C 166.043,187.247 170.21,181.08 174.5,175C 178.167,174.333 181.833,174.333 185.5,175C 180.819,181.677 176.152,188.344 171.5,195C 176.485,201.989 181.485,208.989 186.5,216C 182.5,216.667 178.5,216.667 174.5,216C 170.251,209.933 166.251,203.766 162.5,197.5C 162.44,196.957 162.107,196.624 161.5,196.5C 160.503,203.134 160.17,209.8 160.5,216.5C 157.833,216.5 155.167,216.5 152.5,216.5C 152.5,202.5 152.5,188.5 152.5,174.5 Z"/></g>
<g><path style="opacity:1" fill="#4cb9f6" d="M 82.5,181.5 C 85.9297,181.107 89.0964,181.773 92,183.5C 92.7581,185.769 92.5914,187.936 91.5,190C 88.6492,191.289 85.6492,191.789 82.5,191.5C 82.5,188.167 82.5,184.833 82.5,181.5 Z"/></g>
<g><path style="opacity:1" fill="#5cbdf6" d="M 126.5,182.5 C 128.769,188.231 130.435,194.231 131.5,200.5C 128.167,200.5 124.833,200.5 121.5,200.5C 122.855,194.412 124.522,188.412 126.5,182.5 Z"/></g>
<g><path style="opacity:1" fill="#4fbaf6" d="M 82.5,198.5 C 86.8394,197.846 90.6727,198.846 94,201.5C 95.0361,204.68 94.2028,207.18 91.5,209C 88.5184,209.498 85.5184,209.665 82.5,209.5C 82.5,205.833 82.5,202.167 82.5,198.5 Z"/></g>
<g><path style="opacity:1" fill="#a2d6f4" d="M 106.5,215.5 C 109.625,216.479 112.958,216.813 116.5,216.5C 112.981,217.808 109.315,217.808 105.5,216.5C 105.624,215.893 105.957,215.56 106.5,215.5 Z"/></g>
</svg>
