<?xml version="1.0" encoding="UTF-8"?>
<!DOCTYPE svg PUBLIC "-//W3C//DTD SVG 1.1//EN" "http://www.w3.org/Graphics/SVG/1.1/DTD/svg11.dtd">
<svg xmlns="http://www.w3.org/2000/svg" version="1.1" width="256px" height="256px" style="shape-rendering:geometricPrecision; text-rendering:geometricPrecision; image-rendering:optimizeQuality; fill-rule:evenodd; clip-rule:evenodd" xmlns:xlink="http://www.w3.org/1999/xlink">
<g><path style="opacity:1" fill="#38c1b9" d="M 137.5,2.5 C 137.169,29.0053 137.502,55.3386 138.5,81.5C 164.425,108.092 190.758,134.425 217.5,160.5C 217.667,190.169 217.5,219.835 217,249.5C 216.167,250.333 215.333,251.167 214.5,252C 156.5,252.667 98.5,252.667 40.5,252C 39.6667,251.167 38.8333,250.333 38,249.5C 37.3333,168.167 37.3333,86.8333 38,5.5C 38.8333,4.66667 39.6667,3.83333 40.5,3C 72.8316,2.50002 105.165,2.33335 137.5,2.5 Z"/></g>
<g><path style="opacity:0.991" fill="#51cbc2" d="M 137.5,2.5 C 164.783,28.1162 191.45,54.4496 217.5,81.5C 191.167,81.5 164.833,81.5 138.5,81.5C 137.502,55.3386 137.169,29.0053 137.5,2.5 Z"/></g>
<g><path style="opacity:1" fill="#37b3ab" d="M 138.5,81.5 C 164.833,81.5 191.167,81.5 217.5,81.5C 217.5,107.833 217.5,134.167 217.5,160.5C 190.758,134.425 164.425,108.092 138.5,81.5 Z"/></g>
<g><path style="opacity:1" fill="#ebefef" d="M 85.5,173.5 C 90.2675,173.191 94.9342,173.691 99.5,175C 101.662,177.522 101.995,180.355 100.5,183.5C 95.9717,181.719 91.305,181.219 86.5,182C 83.7348,184.966 84.0682,187.633 87.5,190C 91.5352,192.007 95.5352,194.007 99.5,196C 104.205,201.078 104.705,206.578 101,212.5C 99.0478,214.894 96.5478,216.394 93.5,217C 88.1667,217.667 82.8333,217.667 77.5,217C 76.5838,216.626 75.7504,216.126 75,215.5C 74.3333,212.5 74.3333,209.5 75,206.5C 80.0448,210.567 85.5448,211.401 91.5,209C 94.1924,206.368 93.859,204.034 90.5,202C 86.5,200 82.5,198 78.5,196C 74.2237,191.108 73.3904,185.608 76,179.5C 78.8426,176.837 82.0093,174.837 85.5,173.5 Z"/></g>
<g><path style="opacity:1" fill="#ecf0ef" d="M 104.5,174.5 C 108.106,174.211 111.606,174.544 115,175.5C 118.07,185.542 121.236,195.542 124.5,205.5C 127.974,195.605 131.141,185.605 134,175.5C 137.409,174.378 140.909,174.211 144.5,175C 139.136,188.592 134.469,202.426 130.5,216.5C 126.445,216.824 122.445,216.491 118.5,215.5C 113.826,201.81 109.159,188.143 104.5,174.5 Z"/></g>
<g><path style="opacity:1" fill="#ecf0f0" d="M 179.5,175.5 C 179.806,178.385 179.473,181.052 178.5,183.5C 172.074,180.736 165.74,180.903 159.5,184C 154.85,188.574 153.35,194.074 155,200.5C 157.579,208.708 163.079,211.541 171.5,209C 172.444,206.281 172.777,203.448 172.5,200.5C 169.833,200.5 167.167,200.5 164.5,200.5C 164.5,198.167 164.5,195.833 164.5,193.5C 170.167,193.5 175.833,193.5 181.5,193.5C 181.5,200.5 181.5,207.5 181.5,214.5C 171.736,218.633 162.069,218.466 152.5,214C 146.47,209.731 143.804,203.897 144.5,196.5C 145.191,181.644 153.024,173.977 168,173.5C 171.973,173.596 175.807,174.262 179.5,175.5 Z"/></g>
<g><path style="opacity:1" fill="#96d9d5" d="M 179.5,175.5 C 180.803,178.355 180.803,181.355 179.5,184.5C 178.893,184.376 178.56,184.043 178.5,183.5C 179.473,181.052 179.806,178.385 179.5,175.5 Z"/></g>
<g><path style="opacity:1" fill="#b5e1de" d="M 181.5,214.5 C 181.5,207.5 181.5,200.5 181.5,193.5C 175.833,193.5 170.167,193.5 164.5,193.5C 164.5,195.833 164.5,198.167 164.5,200.5C 163.527,198.052 163.194,195.385 163.5,192.5C 169.833,192.5 176.167,192.5 182.5,192.5C 182.825,200.019 182.492,207.352 181.5,214.5 Z"/></g>
</svg>
