<?xml version="1.0" encoding="UTF-8"?>
<!DOCTYPE svg PUBLIC "-//W3C//DTD SVG 1.1//EN" "http://www.w3.org/Graphics/SVG/1.1/DTD/svg11.dtd">
<svg xmlns="http://www.w3.org/2000/svg" version="1.1" width="256px" height="256px" style="shape-rendering:geometricPrecision; text-rendering:geometricPrecision; image-rendering:optimizeQuality; fill-rule:evenodd; clip-rule:evenodd" xmlns:xlink="http://www.w3.org/1999/xlink">
<g><path style="opacity:1" fill="#f6974a" d="M 137.5,2.5 C 137.5,28.8333 137.5,55.1667 137.5,81.5C 164.14,107.806 190.806,134.139 217.5,160.5C 217.667,190.169 217.5,219.835 217,249.5C 216.167,250.333 215.333,251.167 214.5,252C 156.5,252.667 98.5,252.667 40.5,252C 39.6667,251.167 38.8333,250.333 38,249.5C 37.3333,168.167 37.3333,86.8333 38,5.5C 38.8333,4.66667 39.6667,3.83333 40.5,3C 72.8316,2.50002 105.165,2.33335 137.5,2.5 Z"/></g>
<g><path style="opacity:0.985" fill="#fbaa75" d="M 137.5,2.5 C 164.783,28.1162 191.45,54.4496 217.5,81.5C 190.833,81.5 164.167,81.5 137.5,81.5C 137.5,55.1667 137.5,28.8333 137.5,2.5 Z"/></g>
<g><path style="opacity:1" fill="#e38d48" d="M 137.5,81.5 C 164.167,81.5 190.833,81.5 217.5,81.5C 217.5,107.833 217.5,134.167 217.5,160.5C 190.806,134.139 164.14,107.806 137.5,81.5 Z"/></g>
<g><path style="opacity:1" fill="#f0ede9" d="M 79.5,173.5 C 85.0283,173 90.3617,173.667 95.5,175.5C 96.6548,178.446 96.8214,181.446 96,184.5C 90.7719,181.041 85.4385,180.707 80,183.5C 79.2025,185.259 79.3691,186.926 80.5,188.5C 85.1216,191.095 89.7883,193.595 94.5,196C 101.192,205.492 99.1923,212.492 88.5,217C 83.1667,217.667 77.8333,217.667 72.5,217C 71.2341,216.691 70.0674,216.191 69,215.5C 68.1786,212.446 68.3452,209.446 69.5,206.5C 74.9938,210.787 80.8271,211.453 87,208.5C 87.6667,206.833 87.6667,205.167 87,203.5C 82.6095,200.813 78.1095,198.313 73.5,196C 65.4508,185.862 67.4508,178.362 79.5,173.5 Z"/></g>
<g><path style="opacity:1" fill="#f0edea" d="M 122.5,215.5 C 118.6,216.43 114.6,216.763 110.5,216.5C 106.992,202.802 103.325,189.136 99.5,175.5C 103.107,174.511 106.774,174.177 110.5,174.5C 112.093,184.301 114.26,193.968 117,203.5C 119.97,193.953 122.47,184.286 124.5,174.5C 128.5,174.5 132.5,174.5 136.5,174.5C 137.924,184.286 140.09,193.952 143,203.5C 145.738,193.977 147.905,184.31 149.5,174.5C 152.833,174.5 156.167,174.5 159.5,174.5C 155.682,188.773 152.015,203.106 148.5,217.5C 144.833,217.5 141.167,217.5 137.5,217.5C 135.323,207.457 132.823,197.457 130,187.5C 126.87,196.69 124.37,206.023 122.5,215.5 Z"/></g>
<g><path style="opacity:1" fill="#f0eeec" d="M 163.5,174.5 C 171.833,174.5 180.167,174.5 188.5,174.5C 188.5,177.167 188.5,179.833 188.5,182.5C 183.5,182.5 178.5,182.5 173.5,182.5C 173.5,185.833 173.5,189.167 173.5,192.5C 178.167,192.5 182.833,192.5 187.5,192.5C 187.5,195.167 187.5,197.833 187.5,200.5C 182.833,200.5 178.167,200.5 173.5,200.5C 173.5,206.167 173.5,211.833 173.5,217.5C 170.167,217.5 166.833,217.5 163.5,217.5C 163.5,203.167 163.5,188.833 163.5,174.5 Z"/></g>
<g><path style="opacity:1" fill="#f3c6a2" d="M 122.5,215.5 C 120.952,216.794 118.952,217.461 116.5,217.5C 114.304,217.495 112.304,217.162 110.5,216.5C 114.6,216.763 118.6,216.43 122.5,215.5 Z"/></g>
</svg>
