<?xml version="1.0" encoding="UTF-8"?>
<!DOCTYPE svg PUBLIC "-//W3C//DTD SVG 1.1//EN" "http://www.w3.org/Graphics/SVG/1.1/DTD/svg11.dtd">
<svg xmlns="http://www.w3.org/2000/svg" version="1.1" width="256px" height="256px" style="shape-rendering:geometricPrecision; text-rendering:geometricPrecision; image-rendering:optimizeQuality; fill-rule:evenodd; clip-rule:evenodd" xmlns:xlink="http://www.w3.org/1999/xlink">
<g><path style="opacity:1" fill="#49acc5" d="M 137.5,2.5 C 137.169,29.0053 137.502,55.3386 138.5,81.5C 164.425,108.092 190.758,134.425 217.5,160.5C 217.667,190.169 217.5,219.835 217,249.5C 216.167,250.333 215.333,251.167 214.5,252C 156.5,252.667 98.5,252.667 40.5,252C 39.6667,251.167 38.8333,250.333 38,249.5C 37.3333,168.167 37.3333,86.8333 38,5.5C 38.8333,4.66667 39.6667,3.83333 40.5,3C 72.8316,2.50002 105.165,2.33335 137.5,2.5 Z"/></g>
<g><path style="opacity:0.989" fill="#63bbd0" d="M 137.5,2.5 C 164.783,28.1162 191.45,54.4496 217.5,81.5C 191.167,81.5 164.833,81.5 138.5,81.5C 137.502,55.3386 137.169,29.0053 137.5,2.5 Z"/></g>
<g><path style="opacity:1" fill="#47a0b6" d="M 138.5,81.5 C 164.833,81.5 191.167,81.5 217.5,81.5C 217.5,107.833 217.5,134.167 217.5,160.5C 190.758,134.425 164.425,108.092 138.5,81.5 Z"/></g>
<g><path style="opacity:1" fill="#9dcfdb" d="M 72.5,174.5 C 72.5,188.5 72.5,202.5 72.5,216.5C 75.5,216.5 78.5,216.5 81.5,216.5C 78.3752,217.479 75.0419,217.813 71.5,217.5C 71.1707,202.99 71.5041,188.657 72.5,174.5 Z"/></g>
<g><path style="opacity:1" fill="#edeff0" d="M 72.5,174.5 C 79.175,174.334 85.8417,174.5 92.5,175C 101.419,176.594 104.586,181.761 102,190.5C 100.108,194.058 97.2749,196.558 93.5,198C 95.286,198.785 96.786,199.951 98,201.5C 100.6,205.713 103.433,209.713 106.5,213.5C 111.625,200.96 116.458,188.293 121,175.5C 125.066,174.536 129.233,174.203 133.5,174.5C 137.88,188.262 142.547,201.928 147.5,215.5C 144.375,216.479 141.042,216.813 137.5,216.5C 136.798,213.56 135.798,210.727 134.5,208C 129.5,207.333 124.5,207.333 119.5,208C 117.998,211.005 116.998,214.171 116.5,217.5C 109.8,217.83 103.134,217.497 96.5,216.5C 93.9179,211.667 91.0845,207 88,202.5C 86.103,200.984 83.9363,200.317 81.5,200.5C 81.5,205.833 81.5,211.167 81.5,216.5C 78.5,216.5 75.5,216.5 72.5,216.5C 72.5,202.5 72.5,188.5 72.5,174.5 Z"/></g>
<g><path style="opacity:1" fill="#afd6e0" d="M 152.5,174.5 C 152.5,188.5 152.5,202.5 152.5,216.5C 155.5,216.5 158.5,216.5 161.5,216.5C 158.375,217.479 155.042,217.813 151.5,217.5C 151.171,202.99 151.504,188.657 152.5,174.5 Z"/></g>
<g><path style="opacity:1" fill="#eef0f0" d="M 152.5,174.5 C 159.175,174.334 165.842,174.5 172.5,175C 181.115,176.717 184.281,181.884 182,190.5C 180.108,194.058 177.275,196.558 173.5,198C 178.916,202.984 183.249,208.817 186.5,215.5C 183.375,216.479 180.042,216.813 176.5,216.5C 173.526,211.851 170.526,207.184 167.5,202.5C 165.827,200.914 163.827,200.247 161.5,200.5C 161.5,205.833 161.5,211.167 161.5,216.5C 158.5,216.5 155.5,216.5 152.5,216.5C 152.5,202.5 152.5,188.5 152.5,174.5 Z"/></g>
<g><path style="opacity:1" fill="#52afc7" d="M 81.5,181.5 C 84.1873,181.336 86.854,181.503 89.5,182C 93.0095,185.048 93.3428,188.381 90.5,192C 87.6492,193.289 84.6492,193.789 81.5,193.5C 81.5,189.5 81.5,185.5 81.5,181.5 Z"/></g>
<g><path style="opacity:1" fill="#4eadc6" d="M 161.5,181.5 C 165.516,180.9 169.016,181.9 172,184.5C 172.663,191.958 169.163,194.958 161.5,193.5C 161.5,189.5 161.5,185.5 161.5,181.5 Z"/></g>
<g><path style="opacity:1" fill="#5cb2c9" d="M 126.5,182.5 C 128.466,188.058 130.466,193.724 132.5,199.5C 128.893,200.489 125.226,200.823 121.5,200.5C 123.167,194.5 124.833,188.5 126.5,182.5 Z"/></g>
<g><path style="opacity:1" fill="#a1d0dc" d="M 147.5,215.5 C 148.043,215.56 148.376,215.893 148.5,216.5C 144.685,217.808 141.019,217.808 137.5,216.5C 141.042,216.813 144.375,216.479 147.5,215.5 Z"/></g>
<g><path style="opacity:1" fill="#a8d3de" d="M 186.5,215.5 C 187.043,215.56 187.376,215.893 187.5,216.5C 183.685,217.808 180.019,217.808 176.5,216.5C 180.042,216.813 183.375,216.479 186.5,215.5 Z"/></g>
</svg>
