<?xml version="1.0" encoding="UTF-8"?>
<!DOCTYPE svg PUBLIC "-//W3C//DTD SVG 1.1//EN" "http://www.w3.org/Graphics/SVG/1.1/DTD/svg11.dtd">
<svg xmlns="http://www.w3.org/2000/svg" version="1.1" width="256px" height="256px" style="shape-rendering:geometricPrecision; text-rendering:geometricPrecision; image-rendering:optimizeQuality; fill-rule:evenodd; clip-rule:evenodd" xmlns:xlink="http://www.w3.org/1999/xlink">
<g><path style="opacity:1" fill="#2fbe77" d="M 137.5,2.5 C 137.169,29.0053 137.502,55.3386 138.5,81.5C 164.425,108.092 190.758,134.425 217.5,160.5C 217.667,190.169 217.5,219.835 217,249.5C 216.167,250.333 215.333,251.167 214.5,252C 156.5,252.667 98.5,252.667 40.5,252C 39.6667,251.167 38.8333,250.333 38,249.5C 37.3333,168.167 37.3333,86.8333 38,5.5C 38.8333,4.66667 39.6667,3.83333 40.5,3C 72.8316,2.50002 105.165,2.33335 137.5,2.5 Z"/></g>
<g><path style="opacity:0.994" fill="#48c784" d="M 137.5,2.5 C 164.783,28.1162 191.45,54.4496 217.5,81.5C 191.167,81.5 164.833,81.5 138.5,81.5C 137.502,55.3386 137.169,29.0053 137.5,2.5 Z"/></g>
<g><path style="opacity:1" fill="#2fb070" d="M 138.5,81.5 C 164.833,81.5 191.167,81.5 217.5,81.5C 217.5,107.833 217.5,134.167 217.5,160.5C 190.758,134.425 164.425,108.092 138.5,81.5 Z"/></g>
<g><path style="opacity:1" fill="#ebefee" d="M 86.5,216.5 C 82.9581,216.813 79.6248,216.479 76.5,215.5C 81.1667,201.833 85.8333,188.167 90.5,174.5C 94.7675,174.203 98.9341,174.536 103,175.5C 108.338,189.348 113.171,203.348 117.5,217.5C 114.102,217.82 110.768,217.487 107.5,216.5C 106.5,213.833 105.5,211.167 104.5,208.5C 99.2079,207.505 93.8746,207.172 88.5,207.5C 87.8333,210.5 87.1667,213.5 86.5,216.5 Z"/></g>
<g><path style="opacity:1" fill="#ebefed" d="M 146.5,175.5 C 146.806,178.385 146.473,181.052 145.5,183.5C 141.394,181.555 137.061,181.055 132.5,182C 129.141,184.034 128.808,186.368 131.5,189C 135.5,191 139.5,193 143.5,195C 149.312,200.791 149.979,207.124 145.5,214C 137.216,218.049 128.716,218.549 120,215.5C 119.179,212.446 119.345,209.446 120.5,206.5C 125.38,210.459 130.713,211.292 136.5,209C 139.167,206.667 139.167,204.333 136.5,202C 130.447,200.226 125.28,197.059 121,192.5C 118.09,179.89 123.257,173.556 136.5,173.5C 140.029,173.401 143.363,174.067 146.5,175.5 Z"/></g>
<g><path style="opacity:1" fill="#ecf0ee" d="M 164.5,200.5 C 163.512,205.64 163.179,210.974 163.5,216.5C 160.5,216.5 157.5,216.5 154.5,216.5C 154.5,202.5 154.5,188.5 154.5,174.5C 162.833,174.5 171.167,174.5 179.5,174.5C 179.5,177.167 179.5,179.833 179.5,182.5C 174.5,182.5 169.5,182.5 164.5,182.5C 164.5,185.833 164.5,189.167 164.5,192.5C 168.833,192.5 173.167,192.5 177.5,192.5C 177.5,195.167 177.5,197.833 177.5,200.5C 173.167,200.5 168.833,200.5 164.5,200.5 Z"/></g>
<g><path style="opacity:1" fill="#94d8b6" d="M 146.5,175.5 C 147.803,178.355 147.803,181.355 146.5,184.5C 145.893,184.376 145.56,184.043 145.5,183.5C 146.473,181.052 146.806,178.385 146.5,175.5 Z"/></g>
<g><path style="opacity:1" fill="#44c281" d="M 96.5,182.5 C 98.5364,188.292 100.203,194.292 101.5,200.5C 98.1667,200.5 94.8333,200.5 91.5,200.5C 92.8553,194.412 94.5219,188.412 96.5,182.5 Z"/></g>
<g><path style="opacity:1" fill="#9bdabb" d="M 164.5,200.5 C 164.5,206.167 164.5,211.833 164.5,217.5C 160.958,217.813 157.625,217.479 154.5,216.5C 157.5,216.5 160.5,216.5 163.5,216.5C 163.179,210.974 163.512,205.64 164.5,200.5 Z"/></g>
<g><path style="opacity:1" fill="#98dab9" d="M 76.5,215.5 C 79.6248,216.479 82.9581,216.813 86.5,216.5C 82.9813,217.808 79.3147,217.808 75.5,216.5C 75.6236,215.893 75.9569,215.56 76.5,215.5 Z"/></g>
</svg>
