<?xml version="1.0" encoding="UTF-8"?>
<!DOCTYPE svg PUBLIC "-//W3C//DTD SVG 1.1//EN" "http://www.w3.org/Graphics/SVG/1.1/DTD/svg11.dtd">
<svg xmlns="http://www.w3.org/2000/svg" version="1.1" width="256px" height="256px" style="shape-rendering:geometricPrecision; text-rendering:geometricPrecision; image-rendering:optimizeQuality; fill-rule:evenodd; clip-rule:evenodd" xmlns:xlink="http://www.w3.org/1999/xlink">
<g><path style="opacity:1" fill="#fec35a" d="M 137.5,2.5 C 137.5,28.8333 137.5,55.1667 137.5,81.5C 164.14,107.806 190.806,134.139 217.5,160.5C 217.667,190.169 217.5,219.835 217,249.5C 216.167,250.333 215.333,251.167 214.5,252C 156.5,252.667 98.5,252.667 40.5,252C 39.6667,251.167 38.8333,250.333 38,249.5C 37.3333,168.167 37.3333,86.8333 38,5.5C 38.8333,4.66667 39.6667,3.83333 40.5,3C 72.8316,2.50002 105.165,2.33335 137.5,2.5 Z"/></g>
<g><path style="opacity:0.98" fill="#ffcd86" d="M 137.5,2.5 C 164.783,28.1162 191.45,54.4496 217.5,81.5C 190.833,81.5 164.167,81.5 137.5,81.5C 137.5,55.1667 137.5,28.8333 137.5,2.5 Z"/></g>
<g><path style="opacity:1" fill="#eab456" d="M 137.5,81.5 C 164.167,81.5 190.833,81.5 217.5,81.5C 217.5,107.833 217.5,134.167 217.5,160.5C 190.806,134.139 164.14,107.806 137.5,81.5 Z"/></g>
<g><path style="opacity:1" fill="#f0efec" d="M 76.5,215.5 C 76.1984,212.941 76.5318,210.607 77.5,208.5C 82.9112,211.435 88.0778,211.101 93,207.5C 94.0405,204.364 93.2072,201.864 90.5,200C 87.3117,198.684 83.9783,198.184 80.5,198.5C 80.5,196.167 80.5,193.833 80.5,191.5C 83.941,191.699 87.2744,191.199 90.5,190C 93.1667,187.333 93.1667,184.667 90.5,182C 86.0998,181.022 81.9331,181.522 78,183.5C 76.0978,175.925 79.0978,172.592 87,173.5C 98.2024,173.358 102.869,178.692 101,189.5C 99.378,191.906 97.2114,193.739 94.5,195C 103.723,198.096 105.889,203.93 101,212.5C 96.6289,216.389 91.4623,218.056 85.5,217.5C 83.1667,217.333 80.8333,217.167 78.5,217C 77.5842,216.722 76.9175,216.222 76.5,215.5 Z"/></g>
<g><path style="opacity:1" fill="#f0efed" d="M 127.5,200.5 C 127.5,198.167 127.5,195.833 127.5,193.5C 133.167,193.5 138.833,193.5 144.5,193.5C 144.5,200.5 144.5,207.5 144.5,214.5C 134.762,218.663 125.095,218.496 115.5,214C 106.699,204.968 105.199,194.801 111,183.5C 119.938,173.456 130.771,170.789 143.5,175.5C 143.817,178.572 143.484,181.572 142.5,184.5C 131.835,178.671 123.668,181.004 118,191.5C 116.078,204.574 121.578,210.408 134.5,209C 135.444,206.281 135.777,203.448 135.5,200.5C 132.833,200.5 130.167,200.5 127.5,200.5 Z"/></g>
<g><path style="opacity:1" fill="#f7d79e" d="M 152.5,174.5 C 152.5,188.5 152.5,202.5 152.5,216.5C 155.5,216.5 158.5,216.5 161.5,216.5C 158.375,217.479 155.042,217.813 151.5,217.5C 151.171,202.99 151.504,188.657 152.5,174.5 Z"/></g>
<g><path style="opacity:1" fill="#f0f0ef" d="M 152.5,174.5 C 159.508,174.334 166.508,174.5 173.5,175C 181.429,177.686 184.596,183.186 183,191.5C 181.421,197.41 177.588,200.91 171.5,202C 168.183,202.498 164.85,202.665 161.5,202.5C 161.5,207.167 161.5,211.833 161.5,216.5C 158.5,216.5 155.5,216.5 152.5,216.5C 152.5,202.5 152.5,188.5 152.5,174.5 Z"/></g>
<g><path style="opacity:1" fill="#f9d38e" d="M 168.5,182.5 C 166.5,182.5 164.5,182.5 162.5,182.5C 162.5,186.5 162.5,190.5 162.5,194.5C 164.5,194.5 166.5,194.5 168.5,194.5C 166.393,195.468 164.059,195.802 161.5,195.5C 161.5,190.833 161.5,186.167 161.5,181.5C 164.059,181.198 166.393,181.532 168.5,182.5 Z"/></g>
<g><path style="opacity:1" fill="#fec45d" d="M 168.5,182.5 C 173.577,184.334 174.744,187.667 172,192.5C 171.184,193.823 170.017,194.489 168.5,194.5C 166.5,194.5 164.5,194.5 162.5,194.5C 162.5,190.5 162.5,186.5 162.5,182.5C 164.5,182.5 166.5,182.5 168.5,182.5 Z"/></g>
<g><path style="opacity:1" fill="#f3e7d3" d="M 144.5,214.5 C 144.5,207.5 144.5,200.5 144.5,193.5C 138.833,193.5 133.167,193.5 127.5,193.5C 127.5,195.833 127.5,198.167 127.5,200.5C 126.527,198.052 126.194,195.385 126.5,192.5C 132.833,192.5 139.167,192.5 145.5,192.5C 145.825,200.019 145.492,207.352 144.5,214.5 Z"/></g>
<g><path style="opacity:1" fill="#f7dbab" d="M 77.5,208.5 C 76.5318,210.607 76.1984,212.941 76.5,215.5C 75.1997,212.976 75.1997,210.309 76.5,207.5C 77.1067,207.624 77.44,207.957 77.5,208.5 Z"/></g>
</svg>
