<?xml version="1.0" encoding="UTF-8"?>
<!DOCTYPE svg PUBLIC "-//W3C//DTD SVG 1.1//EN" "http://www.w3.org/Graphics/SVG/1.1/DTD/svg11.dtd">
<svg xmlns="http://www.w3.org/2000/svg" version="1.1" width="256px" height="256px" style="shape-rendering:geometricPrecision; text-rendering:geometricPrecision; image-rendering:optimizeQuality; fill-rule:evenodd; clip-rule:evenodd" xmlns:xlink="http://www.w3.org/1999/xlink">
<g><path style="opacity:1" fill="#77645c" d="M 137.5,2.5 C 137.5,28.8333 137.5,55.1667 137.5,81.5C 164.167,81.5 190.833,81.5 217.5,81.5C 217.5,81.8333 217.5,82.1667 217.5,82.5C 191.165,82.3334 164.831,82.5 138.5,83C 164.5,107.667 189.833,133 214.5,159C 215.527,159.513 216.527,160.013 217.5,160.5C 217.667,190.169 217.5,219.835 217,249.5C 216.167,250.333 215.333,251.167 214.5,252C 156.5,252.667 98.5,252.667 40.5,252C 39.6667,251.167 38.8333,250.333 38,249.5C 37.3333,168.167 37.3333,86.8333 38,5.5C 38.8333,4.66667 39.6667,3.83333 40.5,3C 72.8316,2.50002 105.165,2.33335 137.5,2.5 Z"/></g>
<g><path style="opacity:0.988" fill="#81766e" d="M 137.5,2.5 C 164.783,28.1162 191.45,54.4496 217.5,81.5C 190.833,81.5 164.167,81.5 137.5,81.5C 137.5,55.1667 137.5,28.8333 137.5,2.5 Z"/></g>
<g><path style="opacity:1" fill="#705f58" d="M 217.5,82.5 C 217.5,108.5 217.5,134.5 217.5,160.5C 216.527,160.013 215.527,159.513 214.5,159C 189.833,133 164.5,107.667 138.5,83C 164.831,82.5 191.165,82.3334 217.5,82.5 Z"/></g>
<g><path style="opacity:1" fill="#eceded" d="M 121.5,215.5 C 118.375,216.479 115.042,216.813 111.5,216.5C 110.833,213.5 110.167,210.5 109.5,207.5C 104.125,207.172 98.7921,207.505 93.5,208.5C 92.5,211.167 91.5,213.833 90.5,216.5C 87.2317,217.487 83.8984,217.82 80.5,217.5C 84.8287,203.348 89.662,189.348 95,175.5C 97.0745,174.866 99.2412,174.532 101.5,174.5C 103.964,174.59 106.13,175.257 108,176.5C 113.005,189.348 117.505,202.348 121.5,215.5 Z"/></g>
<g><path style="opacity:1" fill="#ededed" d="M 175.5,181.5 C 174.167,181.5 172.833,181.5 171.5,181.5C 171.173,191.015 171.506,200.348 172.5,209.5C 173.167,209.5 173.833,209.5 174.5,209.5C 174.5,211.833 174.5,214.167 174.5,216.5C 169.167,216.5 163.833,216.5 158.5,216.5C 158.5,214.167 158.5,211.833 158.5,209.5C 159.5,209.5 160.5,209.5 161.5,209.5C 162.494,200.348 162.827,191.015 162.5,181.5C 161.167,181.5 159.833,181.5 158.5,181.5C 158.662,179.473 158.495,177.473 158,175.5C 153.265,189.204 148.432,202.871 143.5,216.5C 139.893,217.489 136.226,217.823 132.5,217.5C 128.043,203.461 123.376,189.461 118.5,175.5C 122.045,174.209 125.545,174.209 129,175.5C 132.407,185.72 135.407,196.054 138,206.5C 141.78,196.054 144.947,185.387 147.5,174.5C 156.833,174.5 166.167,174.5 175.5,174.5C 175.5,176.833 175.5,179.167 175.5,181.5 Z"/></g>
<g><path style="opacity:1" fill="#bab3af" d="M 158.5,181.5 C 159.833,181.5 161.167,181.5 162.5,181.5C 162.827,191.015 162.494,200.348 161.5,209.5C 161.5,200.5 161.5,191.5 161.5,182.5C 160.209,182.737 159.209,182.404 158.5,181.5 Z"/></g>
<g><path style="opacity:1" fill="#8a7a73" d="M 175.5,181.5 C 174.791,182.404 173.791,182.737 172.5,182.5C 172.5,191.5 172.5,200.5 172.5,209.5C 171.506,200.348 171.173,191.015 171.5,181.5C 172.833,181.5 174.167,181.5 175.5,181.5 Z"/></g>
<g><path style="opacity:1" fill="#7e6c65" d="M 105.5,197.5 C 104.486,198.765 102.986,199.431 101,199.5C 99.2933,199.492 97.7933,199.158 96.5,198.5C 97.8915,193.156 99.3915,187.823 101,182.5C 102.81,187.429 104.31,192.429 105.5,197.5 Z"/></g>
<g><path style="opacity:1" fill="#a29691" d="M 105.5,197.5 C 106.404,198.209 106.737,199.209 106.5,200.5C 102.774,200.823 99.1073,200.489 95.5,199.5C 95.6236,198.893 95.9569,198.56 96.5,198.5C 97.7933,199.158 99.2933,199.492 101,199.5C 102.986,199.431 104.486,198.765 105.5,197.5 Z"/></g>
<g><path style="opacity:1" fill="#b9b1ad" d="M 121.5,215.5 C 122.043,215.56 122.376,215.893 122.5,216.5C 118.685,217.808 115.019,217.808 111.5,216.5C 115.042,216.813 118.375,216.479 121.5,215.5 Z"/></g>
<g><path style="opacity:1" fill="#bfb8b5" d="M 174.5,209.5 C 175.473,211.948 175.806,214.615 175.5,217.5C 169.642,217.822 163.975,217.489 158.5,216.5C 163.833,216.5 169.167,216.5 174.5,216.5C 174.5,214.167 174.5,211.833 174.5,209.5 Z"/></g>
</svg>
