<?xml version="1.0" encoding="UTF-8"?>
<!DOCTYPE svg PUBLIC "-//W3C//DTD SVG 1.1//EN" "http://www.w3.org/Graphics/SVG/1.1/DTD/svg11.dtd">
<svg xmlns="http://www.w3.org/2000/svg" version="1.1" width="256px" height="256px" style="shape-rendering:geometricPrecision; text-rendering:geometricPrecision; image-rendering:optimizeQuality; fill-rule:evenodd; clip-rule:evenodd" xmlns:xlink="http://www.w3.org/1999/xlink">
<g><path style="opacity:1" fill="#c5d773" d="M 137.5,2.5 C 137.169,29.0053 137.502,55.3386 138.5,81.5C 164.425,108.092 190.758,134.425 217.5,160.5C 217.667,190.169 217.5,219.835 217,249.5C 216.167,250.333 215.333,251.167 214.5,252C 156.5,252.667 98.5,252.667 40.5,252C 39.6667,251.167 38.8333,250.333 38,249.5C 37.3333,168.167 37.3333,86.8333 38,5.5C 38.8333,4.66667 39.6667,3.83333 40.5,3C 72.8316,2.50002 105.165,2.33335 137.5,2.5 Z"/></g>
<g><path style="opacity:0.988" fill="#d2de87" d="M 137.5,2.5 C 164.783,28.1162 191.45,54.4496 217.5,81.5C 191.167,81.5 164.833,81.5 138.5,81.5C 137.502,55.3386 137.169,29.0053 137.5,2.5 Z"/></g>
<g><path style="opacity:1" fill="#b6c66c" d="M 138.5,81.5 C 164.833,81.5 191.167,81.5 217.5,81.5C 217.5,107.833 217.5,134.167 217.5,160.5C 190.758,134.425 164.425,108.092 138.5,81.5 Z"/></g>
<g><path style="opacity:1" fill="#eef0ed" d="M 97.5,209.5 C 97.5,211.833 97.5,214.167 97.5,216.5C 92.1667,216.5 86.8333,216.5 81.5,216.5C 81.5,214.167 81.5,211.833 81.5,209.5C 82.5,209.5 83.5,209.5 84.5,209.5C 84.5,200.5 84.5,191.5 84.5,182.5C 83.5,182.5 82.5,182.5 81.5,182.5C 81.5,179.833 81.5,177.167 81.5,174.5C 87.1667,174.5 92.8333,174.5 98.5,174.5C 98.5,176.833 98.5,179.167 98.5,181.5C 97.1667,181.5 95.8333,181.5 94.5,181.5C 94.5,190.833 94.5,200.167 94.5,209.5C 95.5,209.5 96.5,209.5 97.5,209.5 Z"/></g>
<g><path style="opacity:1" fill="#eef0ed" d="M 127.5,175.5 C 127.806,178.385 127.473,181.052 126.5,183.5C 121.558,181.256 116.558,181.09 111.5,183C 110.065,185.267 110.398,187.267 112.5,189C 116.5,191 120.5,193 124.5,195C 130.142,200.432 130.976,206.599 127,213.5C 124.913,214.794 122.746,215.961 120.5,217C 115.167,217.667 109.833,217.667 104.5,217C 103.234,216.691 102.067,216.191 101,215.5C 100.179,212.446 100.345,209.446 101.5,206.5C 106.38,210.459 111.713,211.292 117.5,209C 119.602,207.267 119.935,205.267 118.5,203C 112.271,200.636 106.771,197.136 102,192.5C 98.6887,179.621 103.855,173.288 117.5,173.5C 121.029,173.401 124.363,174.067 127.5,175.5 Z"/></g>
<g><path style="opacity:1" fill="#eef0ed" d="M 148.5,173.5 C 168.018,172.85 176.518,182.183 174,201.5C 169.597,214.791 160.43,219.958 146.5,217C 134.969,211.459 130.469,202.292 133,189.5C 135.685,181.65 140.852,176.316 148.5,173.5 Z"/></g>
<g><path style="opacity:1" fill="#d6e1a7" d="M 127.5,175.5 C 128.803,178.355 128.803,181.355 127.5,184.5C 126.893,184.376 126.56,184.043 126.5,183.5C 127.473,181.052 127.806,178.385 127.5,175.5 Z"/></g>
<g><path style="opacity:1" fill="#c6d776" d="M 149.5,182.5 C 156.838,180.678 161.671,183.344 164,190.5C 165.38,197.148 163.88,202.981 159.5,208C 150.833,211.335 145.333,208.502 143,199.5C 141.556,192.317 143.723,186.65 149.5,182.5 Z"/></g>
<g><path style="opacity:1" fill="#dbe4b3" d="M 81.5,209.5 C 81.5,211.833 81.5,214.167 81.5,216.5C 86.8333,216.5 92.1667,216.5 97.5,216.5C 97.5,214.167 97.5,211.833 97.5,209.5C 98.4731,211.948 98.8064,214.615 98.5,217.5C 92.5,217.5 86.5,217.5 80.5,217.5C 80.1936,214.615 80.5269,211.948 81.5,209.5 Z"/></g>
</svg>
