<?xml version="1.0" encoding="UTF-8"?>
<!DOCTYPE svg PUBLIC "-//W3C//DTD SVG 1.1//EN" "http://www.w3.org/Graphics/SVG/1.1/DTD/svg11.dtd">
<svg xmlns="http://www.w3.org/2000/svg" version="1.1" width="256px" height="256px" style="shape-rendering:geometricPrecision; text-rendering:geometricPrecision; image-rendering:optimizeQuality; fill-rule:evenodd; clip-rule:evenodd" xmlns:xlink="http://www.w3.org/1999/xlink">
<g><path style="opacity:1" fill="#c5d773" d="M 137.5,2.5 C 137.169,29.0053 137.502,55.3386 138.5,81.5C 164.425,108.092 190.758,134.425 217.5,160.5C 217.667,190.169 217.5,219.835 217,249.5C 216.167,250.333 215.333,251.167 214.5,252C 156.5,252.667 98.5,252.667 40.5,252C 39.6667,251.167 38.8333,250.333 38,249.5C 37.3333,168.167 37.3333,86.8333 38,5.5C 38.8333,4.66667 39.6667,3.83333 40.5,3C 72.8316,2.50002 105.165,2.33335 137.5,2.5 Z"/></g>
<g><path style="opacity:0.989" fill="#d2de87" d="M 137.5,2.5 C 164.783,28.1162 191.45,54.4496 217.5,81.5C 191.167,81.5 164.833,81.5 138.5,81.5C 137.502,55.3386 137.169,29.0053 137.5,2.5 Z"/></g>
<g><path style="opacity:1" fill="#b6c66c" d="M 138.5,81.5 C 164.833,81.5 191.167,81.5 217.5,81.5C 217.5,107.833 217.5,134.167 217.5,160.5C 190.758,134.425 164.425,108.092 138.5,81.5 Z"/></g>
<g><path style="opacity:1" fill="#dbe4b2" d="M 69.5,174.5 C 69.5,188.5 69.5,202.5 69.5,216.5C 72.1667,216.5 74.8333,216.5 77.5,216.5C 77.5,216.833 77.5,217.167 77.5,217.5C 74.5,217.5 71.5,217.5 68.5,217.5C 68.1707,202.99 68.5041,188.657 69.5,174.5 Z"/></g>
<g><path style="opacity:1" fill="#eff0ef" d="M 69.5,174.5 C 74.2137,174.173 78.8804,174.507 83.5,175.5C 86.9115,184.906 90.4115,194.239 94,203.5C 97.2774,193.835 100.444,184.168 103.5,174.5C 108.167,174.5 112.833,174.5 117.5,174.5C 117.5,188.5 117.5,202.5 117.5,216.5C 114.5,216.5 111.5,216.5 108.5,216.5C 108.667,205.828 108.5,195.161 108,184.5C 104.195,195.415 100.695,206.415 97.5,217.5C 94.5525,217.777 91.7191,217.444 89,216.5C 85.8166,207.475 82.6499,198.475 79.5,189.5C 79.1077,187.821 78.6077,186.154 78,184.5C 77.5002,195.161 77.3335,205.828 77.5,216.5C 74.8333,216.5 72.1667,216.5 69.5,216.5C 69.5,202.5 69.5,188.5 69.5,174.5 Z"/></g>
<g><path style="opacity:1" fill="#d8e2ab" d="M 117.5,174.5 C 118.496,188.657 118.829,202.99 118.5,217.5C 114.958,217.813 111.625,217.479 108.5,216.5C 111.5,216.5 114.5,216.5 117.5,216.5C 117.5,202.5 117.5,188.5 117.5,174.5 Z"/></g>
<g><path style="opacity:1" fill="#d8e2ab" d="M 126.5,174.5 C 126.5,188.5 126.5,202.5 126.5,216.5C 129.5,216.5 132.5,216.5 135.5,216.5C 132.375,217.479 129.042,217.813 125.5,217.5C 125.171,202.99 125.504,188.657 126.5,174.5 Z"/></g>
<g><path style="opacity:1" fill="#eff0ef" d="M 126.5,174.5 C 133.508,174.334 140.508,174.5 147.5,175C 155.429,177.686 158.596,183.186 157,191.5C 155.421,197.41 151.588,200.91 145.5,202C 142.183,202.498 138.85,202.665 135.5,202.5C 135.5,207.167 135.5,211.833 135.5,216.5C 132.5,216.5 129.5,216.5 126.5,216.5C 126.5,202.5 126.5,188.5 126.5,174.5 Z"/></g>
<g><path style="opacity:1" fill="#eef0ed" d="M 168.5,173.5 C 175.128,172.657 180.961,174.323 186,178.5C 189.513,186.276 187.346,191.776 179.5,195C 187.554,196.593 190.387,201.426 188,209.5C 186.035,213.459 182.869,215.959 178.5,217C 173.833,217.667 169.167,217.667 164.5,217C 163.584,216.626 162.75,216.126 162,215.5C 161.333,212.833 161.333,210.167 162,207.5C 167.162,211.001 172.496,211.334 178,208.5C 180.497,204.649 179.663,201.816 175.5,200C 172.607,198.851 169.607,198.351 166.5,198.5C 166.5,196.167 166.5,193.833 166.5,191.5C 169.941,191.699 173.274,191.199 176.5,190C 178.077,187.043 177.744,184.376 175.5,182C 171.428,181.044 167.595,181.544 164,183.5C 163.182,180.773 163.348,178.106 164.5,175.5C 166.026,175.006 167.359,174.339 168.5,173.5 Z"/></g>
<g><path style="opacity:1" fill="#d3e09e" d="M 142.5,182.5 C 140.5,182.5 138.5,182.5 136.5,182.5C 136.5,186.5 136.5,190.5 136.5,194.5C 138.5,194.5 140.5,194.5 142.5,194.5C 140.393,195.468 138.059,195.802 135.5,195.5C 135.5,190.833 135.5,186.167 135.5,181.5C 138.059,181.198 140.393,181.532 142.5,182.5 Z"/></g>
<g><path style="opacity:1" fill="#c6d776" d="M 142.5,182.5 C 147.078,183.843 148.578,186.843 147,191.5C 145.871,193.141 144.371,194.141 142.5,194.5C 140.5,194.5 138.5,194.5 136.5,194.5C 136.5,190.5 136.5,186.5 136.5,182.5C 138.5,182.5 140.5,182.5 142.5,182.5 Z"/></g>
<g><path style="opacity:1" fill="#d1de98" d="M 79.5,189.5 C 78.8333,198.833 78.1667,208.167 77.5,217.5C 77.5,217.167 77.5,216.833 77.5,216.5C 77.3335,205.828 77.5002,195.161 78,184.5C 78.6077,186.154 79.1077,187.821 79.5,189.5 Z"/></g>
</svg>
