<?xml version="1.0" encoding="UTF-8"?>
<!DOCTYPE svg PUBLIC "-//W3C//DTD SVG 1.1//EN" "http://www.w3.org/Graphics/SVG/1.1/DTD/svg11.dtd">
<svg xmlns="http://www.w3.org/2000/svg" version="1.1" width="256px" height="256px" style="shape-rendering:geometricPrecision; text-rendering:geometricPrecision; image-rendering:optimizeQuality; fill-rule:evenodd; clip-rule:evenodd" xmlns:xlink="http://www.w3.org/1999/xlink">
<g><path style="opacity:1" fill="#eb5757" d="M 137.5,2.5 C 137.5,28.8333 137.5,55.1667 137.5,81.5C 164.14,107.806 190.806,134.139 217.5,160.5C 217.667,190.169 217.5,219.835 217,249.5C 216.167,250.333 215.333,251.167 214.5,252C 156.5,252.667 98.5,252.667 40.5,252C 39.6667,251.167 38.8333,250.333 38,249.5C 37.3333,168.167 37.3333,86.8333 38,5.5C 38.8333,4.66667 39.6667,3.83333 40.5,3C 72.8316,2.50002 105.165,2.33335 137.5,2.5 Z"/></g>
<g><path style="opacity:0.99" fill="#f47777" d="M 137.5,2.5 C 164.783,28.1162 191.45,54.4496 217.5,81.5C 190.833,81.5 164.167,81.5 137.5,81.5C 137.5,55.1667 137.5,28.8333 137.5,2.5 Z"/></g>
<g><path style="opacity:1" fill="#d95353" d="M 137.5,81.5 C 164.167,81.5 190.833,81.5 217.5,81.5C 217.5,107.833 217.5,134.167 217.5,160.5C 190.806,134.139 164.14,107.806 137.5,81.5 Z"/></g>
<g><path style="opacity:1" fill="#f0ebeb" d="M 102.5,173.5 C 108.667,173.101 114.667,173.768 120.5,175.5C 120.665,178.518 120.498,181.518 120,184.5C 102.259,177.694 94.2586,183.694 96,202.5C 99.3228,208.908 104.489,211.075 111.5,209C 112.444,206.281 112.777,203.448 112.5,200.5C 109.833,200.5 107.167,200.5 104.5,200.5C 104.5,197.833 104.5,195.167 104.5,192.5C 110.5,192.5 116.5,192.5 122.5,192.5C 122.814,200.087 122.481,207.587 121.5,215C 111.634,218.654 101.968,218.32 92.5,214C 83.7664,204.96 82.2664,194.794 88,183.5C 92.0118,178.762 96.8452,175.429 102.5,173.5 Z"/></g>
<g><path style="opacity:1" fill="#f0f0f0" d="M 142.5,181.5 C 141.167,181.5 139.833,181.5 138.5,181.5C 138.173,191.015 138.506,200.348 139.5,209.5C 140.5,209.5 141.5,209.5 142.5,209.5C 142.5,211.833 142.5,214.167 142.5,216.5C 137.167,216.5 131.833,216.5 126.5,216.5C 126.5,214.167 126.5,211.833 126.5,209.5C 127.167,209.5 127.833,209.5 128.5,209.5C 129.494,200.348 129.827,191.015 129.5,181.5C 128.167,181.5 126.833,181.5 125.5,181.5C 125.5,179.167 125.5,176.833 125.5,174.5C 131.167,174.5 136.833,174.5 142.5,174.5C 142.5,176.833 142.5,179.167 142.5,181.5 Z"/></g>
<g><path style="opacity:1" fill="#ee9393" d="M 147.5,174.5 C 147.5,188.5 147.5,202.5 147.5,216.5C 150.5,216.5 153.5,216.5 156.5,216.5C 156.179,210.974 156.512,205.64 157.5,200.5C 157.5,206.167 157.5,211.833 157.5,217.5C 153.833,217.5 150.167,217.5 146.5,217.5C 146.171,202.99 146.504,188.657 147.5,174.5 Z"/></g>
<g><path style="opacity:1" fill="#f0f0f0" d="M 147.5,174.5 C 155.5,174.5 163.5,174.5 171.5,174.5C 171.5,176.833 171.5,179.167 171.5,181.5C 166.5,181.5 161.5,181.5 156.5,181.5C 156.185,185.371 156.518,189.038 157.5,192.5C 161.833,192.5 166.167,192.5 170.5,192.5C 170.5,195.167 170.5,197.833 170.5,200.5C 166.167,200.5 161.833,200.5 157.5,200.5C 156.512,205.64 156.179,210.974 156.5,216.5C 153.5,216.5 150.5,216.5 147.5,216.5C 147.5,202.5 147.5,188.5 147.5,174.5 Z"/></g>
<g><path style="opacity:1" fill="#f0bbbb" d="M 171.5,174.5 C 172.473,176.948 172.806,179.615 172.5,182.5C 167.5,182.5 162.5,182.5 157.5,182.5C 157.5,185.833 157.5,189.167 157.5,192.5C 156.518,189.038 156.185,185.371 156.5,181.5C 161.5,181.5 166.5,181.5 171.5,181.5C 171.5,179.167 171.5,176.833 171.5,174.5 Z"/></g>
<g><path style="opacity:1" fill="#ed7878" d="M 125.5,181.5 C 126.833,181.5 128.167,181.5 129.5,181.5C 129.827,191.015 129.494,200.348 128.5,209.5C 128.5,200.5 128.5,191.5 128.5,182.5C 127.209,182.737 126.209,182.404 125.5,181.5 Z"/></g>
<g><path style="opacity:1" fill="#eeadad" d="M 142.5,181.5 C 141.791,182.404 140.791,182.737 139.5,182.5C 139.5,191.5 139.5,200.5 139.5,209.5C 138.506,200.348 138.173,191.015 138.5,181.5C 139.833,181.5 141.167,181.5 142.5,181.5 Z"/></g>
<g><path style="opacity:1" fill="#eeb3b3" d="M 126.5,209.5 C 126.5,211.833 126.5,214.167 126.5,216.5C 131.833,216.5 137.167,216.5 142.5,216.5C 137.025,217.489 131.358,217.822 125.5,217.5C 125.194,214.615 125.527,211.948 126.5,209.5 Z"/></g>
</svg>
