<?xml version="1.0" encoding="UTF-8"?>
<!DOCTYPE svg PUBLIC "-//W3C//DTD SVG 1.1//EN" "http://www.w3.org/Graphics/SVG/1.1/DTD/svg11.dtd">
<svg xmlns="http://www.w3.org/2000/svg" version="1.1" width="256px" height="256px" style="shape-rendering:geometricPrecision; text-rendering:geometricPrecision; image-rendering:optimizeQuality; fill-rule:evenodd; clip-rule:evenodd" xmlns:xlink="http://www.w3.org/1999/xlink">
<g><path style="opacity:1" fill="#c5d773" d="M 137.5,2.5 C 137.169,29.0053 137.502,55.3386 138.5,81.5C 164.425,108.092 190.758,134.425 217.5,160.5C 217.667,190.169 217.5,219.835 217,249.5C 216.167,250.333 215.333,251.167 214.5,252C 156.5,252.667 98.5,252.667 40.5,252C 39.6667,251.167 38.8333,250.333 38,249.5C 37.3333,168.167 37.3333,86.8333 38,5.5C 38.8333,4.66667 39.6667,3.83333 40.5,3C 72.8316,2.50002 105.165,2.33335 137.5,2.5 Z"/></g>
<g><path style="opacity:0.988" fill="#d2de87" d="M 137.5,2.5 C 164.783,28.1162 191.45,54.4496 217.5,81.5C 191.167,81.5 164.833,81.5 138.5,81.5C 137.502,55.3386 137.169,29.0053 137.5,2.5 Z"/></g>
<g><path style="opacity:1" fill="#b6c66c" d="M 138.5,81.5 C 164.833,81.5 191.167,81.5 217.5,81.5C 217.5,107.833 217.5,134.167 217.5,160.5C 190.758,134.425 164.425,108.092 138.5,81.5 Z"/></g>
<g><path style="opacity:1" fill="#e1e8c7" d="M 49.5,174.5 C 49.5,188.5 49.5,202.5 49.5,216.5C 52.5,216.5 55.5,216.5 58.5,216.5C 55.3752,217.479 52.0419,217.813 48.5,217.5C 48.1707,202.99 48.5041,188.657 49.5,174.5 Z"/></g>
<g><path style="opacity:1" fill="#eff1f0" d="M 49.5,174.5 C 52.5,174.5 55.5,174.5 58.5,174.5C 58.5,180.167 58.5,185.833 58.5,191.5C 64.5,191.5 70.5,191.5 76.5,191.5C 76.5,185.833 76.5,180.167 76.5,174.5C 79.5,174.5 82.5,174.5 85.5,174.5C 85.5,188.5 85.5,202.5 85.5,216.5C 82.5,216.5 79.5,216.5 76.5,216.5C 76.5,210.833 76.5,205.167 76.5,199.5C 70.31,199.177 64.31,199.51 58.5,200.5C 58.5,205.833 58.5,211.167 58.5,216.5C 55.5,216.5 52.5,216.5 49.5,216.5C 49.5,202.5 49.5,188.5 49.5,174.5 Z"/></g>
<g><path style="opacity:1" fill="#dbe4b2" d="M 85.5,174.5 C 86.4959,188.657 86.8293,202.99 86.5,217.5C 83.1667,217.5 79.8333,217.5 76.5,217.5C 76.5,217.167 76.5,216.833 76.5,216.5C 79.5,216.5 82.5,216.5 85.5,216.5C 85.5,202.5 85.5,188.5 85.5,174.5 Z"/></g>
<g><path style="opacity:1" fill="#eff0ef" d="M 112.5,182.5 C 111.505,193.654 111.172,204.988 111.5,216.5C 108.5,216.5 105.5,216.5 102.5,216.5C 102.5,205.167 102.5,193.833 102.5,182.5C 98.5,182.5 94.5,182.5 90.5,182.5C 90.5,179.833 90.5,177.167 90.5,174.5C 101.833,174.5 113.167,174.5 124.5,174.5C 124.5,177.167 124.5,179.833 124.5,182.5C 120.5,182.5 116.5,182.5 112.5,182.5 Z"/></g>
<g><path style="opacity:1" fill="#eff0ee" d="M 177.5,216.5 C 174.5,216.5 171.5,216.5 168.5,216.5C 168.667,205.162 168.5,193.828 168,182.5C 167.392,184.154 166.892,185.821 166.5,187.5C 163.627,196.918 160.46,206.251 157,215.5C 155.82,216.684 154.32,217.351 152.5,217.5C 150.68,217.351 149.18,216.684 148,215.5C 144.924,206.106 141.758,196.773 138.5,187.5C 138.108,185.821 137.608,184.154 137,182.5C 136.5,193.828 136.333,205.162 136.5,216.5C 133.833,216.5 131.167,216.5 128.5,216.5C 128.5,202.5 128.5,188.5 128.5,174.5C 133.43,174.197 138.263,174.531 143,175.5C 146.534,185.103 149.868,194.769 153,204.5C 156.136,194.759 159.469,185.092 163,175.5C 167.737,174.531 172.57,174.197 177.5,174.5C 177.5,188.5 177.5,202.5 177.5,216.5 Z"/></g>
<g><path style="opacity:1" fill="#eff0ee" d="M 210.5,209.5 C 210.5,211.833 210.5,214.167 210.5,216.5C 202.167,216.5 193.833,216.5 185.5,216.5C 185.5,202.5 185.5,188.5 185.5,174.5C 188.833,174.5 192.167,174.5 195.5,174.5C 195.5,186.167 195.5,197.833 195.5,209.5C 200.5,209.5 205.5,209.5 210.5,209.5 Z"/></g>
<g><path style="opacity:1" fill="#dfe6c0" d="M 112.5,182.5 C 112.5,194.167 112.5,205.833 112.5,217.5C 108.958,217.813 105.625,217.479 102.5,216.5C 105.5,216.5 108.5,216.5 111.5,216.5C 111.172,204.988 111.505,193.654 112.5,182.5 Z"/></g>
<g><path style="opacity:1" fill="#e0e7c3" d="M 138.5,187.5 C 137.506,197.319 137.173,207.319 137.5,217.5C 134.287,217.81 131.287,217.477 128.5,216.5C 131.167,216.5 133.833,216.5 136.5,216.5C 136.333,205.162 136.5,193.828 137,182.5C 137.608,184.154 138.108,185.821 138.5,187.5 Z"/></g>
<g><path style="opacity:1" fill="#e2e9c9" d="M 177.5,216.5 C 174.375,217.479 171.042,217.813 167.5,217.5C 167.827,207.319 167.494,197.319 166.5,187.5C 166.892,185.821 167.392,184.154 168,182.5C 168.5,193.828 168.667,205.162 168.5,216.5C 171.5,216.5 174.5,216.5 177.5,216.5 Z"/></g>
<g><path style="opacity:1" fill="#d0dd93" d="M 58.5,200.5 C 64.31,199.51 70.31,199.177 76.5,199.5C 76.5,205.167 76.5,210.833 76.5,216.5C 76.5,216.833 76.5,217.167 76.5,217.5C 75.5111,212.025 75.1778,206.358 75.5,200.5C 69.8333,200.5 64.1667,200.5 58.5,200.5 Z"/></g>
<g><path style="opacity:1" fill="#dce5b9" d="M 210.5,209.5 C 211.473,211.948 211.806,214.615 211.5,217.5C 202.651,217.826 193.984,217.493 185.5,216.5C 193.833,216.5 202.167,216.5 210.5,216.5C 210.5,214.167 210.5,211.833 210.5,209.5 Z"/></g>
</svg>
