<?xml version="1.0" encoding="UTF-8"?>
<!DOCTYPE svg PUBLIC "-//W3C//DTD SVG 1.1//EN" "http://www.w3.org/Graphics/SVG/1.1/DTD/svg11.dtd">
<svg xmlns="http://www.w3.org/2000/svg" version="1.1" width="256px" height="256px" style="shape-rendering:geometricPrecision; text-rendering:geometricPrecision; image-rendering:optimizeQuality; fill-rule:evenodd; clip-rule:evenodd" xmlns:xlink="http://www.w3.org/1999/xlink">
<g><path style="opacity:1" fill="#ebb155" d="M 137.5,2.5 C 137.5,28.8333 137.5,55.1667 137.5,81.5C 164.14,107.806 190.806,134.139 217.5,160.5C 217.667,190.169 217.5,219.835 217,249.5C 216.167,250.333 215.333,251.167 214.5,252C 156.5,252.667 98.5,252.667 40.5,252C 39.6667,251.167 38.8333,250.333 38,249.5C 37.3333,168.167 37.3333,86.8333 38,5.5C 38.8333,4.66667 39.6667,3.83333 40.5,3C 72.8316,2.50002 105.165,2.33335 137.5,2.5 Z"/></g>
<g><path style="opacity:0.989" fill="#f7c076" d="M 137.5,2.5 C 164.783,28.1162 191.45,54.4496 217.5,81.5C 190.833,81.5 164.167,81.5 137.5,81.5C 137.5,55.1667 137.5,28.8333 137.5,2.5 Z"/></g>
<g><path style="opacity:1" fill="#d9a452" d="M 137.5,81.5 C 164.167,81.5 190.833,81.5 217.5,81.5C 217.5,107.833 217.5,134.167 217.5,160.5C 190.806,134.139 164.14,107.806 137.5,81.5 Z"/></g>
<g><path style="opacity:1" fill="#f0efed" d="M 139.5,215.5 C 136.375,216.479 133.042,216.813 129.5,216.5C 128.798,213.56 127.798,210.727 126.5,208C 121.5,207.333 116.5,207.333 111.5,208C 109.998,211.005 108.998,214.171 108.5,217.5C 105.167,217.5 101.833,217.5 98.5,217.5C 102.823,203.365 107.656,189.365 113,175.5C 115.075,174.866 117.241,174.532 119.5,174.5C 121.964,174.59 124.13,175.257 126,176.5C 130.606,189.486 135.106,202.486 139.5,215.5 Z"/></g>
<g><path style="opacity:1" fill="#eff0f0" d="M 157.5,181.5 C 156.167,181.5 154.833,181.5 153.5,181.5C 153.173,191.015 153.506,200.348 154.5,209.5C 155.5,209.5 156.5,209.5 157.5,209.5C 157.5,211.833 157.5,214.167 157.5,216.5C 151.642,216.822 145.975,216.489 140.5,215.5C 140.5,213.5 140.5,211.5 140.5,209.5C 141.5,209.5 142.5,209.5 143.5,209.5C 144.494,200.348 144.827,191.015 144.5,181.5C 143.167,181.5 141.833,181.5 140.5,181.5C 140.5,179.167 140.5,176.833 140.5,174.5C 146.167,174.5 151.833,174.5 157.5,174.5C 157.5,176.833 157.5,179.167 157.5,181.5 Z"/></g>
<g><path style="opacity:1" fill="#eed1a3" d="M 140.5,181.5 C 141.833,181.5 143.167,181.5 144.5,181.5C 144.827,191.015 144.494,200.348 143.5,209.5C 143.5,200.5 143.5,191.5 143.5,182.5C 142.209,182.737 141.209,182.404 140.5,181.5 Z"/></g>
<g><path style="opacity:1" fill="#edc27f" d="M 157.5,181.5 C 156.791,182.404 155.791,182.737 154.5,182.5C 154.5,191.5 154.5,200.5 154.5,209.5C 153.506,200.348 153.173,191.015 153.5,181.5C 154.833,181.5 156.167,181.5 157.5,181.5 Z"/></g>
<g><path style="opacity:1" fill="#ecb662" d="M 118.5,182.5 C 120.636,188.003 122.636,193.669 124.5,199.5C 120.833,200.833 117.167,200.833 113.5,199.5C 115.781,193.992 117.448,188.325 118.5,182.5 Z"/></g>
<g><path style="opacity:1" fill="#eed4ab" d="M 139.5,215.5 C 139.833,215.5 140.167,215.5 140.5,215.5C 145.975,216.489 151.642,216.822 157.5,216.5C 148.167,217.833 138.833,217.833 129.5,216.5C 133.042,216.813 136.375,216.479 139.5,215.5 Z"/></g>
</svg>
