<?xml version="1.0" encoding="UTF-8"?>
<!DOCTYPE svg PUBLIC "-//W3C//DTD SVG 1.1//EN" "http://www.w3.org/Graphics/SVG/1.1/DTD/svg11.dtd">
<svg xmlns="http://www.w3.org/2000/svg" version="1.1" width="256px" height="256px" style="shape-rendering:geometricPrecision; text-rendering:geometricPrecision; image-rendering:optimizeQuality; fill-rule:evenodd; clip-rule:evenodd" xmlns:xlink="http://www.w3.org/1999/xlink">
<g><path style="opacity:1" fill="#f6974a" d="M 137.5,2.5 C 137.5,28.8333 137.5,55.1667 137.5,81.5C 164.14,107.806 190.806,134.139 217.5,160.5C 217.667,190.169 217.5,219.835 217,249.5C 216.167,250.333 215.333,251.167 214.5,252C 156.5,252.667 98.5,252.667 40.5,252C 39.6667,251.167 38.8333,250.333 38,249.5C 37.3333,168.167 37.3333,86.8333 38,5.5C 38.8333,4.66667 39.6667,3.83333 40.5,3C 72.8316,2.50002 105.165,2.33335 137.5,2.5 Z"/></g>
<g><path style="opacity:0.986" fill="#fbaa75" d="M 137.5,2.5 C 164.783,28.1162 191.45,54.4496 217.5,81.5C 190.833,81.5 164.167,81.5 137.5,81.5C 137.5,55.1667 137.5,28.8333 137.5,2.5 Z"/></g>
<g><path style="opacity:1" fill="#e38d48" d="M 137.5,81.5 C 164.167,81.5 190.833,81.5 217.5,81.5C 217.5,107.833 217.5,134.167 217.5,160.5C 190.806,134.139 164.14,107.806 137.5,81.5 Z"/></g>
<g><path style="opacity:1" fill="#f2d2b9" d="M 79.5,174.5 C 79.5,188.5 79.5,202.5 79.5,216.5C 82.5,216.5 85.5,216.5 88.5,216.5C 85.3752,217.479 82.0419,217.813 78.5,217.5C 78.1707,202.99 78.5041,188.657 79.5,174.5 Z"/></g>
<g><path style="opacity:1" fill="#f0efee" d="M 79.5,174.5 C 86.5079,174.334 93.5079,174.5 100.5,175C 108.429,177.686 111.596,183.186 110,191.5C 105.778,200.53 98.6115,204.196 88.5,202.5C 88.5,207.167 88.5,211.833 88.5,216.5C 85.5,216.5 82.5,216.5 79.5,216.5C 79.5,202.5 79.5,188.5 79.5,174.5 Z"/></g>
<g><path style="opacity:1" fill="#f3cdb0" d="M 115.5,174.5 C 115.5,188.5 115.5,202.5 115.5,216.5C 118.5,216.5 121.5,216.5 124.5,216.5C 121.375,217.479 118.042,217.813 114.5,217.5C 114.171,202.99 114.504,188.657 115.5,174.5 Z"/></g>
<g><path style="opacity:1" fill="#f0efee" d="M 115.5,174.5 C 122.508,174.334 129.508,174.5 136.5,175C 144.429,177.686 147.596,183.186 146,191.5C 141.813,200.512 134.647,204.179 124.5,202.5C 124.5,207.167 124.5,211.833 124.5,216.5C 121.5,216.5 118.5,216.5 115.5,216.5C 115.5,202.5 115.5,188.5 115.5,174.5 Z"/></g>
<g><path style="opacity:1" fill="#f0efee" d="M 169.5,182.5 C 168.505,193.654 168.172,204.988 168.5,216.5C 165.5,216.5 162.5,216.5 159.5,216.5C 159.828,204.988 159.495,193.654 158.5,182.5C 154.5,182.5 150.5,182.5 146.5,182.5C 146.5,179.833 146.5,177.167 146.5,174.5C 158.167,174.5 169.833,174.5 181.5,174.5C 181.5,177.167 181.5,179.833 181.5,182.5C 177.5,182.5 173.5,182.5 169.5,182.5 Z"/></g>
<g><path style="opacity:1" fill="#f79a51" d="M 88.5,181.5 C 98.8951,180.7 101.895,184.867 97.5,194C 94.6074,195.149 91.6074,195.649 88.5,195.5C 88.5,190.833 88.5,186.167 88.5,181.5 Z"/></g>
<g><path style="opacity:1" fill="#f79a51" d="M 124.5,181.5 C 134.895,180.7 137.895,184.867 133.5,194C 130.607,195.149 127.607,195.649 124.5,195.5C 124.5,190.833 124.5,186.167 124.5,181.5 Z"/></g>
<g><path style="opacity:1" fill="#f4b786" d="M 158.5,182.5 C 159.495,193.654 159.828,204.988 159.5,216.5C 162.5,216.5 165.5,216.5 168.5,216.5C 168.172,204.988 168.505,193.654 169.5,182.5C 169.5,194.167 169.5,205.833 169.5,217.5C 165.833,217.5 162.167,217.5 158.5,217.5C 158.5,205.833 158.5,194.167 158.5,182.5 Z"/></g>
</svg>
