<?xml version="1.0" encoding="UTF-8"?>
<!DOCTYPE svg PUBLIC "-//W3C//DTD SVG 1.1//EN" "http://www.w3.org/Graphics/SVG/1.1/DTD/svg11.dtd">
<svg xmlns="http://www.w3.org/2000/svg" version="1.1" width="256px" height="256px" style="shape-rendering:geometricPrecision; text-rendering:geometricPrecision; image-rendering:optimizeQuality; fill-rule:evenodd; clip-rule:evenodd" xmlns:xlink="http://www.w3.org/1999/xlink">
<g><path style="opacity:1" fill="#77645c" d="M 137.5,2.5 C 137.5,28.8333 137.5,55.1667 137.5,81.5C 164.167,81.5 190.833,81.5 217.5,81.5C 217.5,81.8333 217.5,82.1667 217.5,82.5C 191.165,82.3334 164.831,82.5 138.5,83C 164.167,107.333 189.167,132.333 213.5,158C 214.984,158.662 216.317,159.496 217.5,160.5C 217.667,190.169 217.5,219.835 217,249.5C 216.167,250.333 215.333,251.167 214.5,252C 156.5,252.667 98.5,252.667 40.5,252C 39.6667,251.167 38.8333,250.333 38,249.5C 37.3333,168.167 37.3333,86.8333 38,5.5C 38.8333,4.66667 39.6667,3.83333 40.5,3C 72.8316,2.50002 105.165,2.33335 137.5,2.5 Z"/></g>
<g><path style="opacity:0.989" fill="#81766e" d="M 137.5,2.5 C 164.783,28.1162 191.45,54.4496 217.5,81.5C 190.833,81.5 164.167,81.5 137.5,81.5C 137.5,55.1667 137.5,28.8333 137.5,2.5 Z"/></g>
<g><path style="opacity:1" fill="#705f58" d="M 217.5,82.5 C 217.5,108.5 217.5,134.5 217.5,160.5C 216.317,159.496 214.984,158.662 213.5,158C 189.167,132.333 164.167,107.333 138.5,83C 164.831,82.5 191.165,82.3334 217.5,82.5 Z"/></g>
<g><path style="opacity:1" fill="#ededed" d="M 133.5,216.5 C 129.731,216.756 126.064,216.423 122.5,215.5C 122.244,213.063 121.577,210.729 120.5,208.5C 115.208,207.505 109.875,207.172 104.5,207.5C 103.833,210.5 103.167,213.5 102.5,216.5C 98.9581,216.813 95.6248,216.479 92.5,215.5C 97.1667,201.833 101.833,188.167 106.5,174.5C 110.833,174.5 115.167,174.5 119.5,174.5C 123.965,188.562 128.632,202.562 133.5,216.5 Z"/></g>
<g><path style="opacity:1" fill="#ebebeb" d="M 137.5,174.5 C 145.833,174.5 154.167,174.5 162.5,174.5C 162.5,177.167 162.5,179.833 162.5,182.5C 157.5,182.5 152.5,182.5 147.5,182.5C 147.5,185.5 147.5,188.5 147.5,191.5C 152.167,191.5 156.833,191.5 161.5,191.5C 161.5,194.167 161.5,196.833 161.5,199.5C 156.833,199.5 152.167,199.5 147.5,199.5C 147.5,202.833 147.5,206.167 147.5,209.5C 152.833,209.5 158.167,209.5 163.5,209.5C 163.5,212.167 163.5,214.833 163.5,217.5C 154.833,217.5 146.167,217.5 137.5,217.5C 137.5,203.167 137.5,188.833 137.5,174.5 Z"/></g>
<g><path style="opacity:1" fill="#817068" d="M 112.5,182.5 C 114.536,188.292 116.203,194.292 117.5,200.5C 114.167,200.5 110.833,200.5 107.5,200.5C 108.855,194.412 110.522,188.412 112.5,182.5 Z"/></g>
<g><path style="opacity:1" fill="#b8b1ad" d="M 92.5,215.5 C 95.6248,216.479 98.9581,216.813 102.5,216.5C 98.9813,217.808 95.3147,217.808 91.5,216.5C 91.6236,215.893 91.9569,215.56 92.5,215.5 Z"/></g>
<g><path style="opacity:1" fill="#b6aea9" d="M 122.5,215.5 C 126.064,216.423 129.731,216.756 133.5,216.5C 131.866,217.161 130.033,217.494 128,217.5C 125.705,217.453 123.871,216.787 122.5,215.5 Z"/></g>
</svg>
