<?xml version="1.0" encoding="UTF-8"?>
<!DOCTYPE svg PUBLIC "-//W3C//DTD SVG 1.1//EN" "http://www.w3.org/Graphics/SVG/1.1/DTD/svg11.dtd">
<svg xmlns="http://www.w3.org/2000/svg" version="1.1" width="256px" height="256px" style="shape-rendering:geometricPrecision; text-rendering:geometricPrecision; image-rendering:optimizeQuality; fill-rule:evenodd; clip-rule:evenodd" xmlns:xlink="http://www.w3.org/1999/xlink">
<g><path style="opacity:1" fill="#38c1b9" d="M 137.5,2.5 C 137.169,29.0053 137.502,55.3386 138.5,81.5C 164.425,108.092 190.758,134.425 217.5,160.5C 217.667,190.169 217.5,219.835 217,249.5C 216.167,250.333 215.333,251.167 214.5,252C 156.5,252.667 98.5,252.667 40.5,252C 39.6667,251.167 38.8333,250.333 38,249.5C 37.3333,168.167 37.3333,86.8333 38,5.5C 38.8333,4.66667 39.6667,3.83333 40.5,3C 72.8316,2.50002 105.165,2.33335 137.5,2.5 Z"/></g>
<g><path style="opacity:0.991" fill="#51cbc2" d="M 137.5,2.5 C 164.783,28.1162 191.45,54.4496 217.5,81.5C 191.167,81.5 164.833,81.5 138.5,81.5C 137.502,55.3386 137.169,29.0053 137.5,2.5 Z"/></g>
<g><path style="opacity:1" fill="#37b3ab" d="M 138.5,81.5 C 164.833,81.5 191.167,81.5 217.5,81.5C 217.5,107.833 217.5,134.167 217.5,160.5C 190.758,134.425 164.425,108.092 138.5,81.5 Z"/></g>
<g><path style="opacity:1" fill="#edf0f0" d="M 118.5,216.5 C 107.167,216.5 95.8333,216.5 84.5,216.5C 84.5,214.833 84.5,213.167 84.5,211.5C 91.1247,201.763 98.1247,192.263 105.5,183C 98.8417,182.5 92.175,182.334 85.5,182.5C 85.5,179.833 85.5,177.167 85.5,174.5C 96.5,174.5 107.5,174.5 118.5,174.5C 118.662,176.527 118.495,178.527 118,180.5C 111.36,189.974 104.527,199.307 97.5,208.5C 104.468,209.497 111.468,209.83 118.5,209.5C 118.5,211.833 118.5,214.167 118.5,216.5 Z"/></g>
<g><path style="opacity:1" fill="#eff0f0" d="M 136.5,181.5 C 135.167,181.5 133.833,181.5 132.5,181.5C 132.173,191.015 132.506,200.348 133.5,209.5C 134.5,209.5 135.5,209.5 136.5,209.5C 136.5,211.833 136.5,214.167 136.5,216.5C 130.833,216.5 125.167,216.5 119.5,216.5C 119.5,214.167 119.5,211.833 119.5,209.5C 120.5,209.5 121.5,209.5 122.5,209.5C 123.494,200.348 123.827,191.015 123.5,181.5C 122.167,181.5 120.833,181.5 119.5,181.5C 119.5,179.167 119.5,176.833 119.5,174.5C 125.167,174.5 130.833,174.5 136.5,174.5C 136.5,176.833 136.5,179.167 136.5,181.5 Z"/></g>
<g><path style="opacity:1" fill="#eef0f0" d="M 141.5,174.5 C 148.175,174.334 154.842,174.5 161.5,175C 173.317,179.622 175.65,187.289 168.5,198C 163.047,201.46 157.047,202.96 150.5,202.5C 150.5,207.167 150.5,211.833 150.5,216.5C 147.5,216.5 144.5,216.5 141.5,216.5C 141.5,202.5 141.5,188.5 141.5,174.5 Z"/></g>
<g><path style="opacity:1" fill="#7fd3ce" d="M 119.5,181.5 C 120.833,181.5 122.167,181.5 123.5,181.5C 123.827,191.015 123.494,200.348 122.5,209.5C 122.5,200.5 122.5,191.5 122.5,182.5C 121.209,182.737 120.209,182.404 119.5,181.5 Z"/></g>
<g><path style="opacity:1" fill="#7fd3ce" d="M 136.5,181.5 C 135.791,182.404 134.791,182.737 133.5,182.5C 133.5,191.5 133.5,200.5 133.5,209.5C 132.506,200.348 132.173,191.015 132.5,181.5C 133.833,181.5 135.167,181.5 136.5,181.5 Z"/></g>
<g><path style="opacity:1" fill="#72cfca" d="M 157.5,182.5 C 155.5,182.5 153.5,182.5 151.5,182.5C 151.5,186.5 151.5,190.5 151.5,194.5C 153.5,194.5 155.5,194.5 157.5,194.5C 155.393,195.468 153.059,195.802 150.5,195.5C 150.5,190.833 150.5,186.167 150.5,181.5C 153.059,181.198 155.393,181.532 157.5,182.5 Z"/></g>
<g><path style="opacity:1" fill="#3fc2ba" d="M 157.5,182.5 C 162.577,184.334 163.744,187.667 161,192.5C 160.184,193.823 159.017,194.489 157.5,194.5C 155.5,194.5 153.5,194.5 151.5,194.5C 151.5,190.5 151.5,186.5 151.5,182.5C 153.5,182.5 155.5,182.5 157.5,182.5 Z"/></g>
<g><path style="opacity:1" fill="#a0dcd9" d="M 84.5,211.5 C 84.5,213.167 84.5,214.833 84.5,216.5C 95.8333,216.5 107.167,216.5 118.5,216.5C 107.012,217.495 95.3453,217.828 83.5,217.5C 83.2053,215.265 83.5386,213.265 84.5,211.5 Z"/></g>
</svg>
