<?xml version="1.0" encoding="UTF-8"?>
<!DOCTYPE svg PUBLIC "-//W3C//DTD SVG 1.1//EN" "http://www.w3.org/Graphics/SVG/1.1/DTD/svg11.dtd">
<svg xmlns="http://www.w3.org/2000/svg" version="1.1" width="256px" height="256px" style="shape-rendering:geometricPrecision; text-rendering:geometricPrecision; image-rendering:optimizeQuality; fill-rule:evenodd; clip-rule:evenodd" xmlns:xlink="http://www.w3.org/1999/xlink">
<g><path style="opacity:1" fill="#47b8f6" d="M 137.5,2.5 C 137.169,29.0053 137.502,55.3386 138.5,81.5C 164.425,108.092 190.758,134.425 217.5,160.5C 217.667,190.169 217.5,219.835 217,249.5C 216.167,250.333 215.333,251.167 214.5,252C 156.5,252.667 98.5,252.667 40.5,252C 39.6667,251.167 38.8333,250.333 38,249.5C 37.3333,168.167 37.3333,86.8333 38,5.5C 38.8333,4.66667 39.6667,3.83333 40.5,3C 72.8316,2.50002 105.165,2.33335 137.5,2.5 Z"/></g>
<g><path style="opacity:0.99" fill="#6acffb" d="M 137.5,2.5 C 164.783,28.1162 191.45,54.4496 217.5,81.5C 191.167,81.5 164.833,81.5 138.5,81.5C 137.502,55.3386 137.169,29.0053 137.5,2.5 Z"/></g>
<g><path style="opacity:1" fill="#45aae3" d="M 138.5,81.5 C 164.833,81.5 191.167,81.5 217.5,81.5C 217.5,107.833 217.5,134.167 217.5,160.5C 190.758,134.425 164.425,108.092 138.5,81.5 Z"/></g>
<g><path style="opacity:1" fill="#edf0f1" d="M 80.5,174.5 C 87.5079,174.334 94.5079,174.5 101.5,175C 113.161,176.807 118.828,183.64 118.5,195.5C 118.308,206.399 112.974,213.232 102.5,216C 95.1742,216.5 87.8409,216.666 80.5,216.5C 80.5,202.5 80.5,188.5 80.5,174.5 Z"/></g>
<g><path style="opacity:1" fill="#96d2f4" d="M 124.5,174.5 C 124.5,188.5 124.5,202.5 124.5,216.5C 132.833,216.5 141.167,216.5 149.5,216.5C 141.016,217.493 132.349,217.826 123.5,217.5C 123.171,202.99 123.504,188.657 124.5,174.5 Z"/></g>
<g><path style="opacity:1" fill="#eff1f0" d="M 124.5,174.5 C 127.5,174.5 130.5,174.5 133.5,174.5C 133.5,186.167 133.5,197.833 133.5,209.5C 138.833,209.5 144.167,209.5 149.5,209.5C 149.5,211.833 149.5,214.167 149.5,216.5C 141.167,216.5 132.833,216.5 124.5,216.5C 124.5,202.5 124.5,188.5 124.5,174.5 Z"/></g>
<g><path style="opacity:1" fill="#7ac9f4" d="M 133.5,174.5 C 134.495,185.654 134.828,196.988 134.5,208.5C 139.695,208.179 144.695,208.513 149.5,209.5C 144.167,209.5 138.833,209.5 133.5,209.5C 133.5,197.833 133.5,186.167 133.5,174.5 Z"/></g>
<g><path style="opacity:1" fill="#b5dcf3" d="M 154.5,174.5 C 154.5,188.5 154.5,202.5 154.5,216.5C 162.833,216.5 171.167,216.5 179.5,216.5C 171.016,217.493 162.349,217.826 153.5,217.5C 153.171,202.99 153.504,188.657 154.5,174.5 Z"/></g>
<g><path style="opacity:1" fill="#eff0f1" d="M 154.5,174.5 C 157.5,174.5 160.5,174.5 163.5,174.5C 163.5,186.167 163.5,197.833 163.5,209.5C 168.833,209.5 174.167,209.5 179.5,209.5C 179.5,211.833 179.5,214.167 179.5,216.5C 171.167,216.5 162.833,216.5 154.5,216.5C 154.5,202.5 154.5,188.5 154.5,174.5 Z"/></g>
<g><path style="opacity:1" fill="#4bb9f6" d="M 90.5,182.5 C 105.225,181.631 110.725,188.298 107,202.5C 106.215,204.286 105.049,205.786 103.5,207C 99.3795,208.899 95.0462,209.732 90.5,209.5C 90.5,200.5 90.5,191.5 90.5,182.5 Z"/></g>
</svg>
