<?xml version="1.0" encoding="UTF-8"?>
<!DOCTYPE svg PUBLIC "-//W3C//DTD SVG 1.1//EN" "http://www.w3.org/Graphics/SVG/1.1/DTD/svg11.dtd">
<svg xmlns="http://www.w3.org/2000/svg" version="1.1" width="256px" height="256px" style="shape-rendering:geometricPrecision; text-rendering:geometricPrecision; image-rendering:optimizeQuality; fill-rule:evenodd; clip-rule:evenodd" xmlns:xlink="http://www.w3.org/1999/xlink">
<g><path style="opacity:1" fill="#fec35a" d="M 137.5,2.5 C 137.5,28.8333 137.5,55.1667 137.5,81.5C 164.14,107.806 190.806,134.139 217.5,160.5C 217.667,190.169 217.5,219.835 217,249.5C 216.167,250.333 215.333,251.167 214.5,252C 156.5,252.667 98.5,252.667 40.5,252C 39.6667,251.167 38.8333,250.333 38,249.5C 37.3333,168.167 37.3333,86.8333 38,5.5C 38.8333,4.66667 39.6667,3.83333 40.5,3C 72.8316,2.50002 105.165,2.33335 137.5,2.5 Z"/></g>
<g><path style="opacity:0.98" fill="#ffcd86" d="M 137.5,2.5 C 164.783,28.1162 191.45,54.4496 217.5,81.5C 190.833,81.5 164.167,81.5 137.5,81.5C 137.5,55.1667 137.5,28.8333 137.5,2.5 Z"/></g>
<g><path style="opacity:1" fill="#eab456" d="M 137.5,81.5 C 164.167,81.5 190.833,81.5 217.5,81.5C 217.5,107.833 217.5,134.167 217.5,160.5C 190.806,134.139 164.14,107.806 137.5,81.5 Z"/></g>
<g><path style="opacity:1" fill="#f0f0ef" d="M 123.5,181.5 C 122.167,181.5 120.833,181.5 119.5,181.5C 119.173,191.015 119.506,200.348 120.5,209.5C 121.5,209.5 122.5,209.5 123.5,209.5C 123.5,211.833 123.5,214.167 123.5,216.5C 118.167,216.5 112.833,216.5 107.5,216.5C 107.5,214.167 107.5,211.833 107.5,209.5C 108.5,209.5 109.5,209.5 110.5,209.5C 110.5,200.167 110.5,190.833 110.5,181.5C 105.203,182.275 99.8699,182.608 94.5,182.5C 93.5052,193.654 93.1719,204.988 93.5,216.5C 90.5,216.5 87.5,216.5 84.5,216.5C 84.5,205.167 84.5,193.833 84.5,182.5C 80.5,182.5 76.5,182.5 72.5,182.5C 72.5,179.833 72.5,177.167 72.5,174.5C 89.5,174.5 106.5,174.5 123.5,174.5C 123.5,176.833 123.5,179.167 123.5,181.5 Z"/></g>
<g><path style="opacity:1" fill="#f9d28d" d="M 128.5,174.5 C 128.5,188.5 128.5,202.5 128.5,216.5C 131.5,216.5 134.5,216.5 137.5,216.5C 137.179,210.974 137.512,205.64 138.5,200.5C 138.5,206.167 138.5,211.833 138.5,217.5C 134.833,217.5 131.167,217.5 127.5,217.5C 127.171,202.99 127.504,188.657 128.5,174.5 Z"/></g>
<g><path style="opacity:1" fill="#f0f0f0" d="M 128.5,174.5 C 136.5,174.5 144.5,174.5 152.5,174.5C 152.5,176.833 152.5,179.167 152.5,181.5C 147.5,181.5 142.5,181.5 137.5,181.5C 137.185,185.371 137.518,189.038 138.5,192.5C 142.833,192.5 147.167,192.5 151.5,192.5C 151.5,195.167 151.5,197.833 151.5,200.5C 147.167,200.5 142.833,200.5 138.5,200.5C 137.512,205.64 137.179,210.974 137.5,216.5C 134.5,216.5 131.5,216.5 128.5,216.5C 128.5,202.5 128.5,188.5 128.5,174.5 Z"/></g>
<g><path style="opacity:1" fill="#f0f0ed" d="M 168.5,200.5 C 167.512,205.64 167.179,210.974 167.5,216.5C 164.5,216.5 161.5,216.5 158.5,216.5C 158.5,202.5 158.5,188.5 158.5,174.5C 166.833,174.5 175.167,174.5 183.5,174.5C 183.5,177.167 183.5,179.833 183.5,182.5C 178.5,182.5 173.5,182.5 168.5,182.5C 168.5,185.833 168.5,189.167 168.5,192.5C 173.167,192.5 177.833,192.5 182.5,192.5C 182.5,195.167 182.5,197.833 182.5,200.5C 177.833,200.5 173.167,200.5 168.5,200.5 Z"/></g>
<g><path style="opacity:1" fill="#f6e1bc" d="M 152.5,174.5 C 153.473,176.948 153.806,179.615 153.5,182.5C 148.5,182.5 143.5,182.5 138.5,182.5C 138.5,185.833 138.5,189.167 138.5,192.5C 137.518,189.038 137.185,185.371 137.5,181.5C 142.5,181.5 147.5,181.5 152.5,181.5C 152.5,179.167 152.5,176.833 152.5,174.5 Z"/></g>
<g><path style="opacity:1" fill="#f7daa6" d="M 94.5,182.5 C 94.5,194.167 94.5,205.833 94.5,217.5C 90.9581,217.813 87.6248,217.479 84.5,216.5C 87.5,216.5 90.5,216.5 93.5,216.5C 93.1719,204.988 93.5052,193.654 94.5,182.5 Z"/></g>
<g><path style="opacity:1" fill="#f7dcae" d="M 123.5,181.5 C 122.791,182.404 121.791,182.737 120.5,182.5C 120.5,191.5 120.5,200.5 120.5,209.5C 119.506,200.348 119.173,191.015 119.5,181.5C 120.833,181.5 122.167,181.5 123.5,181.5 Z"/></g>
<g><path style="opacity:1" fill="#f6deb5" d="M 168.5,200.5 C 168.5,206.167 168.5,211.833 168.5,217.5C 164.958,217.813 161.625,217.479 158.5,216.5C 161.5,216.5 164.5,216.5 167.5,216.5C 167.179,210.974 167.512,205.64 168.5,200.5 Z"/></g>
<g><path style="opacity:1" fill="#f6deb4" d="M 107.5,209.5 C 107.5,211.833 107.5,214.167 107.5,216.5C 112.833,216.5 118.167,216.5 123.5,216.5C 118.025,217.489 112.358,217.822 106.5,217.5C 106.194,214.615 106.527,211.948 107.5,209.5 Z"/></g>
</svg>
