<?xml version="1.0" encoding="UTF-8"?>
<!DOCTYPE svg PUBLIC "-//W3C//DTD SVG 1.1//EN" "http://www.w3.org/Graphics/SVG/1.1/DTD/svg11.dtd">
<svg xmlns="http://www.w3.org/2000/svg" version="1.1" width="256px" height="256px" style="shape-rendering:geometricPrecision; text-rendering:geometricPrecision; image-rendering:optimizeQuality; fill-rule:evenodd; clip-rule:evenodd" xmlns:xlink="http://www.w3.org/1999/xlink">
<g><path style="opacity:1" fill="#998b79" d="M 137.5,2.5 C 137.5,28.8333 137.5,55.1667 137.5,81.5C 164.167,81.5 190.833,81.5 217.5,81.5C 217.5,81.8333 217.5,82.1667 217.5,82.5C 191.491,82.1669 165.491,82.5002 139.5,83.5C 165.494,109.161 191.494,134.827 217.5,160.5C 217.667,190.169 217.5,219.835 217,249.5C 216.167,250.333 215.333,251.167 214.5,252C 156.5,252.667 98.5,252.667 40.5,252C 39.6667,251.167 38.8333,250.333 38,249.5C 37.3333,168.167 37.3333,86.8333 38,5.5C 38.8333,4.66667 39.6667,3.83333 40.5,3C 72.8316,2.50002 105.165,2.33335 137.5,2.5 Z"/></g>
<g><path style="opacity:0.991" fill="#a2968c" d="M 137.5,2.5 C 164.783,28.1162 191.45,54.4496 217.5,81.5C 190.833,81.5 164.167,81.5 137.5,81.5C 137.5,55.1667 137.5,28.8333 137.5,2.5 Z"/></g>
<g><path style="opacity:1" fill="#8f8272" d="M 217.5,82.5 C 217.5,108.5 217.5,134.5 217.5,160.5C 191.494,134.827 165.494,109.161 139.5,83.5C 165.491,82.5002 191.491,82.1669 217.5,82.5 Z"/></g>
<g><path style="opacity:1" fill="#eeefee" d="M 96.5,181.5 C 95.1667,181.5 93.8333,181.5 92.5,181.5C 92.1731,191.015 92.5064,200.348 93.5,209.5C 94.5,209.5 95.5,209.5 96.5,209.5C 96.5,212.167 96.5,214.833 96.5,217.5C 90.8333,217.5 85.1667,217.5 79.5,217.5C 79.5,214.833 79.5,212.167 79.5,209.5C 80.5,209.5 81.5,209.5 82.5,209.5C 83.4936,200.348 83.8269,191.015 83.5,181.5C 82.1667,181.5 80.8333,181.5 79.5,181.5C 79.5,179.167 79.5,176.833 79.5,174.5C 85.1667,174.5 90.8333,174.5 96.5,174.5C 96.5,176.833 96.5,179.167 96.5,181.5 Z"/></g>
<g><path style="opacity:1" fill="#ededed" d="M 115.5,173.5 C 120.599,173.175 125.599,173.675 130.5,175C 131.617,178.073 131.784,181.24 131,184.5C 121.808,180.226 114.475,182.226 109,190.5C 107.982,207.308 115.482,212.975 131.5,207.5C 131.777,210.448 131.444,213.281 130.5,216C 105.518,221.35 95.3514,211.517 100,186.5C 103.542,180.157 108.709,175.824 115.5,173.5 Z"/></g>
<g><path style="opacity:1" fill="#ededed" d="M 150.5,173.5 C 172.486,174.329 180.32,185.329 174,206.5C 166.265,217.644 156.099,220.478 143.5,215C 134.559,206.955 132.059,197.122 136,185.5C 139.399,179.724 144.232,175.724 150.5,173.5 Z"/></g>
<g><path style="opacity:1" fill="#bab2a7" d="M 79.5,181.5 C 80.8333,181.5 82.1667,181.5 83.5,181.5C 83.8269,191.015 83.4936,200.348 82.5,209.5C 82.5,200.5 82.5,191.5 82.5,182.5C 81.209,182.737 80.209,182.404 79.5,181.5 Z"/></g>
<g><path style="opacity:1" fill="#bab2a7" d="M 96.5,181.5 C 95.791,182.404 94.791,182.737 93.5,182.5C 93.5,191.5 93.5,200.5 93.5,209.5C 92.5064,200.348 92.1731,191.015 92.5,181.5C 93.8333,181.5 95.1667,181.5 96.5,181.5 Z"/></g>
<g><path style="opacity:1" fill="#9a8c7a" d="M 150.5,182.5 C 157.445,180.775 162.278,183.108 165,189.5C 165.826,194.589 165.492,199.589 164,204.5C 160.1,209.533 155.267,210.7 149.5,208C 144.854,202.689 143.354,196.523 145,189.5C 146.666,187.004 148.5,184.671 150.5,182.5 Z"/></g>
</svg>
