<?xml version="1.0" encoding="UTF-8"?>
<!DOCTYPE svg PUBLIC "-//W3C//DTD SVG 1.1//EN" "http://www.w3.org/Graphics/SVG/1.1/DTD/svg11.dtd">
<svg xmlns="http://www.w3.org/2000/svg" version="1.1" width="256px" height="256px" style="shape-rendering:geometricPrecision; text-rendering:geometricPrecision; image-rendering:optimizeQuality; fill-rule:evenodd; clip-rule:evenodd" xmlns:xlink="http://www.w3.org/1999/xlink">
<g><path style="opacity:1" fill="#47b8f6" d="M 137.5,2.5 C 137.169,29.0053 137.502,55.3386 138.5,81.5C 164.425,108.092 190.758,134.425 217.5,160.5C 217.667,190.169 217.5,219.835 217,249.5C 216.167,250.333 215.333,251.167 214.5,252C 156.5,252.667 98.5,252.667 40.5,252C 39.6667,251.167 38.8333,250.333 38,249.5C 37.3333,168.167 37.3333,86.8333 38,5.5C 38.8333,4.66667 39.6667,3.83333 40.5,3C 72.8316,2.50002 105.165,2.33335 137.5,2.5 Z"/></g>
<g><path style="opacity:0.99" fill="#6acffb" d="M 137.5,2.5 C 164.783,28.1162 191.45,54.4496 217.5,81.5C 191.167,81.5 164.833,81.5 138.5,81.5C 137.502,55.3386 137.169,29.0053 137.5,2.5 Z"/></g>
<g><path style="opacity:1" fill="#45aae3" d="M 138.5,81.5 C 164.833,81.5 191.167,81.5 217.5,81.5C 217.5,107.833 217.5,134.167 217.5,160.5C 190.758,134.425 164.425,108.092 138.5,81.5 Z"/></g>
<g><path style="opacity:1" fill="#9cd5f4" d="M 98.5,174.5 C 98.5,188.5 98.5,202.5 98.5,216.5C 101.5,216.5 104.5,216.5 107.5,216.5C 104.375,217.479 101.042,217.813 97.5,217.5C 97.1707,202.99 97.5041,188.657 98.5,174.5 Z"/></g>
<g><path style="opacity:1" fill="#eef0f1" d="M 98.5,174.5 C 105.508,174.334 112.508,174.5 119.5,175C 127.429,177.686 130.596,183.186 129,191.5C 127.895,196.206 125.062,199.373 120.5,201C 116.23,202.075 111.897,202.575 107.5,202.5C 107.5,207.167 107.5,211.833 107.5,216.5C 104.5,216.5 101.5,216.5 98.5,216.5C 98.5,202.5 98.5,188.5 98.5,174.5 Z"/></g>
<g><path style="opacity:1" fill="#ebeff1" d="M 143.5,173.5 C 148.699,173.014 153.699,173.681 158.5,175.5C 159.655,178.446 159.821,181.446 159,184.5C 154.596,181.671 149.762,180.837 144.5,182C 141.735,184.966 142.068,187.633 145.5,190C 149.71,191.623 153.71,193.623 157.5,196C 164.348,205.595 162.348,212.595 151.5,217C 146.167,217.667 140.833,217.667 135.5,217C 134.584,216.626 133.75,216.126 133,215.5C 132.333,212.5 132.333,209.5 133,206.5C 138.045,210.567 143.545,211.401 149.5,209C 152.192,206.368 151.859,204.034 148.5,202C 144.5,200 140.5,198 136.5,196C 128.802,185.535 131.135,178.035 143.5,173.5 Z"/></g>
<g><path style="opacity:1" fill="#7cc9f5" d="M 114.5,182.5 C 112.5,182.5 110.5,182.5 108.5,182.5C 108.5,186.5 108.5,190.5 108.5,194.5C 110.5,194.5 112.5,194.5 114.5,194.5C 112.393,195.468 110.059,195.802 107.5,195.5C 107.5,190.833 107.5,186.167 107.5,181.5C 110.059,181.198 112.393,181.532 114.5,182.5 Z"/></g>
<g><path style="opacity:1" fill="#4db9f6" d="M 114.5,182.5 C 119.577,184.334 120.744,187.667 118,192.5C 117.184,193.823 116.017,194.489 114.5,194.5C 112.5,194.5 110.5,194.5 108.5,194.5C 108.5,190.5 108.5,186.5 108.5,182.5C 110.5,182.5 112.5,182.5 114.5,182.5 Z"/></g>
</svg>
