<?xml version="1.0" encoding="UTF-8"?>
<!DOCTYPE svg PUBLIC "-//W3C//DTD SVG 1.1//EN" "http://www.w3.org/Graphics/SVG/1.1/DTD/svg11.dtd">
<svg xmlns="http://www.w3.org/2000/svg" version="1.1" width="256px" height="256px" style="shape-rendering:geometricPrecision; text-rendering:geometricPrecision; image-rendering:optimizeQuality; fill-rule:evenodd; clip-rule:evenodd" xmlns:xlink="http://www.w3.org/1999/xlink">
<g><path style="opacity:1" fill="#fec35a" d="M 137.5,2.5 C 137.5,28.8333 137.5,55.1667 137.5,81.5C 164.14,107.806 190.806,134.139 217.5,160.5C 217.667,190.169 217.5,219.835 217,249.5C 216.167,250.333 215.333,251.167 214.5,252C 156.5,252.667 98.5,252.667 40.5,252C 39.6667,251.167 38.8333,250.333 38,249.5C 37.3333,168.167 37.3333,86.8333 38,5.5C 38.8333,4.66667 39.6667,3.83333 40.5,3C 72.8316,2.50002 105.165,2.33335 137.5,2.5 Z"/></g>
<g><path style="opacity:0.98" fill="#ffcd86" d="M 137.5,2.5 C 164.783,28.1162 191.45,54.4496 217.5,81.5C 190.833,81.5 164.167,81.5 137.5,81.5C 137.5,55.1667 137.5,28.8333 137.5,2.5 Z"/></g>
<g><path style="opacity:1" fill="#eab456" d="M 137.5,81.5 C 164.167,81.5 190.833,81.5 217.5,81.5C 217.5,107.833 217.5,134.167 217.5,160.5C 190.806,134.139 164.14,107.806 137.5,81.5 Z"/></g>
<g><path style="opacity:1" fill="#f0efeb" d="M 111.5,175.5 C 111.806,178.385 111.473,181.052 110.5,183.5C 98.6636,179.248 91.3303,183.081 88.5,195C 89.2545,206.38 95.2545,211.047 106.5,209C 108.519,208.55 110.352,207.717 112,206.5C 112.821,209.554 112.655,212.554 111.5,215.5C 89.1779,221.934 78.3446,213.6 79,190.5C 85.1411,175.346 95.9744,170.346 111.5,175.5 Z"/></g>
<g><path style="opacity:1" fill="#f1eeea" d="M 126.5,173.5 C 132.028,173 137.362,173.667 142.5,175.5C 143.655,178.446 143.821,181.446 143,184.5C 138.559,181.669 133.726,180.836 128.5,182C 125.735,184.966 126.068,187.633 129.5,190C 133.71,191.623 137.71,193.623 141.5,196C 148.192,205.492 146.192,212.492 135.5,217C 130.167,217.667 124.833,217.667 119.5,217C 118.234,216.691 117.067,216.191 116,215.5C 115.179,212.446 115.345,209.446 116.5,206.5C 121.994,210.787 127.827,211.453 134,208.5C 134.667,206.833 134.667,205.167 134,203.5C 129.71,200.605 125.21,198.105 120.5,196C 112.451,185.862 114.451,178.362 126.5,173.5 Z"/></g>
<g><path style="opacity:1" fill="#f0efec" d="M 159.5,173.5 C 164.599,173.175 169.599,173.675 174.5,175C 175.704,176.353 176.371,178.019 176.5,180C 176.333,181.5 176.167,183 176,184.5C 171.559,181.669 166.726,180.836 161.5,182C 158.141,184.034 157.808,186.368 160.5,189C 166.762,191.377 172.262,194.877 177,199.5C 179.85,208.297 177.017,214.131 168.5,217C 163.167,217.667 157.833,217.667 152.5,217C 151.234,216.691 150.067,216.191 149,215.5C 148.179,212.446 148.345,209.446 149.5,206.5C 154.783,210.732 160.45,211.398 166.5,208.5C 167.91,206.051 167.576,203.884 165.5,202C 161.833,200.333 158.167,198.667 154.5,197C 145.31,186.825 146.976,178.992 159.5,173.5 Z"/></g>
<g><path style="opacity:1" fill="#f6dfb7" d="M 111.5,175.5 C 112.803,178.355 112.803,181.355 111.5,184.5C 110.893,184.376 110.56,184.043 110.5,183.5C 111.473,181.052 111.806,178.385 111.5,175.5 Z"/></g>
</svg>
