<?xml version="1.0" encoding="UTF-8"?>
<!DOCTYPE svg PUBLIC "-//W3C//DTD SVG 1.1//EN" "http://www.w3.org/Graphics/SVG/1.1/DTD/svg11.dtd">
<svg xmlns="http://www.w3.org/2000/svg" version="1.1" width="256px" height="256px" style="shape-rendering:geometricPrecision; text-rendering:geometricPrecision; image-rendering:optimizeQuality; fill-rule:evenodd; clip-rule:evenodd" xmlns:xlink="http://www.w3.org/1999/xlink">
<g><path style="opacity:1" fill="#ebb155" d="M 137.5,2.5 C 137.5,28.8333 137.5,55.1667 137.5,81.5C 164.14,107.806 190.806,134.139 217.5,160.5C 217.667,190.169 217.5,219.835 217,249.5C 216.167,250.333 215.333,251.167 214.5,252C 156.5,252.667 98.5,252.667 40.5,252C 39.6667,251.167 38.8333,250.333 38,249.5C 37.3333,168.167 37.3333,86.8333 38,5.5C 38.8333,4.66667 39.6667,3.83333 40.5,3C 72.8316,2.50002 105.165,2.33335 137.5,2.5 Z"/></g>
<g><path style="opacity:0.99" fill="#f7c076" d="M 137.5,2.5 C 164.783,28.1162 191.45,54.4496 217.5,81.5C 190.833,81.5 164.167,81.5 137.5,81.5C 137.5,55.1667 137.5,28.8333 137.5,2.5 Z"/></g>
<g><path style="opacity:1" fill="#d9a452" d="M 137.5,81.5 C 164.167,81.5 190.833,81.5 217.5,81.5C 217.5,107.833 217.5,134.167 217.5,160.5C 190.806,134.139 164.14,107.806 137.5,81.5 Z"/></g>
<g><path style="opacity:1" fill="#f0efed" d="M 107.5,209.5 C 107.5,211.833 107.5,214.167 107.5,216.5C 99.1667,216.5 90.8333,216.5 82.5,216.5C 82.5,202.5 82.5,188.5 82.5,174.5C 90.8333,174.5 99.1667,174.5 107.5,174.5C 107.5,177.167 107.5,179.833 107.5,182.5C 102.5,182.5 97.5,182.5 92.5,182.5C 92.5,185.5 92.5,188.5 92.5,191.5C 97.1667,191.5 101.833,191.5 106.5,191.5C 106.5,194.167 106.5,196.833 106.5,199.5C 101.833,199.5 97.1667,199.5 92.5,199.5C 92.5,202.833 92.5,206.167 92.5,209.5C 97.5,209.5 102.5,209.5 107.5,209.5 Z"/></g>
<g><path style="opacity:1" fill="#f0f0ef" d="M 123.5,202.5 C 122.514,206.97 122.181,211.637 122.5,216.5C 119.5,216.5 116.5,216.5 113.5,216.5C 113.5,202.5 113.5,188.5 113.5,174.5C 120.508,174.334 127.508,174.5 134.5,175C 143.54,177.909 146.707,184.075 144,193.5C 139.121,200.685 132.287,203.685 123.5,202.5 Z"/></g>
<g><path style="opacity:1" fill="#f0efec" d="M 174.5,175.5 C 174.806,178.385 174.473,181.052 173.5,183.5C 169.335,181.771 165.001,181.271 160.5,182C 157.162,183.988 156.828,186.321 159.5,189C 163.5,191 167.5,193 171.5,195C 177.142,200.432 177.976,206.599 174,213.5C 171.913,214.794 169.746,215.961 167.5,217C 162.167,217.667 156.833,217.667 151.5,217C 150.234,216.691 149.067,216.191 148,215.5C 147.179,212.446 147.345,209.446 148.5,206.5C 153.38,210.459 158.713,211.292 164.5,209C 166.602,207.267 166.935,205.267 165.5,203C 159.271,200.636 153.771,197.136 149,192.5C 145.689,179.621 150.855,173.288 164.5,173.5C 168.029,173.401 171.363,174.067 174.5,175.5 Z"/></g>
<g><path style="opacity:1" fill="#edcf9e" d="M 174.5,175.5 C 175.803,178.355 175.803,181.355 174.5,184.5C 173.893,184.376 173.56,184.043 173.5,183.5C 174.473,181.052 174.806,178.385 174.5,175.5 Z"/></g>
<g><path style="opacity:1" fill="#efd7b3" d="M 129.5,182.5 C 127.5,182.5 125.5,182.5 123.5,182.5C 123.5,186.5 123.5,190.5 123.5,194.5C 125.5,194.5 127.5,194.5 129.5,194.5C 127.393,195.468 125.059,195.802 122.5,195.5C 122.5,190.833 122.5,186.167 122.5,181.5C 125.059,181.198 127.393,181.532 129.5,182.5 Z"/></g>
<g><path style="opacity:1" fill="#ecb156" d="M 129.5,182.5 C 134.368,184.218 135.702,187.551 133.5,192.5C 132.423,193.705 131.09,194.372 129.5,194.5C 127.5,194.5 125.5,194.5 123.5,194.5C 123.5,190.5 123.5,186.5 123.5,182.5C 125.5,182.5 127.5,182.5 129.5,182.5 Z"/></g>
<g><path style="opacity:1" fill="#eed6b1" d="M 107.5,209.5 C 108.473,211.948 108.806,214.615 108.5,217.5C 99.6506,217.826 90.9839,217.493 82.5,216.5C 90.8333,216.5 99.1667,216.5 107.5,216.5C 107.5,214.167 107.5,211.833 107.5,209.5 Z"/></g>
<g><path style="opacity:1" fill="#eed7b2" d="M 123.5,202.5 C 123.5,207.5 123.5,212.5 123.5,217.5C 119.958,217.813 116.625,217.479 113.5,216.5C 116.5,216.5 119.5,216.5 122.5,216.5C 122.181,211.637 122.514,206.97 123.5,202.5 Z"/></g>
</svg>
