<?xml version="1.0" encoding="UTF-8"?>
<!DOCTYPE svg PUBLIC "-//W3C//DTD SVG 1.1//EN" "http://www.w3.org/Graphics/SVG/1.1/DTD/svg11.dtd">
<svg xmlns="http://www.w3.org/2000/svg" version="1.1" width="256px" height="256px" style="shape-rendering:geometricPrecision; text-rendering:geometricPrecision; image-rendering:optimizeQuality; fill-rule:evenodd; clip-rule:evenodd" xmlns:xlink="http://www.w3.org/1999/xlink">
<g><path style="opacity:1" fill="#c5d773" d="M 137.5,2.5 C 137.169,29.0053 137.502,55.3386 138.5,81.5C 164.425,108.092 190.758,134.425 217.5,160.5C 217.667,190.169 217.5,219.835 217,249.5C 216.167,250.333 215.333,251.167 214.5,252C 156.5,252.667 98.5,252.667 40.5,252C 39.6667,251.167 38.8333,250.333 38,249.5C 37.3333,168.167 37.3333,86.8333 38,5.5C 38.8333,4.66667 39.6667,3.83333 40.5,3C 72.8316,2.50002 105.165,2.33335 137.5,2.5 Z"/></g>
<g><path style="opacity:0.988" fill="#d2de87" d="M 137.5,2.5 C 164.783,28.1162 191.45,54.4496 217.5,81.5C 191.167,81.5 164.833,81.5 138.5,81.5C 137.502,55.3386 137.169,29.0053 137.5,2.5 Z"/></g>
<g><path style="opacity:1" fill="#b6c66c" d="M 138.5,81.5 C 164.833,81.5 191.167,81.5 217.5,81.5C 217.5,107.833 217.5,134.167 217.5,160.5C 190.758,134.425 164.425,108.092 138.5,81.5 Z"/></g>
<g><path style="opacity:1" fill="#d8e2ac" d="M 80.5,174.5 C 80.5,188.5 80.5,202.5 80.5,216.5C 86.5,216.5 92.5,216.5 98.5,216.5C 92.3554,217.49 86.0221,217.823 79.5,217.5C 79.1707,202.99 79.5041,188.657 80.5,174.5 Z"/></g>
<g><path style="opacity:1" fill="#eff0ee" d="M 80.5,174.5 C 88.903,174.13 97.2363,174.63 105.5,176C 116.111,180.72 120.278,188.887 118,200.5C 115.098,210.203 108.598,215.536 98.5,216.5C 92.5,216.5 86.5,216.5 80.5,216.5C 80.5,202.5 80.5,188.5 80.5,174.5 Z"/></g>
<g><path style="opacity:1" fill="#eef0ed" d="M 135.5,201.5 C 135.372,203.655 135.872,205.655 137,207.5C 137.49,206.207 137.657,204.873 137.5,203.5C 139.995,193.853 142.329,184.186 144.5,174.5C 148.226,174.177 151.893,174.511 155.5,175.5C 158.305,185.082 160.805,194.749 163,204.5C 165.605,194.648 167.771,184.648 169.5,174.5C 172.898,174.18 176.232,174.513 179.5,175.5C 175.518,189.427 171.852,203.427 168.5,217.5C 164.833,217.5 161.167,217.5 157.5,217.5C 155.069,207.517 152.569,197.517 150,187.5C 146.87,196.69 144.37,206.023 142.5,215.5C 138.6,216.43 134.6,216.763 130.5,216.5C 126.988,202.786 123.322,189.12 119.5,175.5C 123.107,174.511 126.774,174.177 130.5,174.5C 131.845,183.57 133.511,192.57 135.5,201.5 Z"/></g>
<g><path style="opacity:1" fill="#d2df9b" d="M 90.5,182.5 C 90.5,191.167 90.5,199.833 90.5,208.5C 93.1667,208.5 95.8333,208.5 98.5,208.5C 95.7131,209.477 92.7131,209.81 89.5,209.5C 89.1734,200.318 89.5067,191.318 90.5,182.5 Z"/></g>
<g><path style="opacity:1" fill="#c5d773" d="M 90.5,182.5 C 105.775,181.949 110.942,188.949 106,203.5C 104.143,206.2 101.643,207.866 98.5,208.5C 95.8333,208.5 93.1667,208.5 90.5,208.5C 90.5,199.833 90.5,191.167 90.5,182.5 Z"/></g>
<g><path style="opacity:1" fill="#dfe7c0" d="M 135.5,201.5 C 136.167,202.167 136.833,202.833 137.5,203.5C 137.657,204.873 137.49,206.207 137,207.5C 135.872,205.655 135.372,203.655 135.5,201.5 Z"/></g>
<g><path style="opacity:1" fill="#dbe5b5" d="M 142.5,215.5 C 140.952,216.794 138.952,217.461 136.5,217.5C 134.304,217.495 132.304,217.162 130.5,216.5C 134.6,216.763 138.6,216.43 142.5,215.5 Z"/></g>
</svg>
