<?xml version="1.0" encoding="UTF-8"?>
<!DOCTYPE svg PUBLIC "-//W3C//DTD SVG 1.1//EN" "http://www.w3.org/Graphics/SVG/1.1/DTD/svg11.dtd">
<svg xmlns="http://www.w3.org/2000/svg" version="1.1" width="256px" height="256px" style="shape-rendering:geometricPrecision; text-rendering:geometricPrecision; image-rendering:optimizeQuality; fill-rule:evenodd; clip-rule:evenodd" xmlns:xlink="http://www.w3.org/1999/xlink">
<g><path style="opacity:1" fill="#47b8f6" d="M 137.5,2.5 C 137.169,29.0053 137.502,55.3386 138.5,81.5C 164.425,108.092 190.758,134.425 217.5,160.5C 217.667,190.169 217.5,219.835 217,249.5C 216.167,250.333 215.333,251.167 214.5,252C 156.5,252.667 98.5,252.667 40.5,252C 39.6667,251.167 38.8333,250.333 38,249.5C 37.3333,168.167 37.3333,86.8333 38,5.5C 38.8333,4.66667 39.6667,3.83333 40.5,3C 72.8316,2.50002 105.165,2.33335 137.5,2.5 Z"/></g>
<g><path style="opacity:0.99" fill="#6acffb" d="M 137.5,2.5 C 164.783,28.1162 191.45,54.4496 217.5,81.5C 191.167,81.5 164.833,81.5 138.5,81.5C 137.502,55.3386 137.169,29.0053 137.5,2.5 Z"/></g>
<g><path style="opacity:1" fill="#45aae3" d="M 138.5,81.5 C 164.833,81.5 191.167,81.5 217.5,81.5C 217.5,107.833 217.5,134.167 217.5,160.5C 190.758,134.425 164.425,108.092 138.5,81.5 Z"/></g>
<g><path style="opacity:1" fill="#ebeff1" d="M 107.5,175.5 C 107.806,178.385 107.473,181.052 106.5,183.5C 94.4041,179.209 87.0708,183.209 84.5,195.5C 85.3146,206.15 90.9812,210.65 101.5,209C 103.888,208.697 106.055,207.863 108,206.5C 108.167,208 108.333,209.5 108.5,211C 108.371,212.981 107.704,214.647 106.5,216C 85.0491,221.527 74.5491,213.361 75,191.5C 80.5793,175.627 91.4126,170.294 107.5,175.5 Z"/></g>
<g><path style="opacity:1" fill="#ebeff1" d="M 123.5,173.5 C 128.699,173.014 133.699,173.681 138.5,175.5C 139.833,178.167 139.833,180.833 138.5,183.5C 133.972,181.719 129.305,181.219 124.5,182C 121.735,184.966 122.068,187.633 125.5,190C 129.71,191.623 133.71,193.623 137.5,196C 144.348,205.595 142.348,212.595 131.5,217C 126.167,217.667 120.833,217.667 115.5,217C 114.584,216.626 113.75,216.126 113,215.5C 112.333,212.5 112.333,209.5 113,206.5C 118.045,210.567 123.545,211.401 129.5,209C 132.192,206.368 131.859,204.034 128.5,202C 124.5,200 120.5,198 116.5,196C 108.815,185.513 111.148,178.013 123.5,173.5 Z"/></g>
<g><path style="opacity:1" fill="#ebeff1" d="M 142.5,174.5 C 146.106,174.211 149.606,174.544 153,175.5C 155.873,185.286 159.04,194.953 162.5,204.5C 165.96,194.953 169.127,185.286 172,175.5C 175.409,174.378 178.909,174.211 182.5,175C 177.274,188.677 172.441,202.511 168,216.5C 164.27,217.46 160.437,217.793 156.5,217.5C 152.12,203.074 147.454,188.74 142.5,174.5 Z"/></g>
<g><path style="opacity:1" fill="#b9def3" d="M 107.5,175.5 C 108.803,178.355 108.803,181.355 107.5,184.5C 106.893,184.376 106.56,184.043 106.5,183.5C 107.473,181.052 107.806,178.385 107.5,175.5 Z"/></g>
</svg>
