<?xml version="1.0" encoding="UTF-8"?>
<!DOCTYPE svg PUBLIC "-//W3C//DTD SVG 1.1//EN" "http://www.w3.org/Graphics/SVG/1.1/DTD/svg11.dtd">
<svg xmlns="http://www.w3.org/2000/svg" version="1.1" width="256px" height="256px" style="shape-rendering:geometricPrecision; text-rendering:geometricPrecision; image-rendering:optimizeQuality; fill-rule:evenodd; clip-rule:evenodd" xmlns:xlink="http://www.w3.org/1999/xlink">
<g><path style="opacity:1" fill="#38c1b9" d="M 137.5,2.5 C 137.169,29.0053 137.502,55.3386 138.5,81.5C 164.425,108.092 190.758,134.425 217.5,160.5C 217.667,190.169 217.5,219.835 217,249.5C 216.167,250.333 215.333,251.167 214.5,252C 156.5,252.667 98.5,252.667 40.5,252C 39.6667,251.167 38.8333,250.333 38,249.5C 37.3333,168.167 37.3333,86.8333 38,5.5C 38.8333,4.66667 39.6667,3.83333 40.5,3C 72.8316,2.50002 105.165,2.33335 137.5,2.5 Z"/></g>
<g><path style="opacity:0.991" fill="#51cbc2" d="M 137.5,2.5 C 164.783,28.1162 191.45,54.4496 217.5,81.5C 191.167,81.5 164.833,81.5 138.5,81.5C 137.502,55.3386 137.169,29.0053 137.5,2.5 Z"/></g>
<g><path style="opacity:1" fill="#37b3ab" d="M 138.5,81.5 C 164.833,81.5 191.167,81.5 217.5,81.5C 217.5,107.833 217.5,134.167 217.5,160.5C 190.758,134.425 164.425,108.092 138.5,81.5 Z"/></g>
<g><path style="opacity:1" fill="#e9efef" d="M 88.5,174.5 C 91.8333,174.5 95.1667,174.5 98.5,174.5C 98.9355,186.243 98.4355,197.91 97,209.5C 92.2443,217.182 85.5776,219.515 77,216.5C 76.3333,213.5 76.3333,210.5 77,207.5C 79.4973,209.478 82.3307,209.978 85.5,209C 86.7014,208.097 87.5348,206.931 88,205.5C 88.4998,195.172 88.6665,184.839 88.5,174.5 Z"/></g>
<g><path style="opacity:1" fill="#eef0f0" d="M 116.5,202.5 C 115.514,206.97 115.181,211.637 115.5,216.5C 112.5,216.5 109.5,216.5 106.5,216.5C 106.5,202.5 106.5,188.5 106.5,174.5C 113.508,174.334 120.508,174.5 127.5,175C 136.27,177.702 139.437,183.536 137,192.5C 132.575,200.462 125.741,203.795 116.5,202.5 Z"/></g>
<g><path style="opacity:1" fill="#ecf0f0" d="M 159.5,193.5 C 165.167,193.5 170.833,193.5 176.5,193.5C 176.5,200.5 176.5,207.5 176.5,214.5C 166.722,218.588 157.055,218.421 147.5,214C 139.778,206.611 137.611,197.778 141,187.5C 145.434,178.696 152.601,174.03 162.5,173.5C 166.884,173.911 171.218,174.577 175.5,175.5C 175.817,178.572 175.484,181.572 174.5,184.5C 163.806,178.671 155.639,181.005 150,191.5C 147.981,205.126 153.814,211.126 167.5,209.5C 167.5,206.5 167.5,203.5 167.5,200.5C 164.833,200.5 162.167,200.5 159.5,200.5C 159.5,198.167 159.5,195.833 159.5,193.5 Z"/></g>
<g><path style="opacity:1" fill="#a1dcd8" d="M 122.5,182.5 C 120.5,182.5 118.5,182.5 116.5,182.5C 116.5,186.5 116.5,190.5 116.5,194.5C 118.5,194.5 120.5,194.5 122.5,194.5C 120.393,195.468 118.059,195.802 115.5,195.5C 115.5,190.833 115.5,186.167 115.5,181.5C 118.059,181.198 120.393,181.532 122.5,182.5 Z"/></g>
<g><path style="opacity:1" fill="#3bc1b9" d="M 122.5,182.5 C 127.368,184.218 128.702,187.551 126.5,192.5C 125.423,193.705 124.09,194.372 122.5,194.5C 120.5,194.5 118.5,194.5 116.5,194.5C 116.5,190.5 116.5,186.5 116.5,182.5C 118.5,182.5 120.5,182.5 122.5,182.5 Z"/></g>
<g><path style="opacity:1" fill="#d2e8e7" d="M 159.5,193.5 C 165.31,192.51 171.31,192.177 177.5,192.5C 177.825,200.019 177.492,207.352 176.5,214.5C 176.5,207.5 176.5,200.5 176.5,193.5C 170.833,193.5 165.167,193.5 159.5,193.5 Z"/></g>
<g><path style="opacity:1" fill="#a2dcd9" d="M 116.5,202.5 C 116.5,207.5 116.5,212.5 116.5,217.5C 112.958,217.813 109.625,217.479 106.5,216.5C 109.5,216.5 112.5,216.5 115.5,216.5C 115.181,211.637 115.514,206.97 116.5,202.5 Z"/></g>
</svg>
