<?xml version="1.0" encoding="UTF-8"?>
<!DOCTYPE svg PUBLIC "-//W3C//DTD SVG 1.1//EN" "http://www.w3.org/Graphics/SVG/1.1/DTD/svg11.dtd">
<svg xmlns="http://www.w3.org/2000/svg" version="1.1" width="256px" height="256px" style="shape-rendering:geometricPrecision; text-rendering:geometricPrecision; image-rendering:optimizeQuality; fill-rule:evenodd; clip-rule:evenodd" xmlns:xlink="http://www.w3.org/1999/xlink">
<g><path style="opacity:1" fill="#2fbe77" d="M 137.5,2.5 C 137.169,29.0053 137.502,55.3386 138.5,81.5C 164.398,108.065 190.731,134.398 217.5,160.5C 217.667,190.169 217.5,219.835 217,249.5C 216.167,250.333 215.333,251.167 214.5,252C 156.5,252.667 98.5,252.667 40.5,252C 39.6667,251.167 38.8333,250.333 38,249.5C 37.3333,168.167 37.3333,86.8333 38,5.5C 38.8333,4.66667 39.6667,3.83333 40.5,3C 72.8316,2.50002 105.165,2.33335 137.5,2.5 Z"/></g>
<g><path style="opacity:0.995" fill="#48c784" d="M 137.5,2.5 C 164.783,28.1162 191.45,54.4496 217.5,81.5C 191.167,81.5 164.833,81.5 138.5,81.5C 137.502,55.3386 137.169,29.0053 137.5,2.5 Z"/></g>
<g><path style="opacity:1" fill="#2fb070" d="M 138.5,81.5 C 164.833,81.5 191.167,81.5 217.5,81.5C 217.5,107.833 217.5,134.167 217.5,160.5C 190.731,134.398 164.398,108.065 138.5,81.5 Z"/></g>
<g><path style="opacity:1" fill="#ebefee" d="M 79.5,216.5 C 75.9581,216.813 72.6248,216.479 69.5,215.5C 74.2277,202.152 79.061,188.819 84,175.5C 88.0659,174.536 92.2325,174.203 96.5,174.5C 101.457,188.745 106.124,203.079 110.5,217.5C 107.167,217.5 103.833,217.5 100.5,217.5C 100.002,214.171 99.0015,211.005 97.5,208C 92.5,207.333 87.5,207.333 82.5,208C 81.2021,210.727 80.2021,213.56 79.5,216.5 Z"/></g>
<g><path style="opacity:1" fill="#afdfc8" d="M 115.5,174.5 C 115.5,188.5 115.5,202.5 115.5,216.5C 118.5,216.5 121.5,216.5 124.5,216.5C 121.375,217.479 118.042,217.813 114.5,217.5C 114.171,202.99 114.504,188.657 115.5,174.5 Z"/></g>
<g><path style="opacity:1" fill="#edf0ef" d="M 115.5,174.5 C 122.175,174.334 128.842,174.5 135.5,175C 147.301,179.593 149.634,187.259 142.5,198C 137.047,201.46 131.047,202.96 124.5,202.5C 124.5,207.167 124.5,211.833 124.5,216.5C 121.5,216.5 118.5,216.5 115.5,216.5C 115.5,202.5 115.5,188.5 115.5,174.5 Z"/></g>
<g><path style="opacity:1" fill="#a5ddc2" d="M 151.5,174.5 C 151.5,188.5 151.5,202.5 151.5,216.5C 154.5,216.5 157.5,216.5 160.5,216.5C 157.375,217.479 154.042,217.813 150.5,217.5C 150.171,202.99 150.504,188.657 151.5,174.5 Z"/></g>
<g><path style="opacity:1" fill="#edf0ef" d="M 151.5,174.5 C 154.5,174.5 157.5,174.5 160.5,174.5C 160.334,180.842 160.5,187.175 161,193.5C 165.167,187.333 169.333,181.167 173.5,175C 177.211,174.175 180.878,174.341 184.5,175.5C 179.833,181.833 175.167,188.167 170.5,194.5C 175.264,201.705 180.264,208.705 185.5,215.5C 182.038,216.482 178.371,216.815 174.5,216.5C 169.472,210.284 164.972,203.617 161,196.5C 160.5,203.158 160.334,209.825 160.5,216.5C 157.5,216.5 154.5,216.5 151.5,216.5C 151.5,202.5 151.5,188.5 151.5,174.5 Z"/></g>
<g><path style="opacity:1" fill="#3bc07c" d="M 124.5,181.5 C 134.87,180.679 137.87,184.845 133.5,194C 130.607,195.149 127.607,195.649 124.5,195.5C 124.5,190.833 124.5,186.167 124.5,181.5 Z"/></g>
<g><path style="opacity:1" fill="#47c383" d="M 89.5,182.5 C 91.4658,188.058 93.4658,193.724 95.5,199.5C 91.8927,200.489 88.226,200.823 84.5,200.5C 86.1667,194.5 87.8333,188.5 89.5,182.5 Z"/></g>
<g><path style="opacity:1" fill="#96d9b8" d="M 69.5,215.5 C 72.6248,216.479 75.9581,216.813 79.5,216.5C 75.9813,217.808 72.3147,217.808 68.5,216.5C 68.6236,215.893 68.9569,215.56 69.5,215.5 Z"/></g>
<g><path style="opacity:1" fill="#98daba" d="M 185.5,215.5 C 186.043,215.56 186.376,215.893 186.5,216.5C 182.351,217.809 178.351,217.809 174.5,216.5C 178.371,216.815 182.038,216.482 185.5,215.5 Z"/></g>
</svg>
