<?xml version="1.0" encoding="UTF-8"?>
<!DOCTYPE svg PUBLIC "-//W3C//DTD SVG 1.1//EN" "http://www.w3.org/Graphics/SVG/1.1/DTD/svg11.dtd">
<svg xmlns="http://www.w3.org/2000/svg" version="1.1" width="58px" height="58px" style="shape-rendering:geometricPrecision; text-rendering:geometricPrecision; image-rendering:optimizeQuality; fill-rule:evenodd; clip-rule:evenodd" xmlns:xlink="http://www.w3.org/1999/xlink">
<g><path style="opacity:0.977" fill="#ece9d9" d="M 5.5,-0.5 C 15.8333,-0.5 26.1667,-0.5 36.5,-0.5C 36.1805,4.36329 36.5139,9.02995 37.5,13.5C 42.1667,13.5 46.8333,13.5 51.5,13.5C 51.5,28.1667 51.5,42.8333 51.5,57.5C 36.1667,57.5 20.8333,57.5 5.5,57.5C 5.5,38.1667 5.5,18.8333 5.5,-0.5 Z"/></g>
<g><path style="opacity:1" fill="#dddac4" d="M 36.5,-0.5 C 37.1667,-0.5 37.8333,-0.5 38.5,-0.5C 38.5,-0.166667 38.5,0.166667 38.5,0.5C 37.5151,4.63441 37.1818,8.96775 37.5,13.5C 36.5139,9.02995 36.1805,4.36329 36.5,-0.5 Z"/></g>
<g><path style="opacity:1" fill="#d0cbb0" d="M 38.5,0.5 C 43.1667,4.5 47.5,8.83333 51.5,13.5C 46.8333,13.5 42.1667,13.5 37.5,13.5C 37.1818,8.96775 37.5151,4.63441 38.5,0.5 Z"/></g>
<g><path style="opacity:1" fill="#cec9ae" d="M 15.5,12.5 C 19.226,12.1774 22.8927,12.5108 26.5,13.5C 24.6667,13.8333 22.8333,14.1667 21,14.5C 18.7047,14.4535 16.8714,13.7868 15.5,12.5 Z"/></g>
<g><path style="opacity:1" fill="#cec9ae" d="M 15.5,20.5 C 24.1922,20.1686 32.8589,20.502 41.5,21.5C 37.1667,21.8333 32.8333,22.1667 28.5,22.5C 23.7784,22.4921 19.4451,21.8255 15.5,20.5 Z"/></g>
<g><path style="opacity:1" fill="#cec9ae" d="M 15.5,28.5 C 24.1922,28.1686 32.8589,28.502 41.5,29.5C 37.1667,29.8333 32.8333,30.1667 28.5,30.5C 23.7784,30.4921 19.4451,29.8255 15.5,28.5 Z"/></g>
<g><path style="opacity:1" fill="#cec9ae" d="M 15.5,36.5 C 24.1922,36.1686 32.8589,36.502 41.5,37.5C 37.1667,37.8333 32.8333,38.1667 28.5,38.5C 23.7784,38.4921 19.4451,37.8255 15.5,36.5 Z"/></g>
<g><path style="opacity:1" fill="#cec9ae" d="M 15.5,44.5 C 24.1922,44.1686 32.8589,44.502 41.5,45.5C 37.1667,45.8333 32.8333,46.1667 28.5,46.5C 23.7784,46.4921 19.4451,45.8255 15.5,44.5 Z"/></g>
</svg>
