<?xml version="1.0" encoding="UTF-8"?>
<!DOCTYPE svg PUBLIC "-//W3C//DTD SVG 1.1//EN" "http://www.w3.org/Graphics/SVG/1.1/DTD/svg11.dtd">
<svg xmlns="http://www.w3.org/2000/svg" version="1.1" width="256px" height="256px" style="shape-rendering:geometricPrecision; text-rendering:geometricPrecision; image-rendering:optimizeQuality; fill-rule:evenodd; clip-rule:evenodd" xmlns:xlink="http://www.w3.org/1999/xlink">
<g><path style="opacity:1" fill="#47b8f6" d="M 137.5,2.5 C 137.169,29.0053 137.502,55.3386 138.5,81.5C 164.425,108.092 190.758,134.425 217.5,160.5C 217.667,190.169 217.5,219.835 217,249.5C 216.167,250.333 215.333,251.167 214.5,252C 156.5,252.667 98.5,252.667 40.5,252C 39.6667,251.167 38.8333,250.333 38,249.5C 37.3333,168.167 37.3333,86.8333 38,5.5C 38.8333,4.66667 39.6667,3.83333 40.5,3C 72.8316,2.50002 105.165,2.33335 137.5,2.5 Z"/></g>
<g><path style="opacity:0.99" fill="#6acffb" d="M 137.5,2.5 C 164.783,28.1162 191.45,54.4496 217.5,81.5C 191.167,81.5 164.833,81.5 138.5,81.5C 137.502,55.3386 137.169,29.0053 137.5,2.5 Z"/></g>
<g><path style="opacity:1" fill="#45aae3" d="M 138.5,81.5 C 164.833,81.5 191.167,81.5 217.5,81.5C 217.5,107.833 217.5,134.167 217.5,160.5C 190.758,134.425 164.425,108.092 138.5,81.5 Z"/></g>
<g><path style="opacity:1" fill="#edf0f1" d="M 85.5,191.5 C 89.6344,192.485 93.9677,192.818 98.5,192.5C 98.5,194.833 98.5,197.167 98.5,199.5C 94.1667,199.5 89.8333,199.5 85.5,199.5C 85.5,202.833 85.5,206.167 85.5,209.5C 90.5,209.5 95.5,209.5 100.5,209.5C 100.5,211.833 100.5,214.167 100.5,216.5C 92.1667,216.5 83.8333,216.5 75.5,216.5C 75.5,202.5 75.5,188.5 75.5,174.5C 83.8333,174.5 92.1667,174.5 100.5,174.5C 100.5,177.167 100.5,179.833 100.5,182.5C 95.5,182.5 90.5,182.5 85.5,182.5C 85.5,185.5 85.5,188.5 85.5,191.5 Z"/></g>
<g><path style="opacity:1" fill="#eef0f1" d="M 156.5,174.5 C 156.5,188.5 156.5,202.5 156.5,216.5C 153.833,216.5 151.167,216.5 148.5,216.5C 148.667,205.162 148.5,193.828 148,182.5C 147.59,183.901 147.09,185.234 146.5,186.5C 143.444,196.168 140.277,205.835 137,215.5C 135.82,216.684 134.32,217.351 132.5,217.5C 130.68,217.351 129.18,216.684 128,215.5C 124.817,206.475 121.65,197.475 118.5,188.5C 118.005,186.518 117.505,184.518 117,182.5C 116.5,193.828 116.333,205.162 116.5,216.5C 113.833,216.5 111.167,216.5 108.5,216.5C 108.5,202.5 108.5,188.5 108.5,174.5C 113.43,174.197 118.263,174.531 123,175.5C 126.531,185.092 129.864,194.759 133,204.5C 136.136,194.759 139.469,185.092 143,175.5C 147.401,174.533 151.901,174.2 156.5,174.5 Z"/></g>
<g><path style="opacity:1" fill="#b5dcf3" d="M 166.5,174.5 C 166.5,188.5 166.5,202.5 166.5,216.5C 174.833,216.5 183.167,216.5 191.5,216.5C 183.016,217.493 174.349,217.826 165.5,217.5C 165.171,202.99 165.504,188.657 166.5,174.5 Z"/></g>
<g><path style="opacity:1" fill="#eff0f1" d="M 166.5,174.5 C 169.5,174.5 172.5,174.5 175.5,174.5C 175.5,186.167 175.5,197.833 175.5,209.5C 180.833,209.5 186.167,209.5 191.5,209.5C 191.5,211.833 191.5,214.167 191.5,216.5C 183.167,216.5 174.833,216.5 166.5,216.5C 166.5,202.5 166.5,188.5 166.5,174.5 Z"/></g>
<g><path style="opacity:1" fill="#c8e3f2" d="M 156.5,174.5 C 157.496,188.657 157.829,202.99 157.5,217.5C 154.167,217.5 150.833,217.5 147.5,217.5C 147.828,206.986 147.494,196.653 146.5,186.5C 147.09,185.234 147.59,183.901 148,182.5C 148.5,193.828 148.667,205.162 148.5,216.5C 151.167,216.5 153.833,216.5 156.5,216.5C 156.5,202.5 156.5,188.5 156.5,174.5 Z"/></g>
<g><path style="opacity:0.118" fill="#44bbf7" d="M -0.5,191.5 C 0.833333,192.167 0.833333,192.167 -0.5,191.5 Z"/></g>
<g><path style="opacity:1" fill="#aad9f3" d="M 118.5,188.5 C 117.506,197.986 117.173,207.652 117.5,217.5C 114.287,217.81 111.287,217.477 108.5,216.5C 111.167,216.5 113.833,216.5 116.5,216.5C 116.333,205.162 116.5,193.828 117,182.5C 117.505,184.518 118.005,186.518 118.5,188.5 Z"/></g>
<g><path style="opacity:1" fill="#bddff2" d="M 85.5,191.5 C 90.1667,191.5 94.8333,191.5 99.5,191.5C 99.8064,194.385 99.4731,197.052 98.5,199.5C 98.5,197.167 98.5,194.833 98.5,192.5C 93.9677,192.818 89.6344,192.485 85.5,191.5 Z"/></g>
<g><path style="opacity:1" fill="#a9d8f3" d="M 100.5,209.5 C 101.473,211.948 101.806,214.615 101.5,217.5C 92.6506,217.826 83.9839,217.493 75.5,216.5C 83.8333,216.5 92.1667,216.5 100.5,216.5C 100.5,214.167 100.5,211.833 100.5,209.5 Z"/></g>
</svg>
