<?xml version="1.0" encoding="UTF-8"?>
<!DOCTYPE svg PUBLIC "-//W3C//DTD SVG 1.1//EN" "http://www.w3.org/Graphics/SVG/1.1/DTD/svg11.dtd">
<svg xmlns="http://www.w3.org/2000/svg" version="1.1" width="256px" height="256px" style="shape-rendering:geometricPrecision; text-rendering:geometricPrecision; image-rendering:optimizeQuality; fill-rule:evenodd; clip-rule:evenodd" xmlns:xlink="http://www.w3.org/1999/xlink">
<g><path style="opacity:1" fill="#eb5757" d="M 137.5,2.5 C 137.5,28.8333 137.5,55.1667 137.5,81.5C 164.14,107.806 190.806,134.139 217.5,160.5C 217.667,190.169 217.5,219.835 217,249.5C 216.167,250.333 215.333,251.167 214.5,252C 156.5,252.667 98.5,252.667 40.5,252C 39.6667,251.167 38.8333,250.333 38,249.5C 37.3333,168.167 37.3333,86.8333 38,5.5C 38.8333,4.66667 39.6667,3.83333 40.5,3C 72.8316,2.50002 105.165,2.33335 137.5,2.5 Z"/></g>
<g><path style="opacity:0.99" fill="#f47777" d="M 137.5,2.5 C 164.783,28.1162 191.45,54.4496 217.5,81.5C 190.833,81.5 164.167,81.5 137.5,81.5C 137.5,55.1667 137.5,28.8333 137.5,2.5 Z"/></g>
<g><path style="opacity:1" fill="#d95353" d="M 137.5,81.5 C 164.167,81.5 190.833,81.5 217.5,81.5C 217.5,107.833 217.5,134.167 217.5,160.5C 190.806,134.139 164.14,107.806 137.5,81.5 Z"/></g>
<g><path style="opacity:1" fill="#eebdbd" d="M 84.5,174.5 C 84.5,188.5 84.5,202.5 84.5,216.5C 87.5,216.5 90.5,216.5 93.5,216.5C 90.3752,217.479 87.0419,217.813 83.5,217.5C 83.1707,202.99 83.5041,188.657 84.5,174.5 Z"/></g>
<g><path style="opacity:1" fill="#f0efef" d="M 84.5,174.5 C 92.5,174.5 100.5,174.5 108.5,174.5C 108.5,177.167 108.5,179.833 108.5,182.5C 103.5,182.5 98.5,182.5 93.5,182.5C 93.5,185.833 93.5,189.167 93.5,192.5C 98.1667,192.5 102.833,192.5 107.5,192.5C 107.5,195.167 107.5,197.833 107.5,200.5C 102.833,200.5 98.1667,200.5 93.5,200.5C 93.5,205.833 93.5,211.167 93.5,216.5C 90.5,216.5 87.5,216.5 84.5,216.5C 84.5,202.5 84.5,188.5 84.5,174.5 Z"/></g>
<g><path style="opacity:1" fill="#ee9f9f" d="M 114.5,174.5 C 114.5,188.5 114.5,202.5 114.5,216.5C 122.833,216.5 131.167,216.5 139.5,216.5C 131.016,217.493 122.349,217.826 113.5,217.5C 113.171,202.99 113.504,188.657 114.5,174.5 Z"/></g>
<g><path style="opacity:1" fill="#eff1f0" d="M 114.5,174.5 C 117.5,174.5 120.5,174.5 123.5,174.5C 123.5,186.167 123.5,197.833 123.5,209.5C 128.833,209.5 134.167,209.5 139.5,209.5C 139.5,211.833 139.5,214.167 139.5,216.5C 131.167,216.5 122.833,216.5 114.5,216.5C 114.5,202.5 114.5,188.5 114.5,174.5 Z"/></g>
<g><path style="opacity:1" fill="#ed8585" d="M 123.5,174.5 C 124.495,185.654 124.828,196.988 124.5,208.5C 129.695,208.179 134.695,208.513 139.5,209.5C 134.167,209.5 128.833,209.5 123.5,209.5C 123.5,197.833 123.5,186.167 123.5,174.5 Z"/></g>
<g><path style="opacity:1" fill="#f0ebeb" d="M 135.5,175.5 C 139.019,174.192 142.685,174.192 146.5,175.5C 149.821,185.781 152.987,196.115 156,206.5C 159.27,196.191 162.436,185.858 165.5,175.5C 168.768,174.513 172.102,174.18 175.5,174.5C 170.833,188.833 166.167,203.167 161.5,217.5C 157.563,217.793 153.73,217.46 150,216.5C 145.632,202.557 140.799,188.891 135.5,175.5 Z"/></g>
</svg>
