<?xml version="1.0" encoding="UTF-8"?>
<!DOCTYPE svg PUBLIC "-//W3C//DTD SVG 1.1//EN" "http://www.w3.org/Graphics/SVG/1.1/DTD/svg11.dtd">
<svg xmlns="http://www.w3.org/2000/svg" version="1.1" width="256px" height="256px" style="shape-rendering:geometricPrecision; text-rendering:geometricPrecision; image-rendering:optimizeQuality; fill-rule:evenodd; clip-rule:evenodd" xmlns:xlink="http://www.w3.org/1999/xlink">
<g><path style="opacity:1" fill="#f6974a" d="M 137.5,2.5 C 137.5,28.8333 137.5,55.1667 137.5,81.5C 164.14,107.806 190.806,134.139 217.5,160.5C 217.667,190.169 217.5,219.835 217,249.5C 216.167,250.333 215.333,251.167 214.5,252C 156.5,252.667 98.5,252.667 40.5,252C 39.6667,251.167 38.8333,250.333 38,249.5C 37.3333,168.167 37.3333,86.8333 38,5.5C 38.8333,4.66667 39.6667,3.83333 40.5,3C 72.8316,2.50002 105.165,2.33335 137.5,2.5 Z"/></g>
<g><path style="opacity:0.985" fill="#fbaa75" d="M 137.5,2.5 C 164.783,28.1162 191.45,54.4496 217.5,81.5C 190.833,81.5 164.167,81.5 137.5,81.5C 137.5,55.1667 137.5,28.8333 137.5,2.5 Z"/></g>
<g><path style="opacity:1" fill="#e38d48" d="M 137.5,81.5 C 164.167,81.5 190.833,81.5 217.5,81.5C 217.5,107.833 217.5,134.167 217.5,160.5C 190.806,134.139 164.14,107.806 137.5,81.5 Z"/></g>
<g><path style="opacity:1" fill="#f3c096" d="M 62.5,174.5 C 62.5,188.5 62.5,202.5 62.5,216.5C 68.5,216.5 74.5,216.5 80.5,216.5C 74.3554,217.49 68.0221,217.823 61.5,217.5C 61.1707,202.99 61.5041,188.657 62.5,174.5 Z"/></g>
<g><path style="opacity:1" fill="#f0efed" d="M 62.5,174.5 C 70.903,174.13 79.2363,174.63 87.5,176C 98.1113,180.72 102.278,188.887 100,200.5C 97.0852,210.207 90.5852,215.54 80.5,216.5C 74.5,216.5 68.5,216.5 62.5,216.5C 62.5,202.5 62.5,188.5 62.5,174.5 Z"/></g>
<g><path style="opacity:1" fill="#f0eeed" d="M 118.5,174.5 C 118.5,176.833 118.5,179.167 118.5,181.5C 117.791,182.404 116.791,182.737 115.5,182.5C 115.5,191.5 115.5,200.5 115.5,209.5C 116.5,209.5 117.5,209.5 118.5,209.5C 118.5,211.833 118.5,214.167 118.5,216.5C 113.167,216.5 107.833,216.5 102.5,216.5C 102.5,214.167 102.5,211.833 102.5,209.5C 103.5,209.5 104.5,209.5 105.5,209.5C 105.5,200.5 105.5,191.5 105.5,182.5C 104.5,182.5 103.5,182.5 102.5,182.5C 102.5,179.833 102.5,177.167 102.5,174.5C 107.833,174.5 113.167,174.5 118.5,174.5 Z"/></g>
<g><path style="opacity:1" fill="#f0eeeb" d="M 119.5,174.5 C 123.106,174.211 126.606,174.544 130,175.5C 133.205,186.113 136.205,196.78 139,207.5C 142.275,196.511 145.442,185.511 148.5,174.5C 156.196,174.169 163.862,174.503 171.5,175.5C 173.579,179.993 175.912,184.326 178.5,188.5C 181.366,184.13 184.032,179.63 186.5,175C 190.167,174.333 193.833,174.333 197.5,175C 193.292,181.918 188.958,188.751 184.5,195.5C 188.952,201.939 192.952,208.606 196.5,215.5C 193.375,216.479 190.042,216.813 186.5,216.5C 183.188,211.887 180.354,206.887 178,201.5C 175.04,206.586 172.206,211.753 169.5,217C 165.789,217.825 162.122,217.659 158.5,216.5C 163.084,209.668 167.417,202.668 171.5,195.5C 167.5,188.833 163.5,182.167 159.5,175.5C 154.241,189.028 149.241,202.695 144.5,216.5C 140.833,217.833 137.167,217.833 133.5,216.5C 129.153,203.812 124.819,191.146 120.5,178.5C 119.766,177.292 119.433,175.959 119.5,174.5 Z"/></g>
<g><path style="opacity:1" fill="#f3c197" d="M 118.5,174.5 C 118.833,174.5 119.167,174.5 119.5,174.5C 119.433,175.959 119.766,177.292 120.5,178.5C 119.833,179.5 119.167,180.5 118.5,181.5C 118.5,179.167 118.5,176.833 118.5,174.5 Z"/></g>
<g><path style="opacity:1" fill="#f5b37f" d="M 72.5,182.5 C 72.5,191.167 72.5,199.833 72.5,208.5C 75.1667,208.5 77.8333,208.5 80.5,208.5C 77.7131,209.477 74.7131,209.81 71.5,209.5C 71.1734,200.318 71.5067,191.318 72.5,182.5 Z"/></g>
<g><path style="opacity:1" fill="#f6974a" d="M 72.5,182.5 C 87.7752,181.949 92.9419,188.949 88,203.5C 86.1433,206.2 83.6433,207.866 80.5,208.5C 77.8333,208.5 75.1667,208.5 72.5,208.5C 72.5,199.833 72.5,191.167 72.5,182.5 Z"/></g>
<g><path style="opacity:1" fill="#f3c49d" d="M 102.5,209.5 C 102.5,211.833 102.5,214.167 102.5,216.5C 107.833,216.5 113.167,216.5 118.5,216.5C 118.5,214.167 118.5,211.833 118.5,209.5C 119.473,211.948 119.806,214.615 119.5,217.5C 113.5,217.5 107.5,217.5 101.5,217.5C 101.194,214.615 101.527,211.948 102.5,209.5 Z"/></g>
<g><path style="opacity:1" fill="#f2caa9" d="M 196.5,215.5 C 197.043,215.56 197.376,215.893 197.5,216.5C 193.685,217.808 190.019,217.808 186.5,216.5C 190.042,216.813 193.375,216.479 196.5,215.5 Z"/></g>
</svg>
