<?xml version="1.0" encoding="UTF-8"?>
<!DOCTYPE svg PUBLIC "-//W3C//DTD SVG 1.1//EN" "http://www.w3.org/Graphics/SVG/1.1/DTD/svg11.dtd">
<svg xmlns="http://www.w3.org/2000/svg" version="1.1" width="256px" height="256px" style="shape-rendering:geometricPrecision; text-rendering:geometricPrecision; image-rendering:optimizeQuality; fill-rule:evenodd; clip-rule:evenodd" xmlns:xlink="http://www.w3.org/1999/xlink">
<g><path style="opacity:1" fill="#fec35a" d="M 137.5,2.5 C 137.5,28.8333 137.5,55.1667 137.5,81.5C 164.14,107.806 190.806,134.139 217.5,160.5C 217.667,190.169 217.5,219.835 217,249.5C 216.167,250.333 215.333,251.167 214.5,252C 156.5,252.667 98.5,252.667 40.5,252C 39.6667,251.167 38.8333,250.333 38,249.5C 37.3333,168.167 37.3333,86.8333 38,5.5C 38.8333,4.66667 39.6667,3.83333 40.5,3C 72.8316,2.50002 105.165,2.33335 137.5,2.5 Z"/></g>
<g><path style="opacity:0.981" fill="#ffcd86" d="M 137.5,2.5 C 164.783,28.1162 191.45,54.4496 217.5,81.5C 190.833,81.5 164.167,81.5 137.5,81.5C 137.5,55.1667 137.5,28.8333 137.5,2.5 Z"/></g>
<g><path style="opacity:1" fill="#eab456" d="M 137.5,81.5 C 164.167,81.5 190.833,81.5 217.5,81.5C 217.5,107.833 217.5,134.167 217.5,160.5C 190.806,134.139 164.14,107.806 137.5,81.5 Z"/></g>
<g><path style="opacity:1" fill="#f7daa6" d="M 69.5,174.5 C 69.5,188.5 69.5,202.5 69.5,216.5C 72.1667,216.5 74.8333,216.5 77.5,216.5C 77.5,216.833 77.5,217.167 77.5,217.5C 74.5,217.5 71.5,217.5 68.5,217.5C 68.1707,202.99 68.5041,188.657 69.5,174.5 Z"/></g>
<g><path style="opacity:1" fill="#f0f0ee" d="M 69.5,174.5 C 74.2137,174.173 78.8804,174.507 83.5,175.5C 86.9115,184.906 90.4115,194.239 94,203.5C 97.2774,193.835 100.444,184.168 103.5,174.5C 108.167,174.5 112.833,174.5 117.5,174.5C 117.5,188.5 117.5,202.5 117.5,216.5C 114.5,216.5 111.5,216.5 108.5,216.5C 108.667,205.828 108.5,195.161 108,184.5C 104.195,195.415 100.695,206.415 97.5,217.5C 94.5525,217.777 91.7191,217.444 89,216.5C 85.8166,207.475 82.6499,198.475 79.5,189.5C 79.0046,187.518 78.5046,185.518 78,183.5C 77.5002,194.495 77.3335,205.495 77.5,216.5C 74.8333,216.5 72.1667,216.5 69.5,216.5C 69.5,202.5 69.5,188.5 69.5,174.5 Z"/></g>
<g><path style="opacity:1" fill="#f7d79e" d="M 117.5,174.5 C 118.496,188.657 118.829,202.99 118.5,217.5C 114.958,217.813 111.625,217.479 108.5,216.5C 111.5,216.5 114.5,216.5 117.5,216.5C 117.5,202.5 117.5,188.5 117.5,174.5 Z"/></g>
<g><path style="opacity:1" fill="#f7d79e" d="M 126.5,174.5 C 126.5,188.5 126.5,202.5 126.5,216.5C 129.5,216.5 132.5,216.5 135.5,216.5C 132.375,217.479 129.042,217.813 125.5,217.5C 125.171,202.99 125.504,188.657 126.5,174.5 Z"/></g>
<g><path style="opacity:1" fill="#f0f0ef" d="M 126.5,174.5 C 133.508,174.334 140.508,174.5 147.5,175C 155.429,177.686 158.596,183.186 157,191.5C 155.421,197.41 151.588,200.91 145.5,202C 142.183,202.498 138.85,202.665 135.5,202.5C 135.5,207.167 135.5,211.833 135.5,216.5C 132.5,216.5 129.5,216.5 126.5,216.5C 126.5,202.5 126.5,188.5 126.5,174.5 Z"/></g>
<g><path style="opacity:1" fill="#f0f0ef" d="M 185.5,216.5 C 182.833,216.5 180.167,216.5 177.5,216.5C 177.5,213.5 177.5,210.5 177.5,207.5C 171.167,207.5 164.833,207.5 158.5,207.5C 158.337,205.143 158.503,202.81 159,200.5C 164.696,192.302 170.196,183.969 175.5,175.5C 178.768,174.513 182.102,174.18 185.5,174.5C 185.5,183.5 185.5,192.5 185.5,201.5C 187.167,201.5 188.833,201.5 190.5,201.5C 190.5,203.5 190.5,205.5 190.5,207.5C 188.833,207.5 187.167,207.5 185.5,207.5C 185.5,210.5 185.5,213.5 185.5,216.5 Z"/></g>
<g><path style="opacity:1" fill="#f9d28d" d="M 142.5,182.5 C 140.5,182.5 138.5,182.5 136.5,182.5C 136.5,186.5 136.5,190.5 136.5,194.5C 138.5,194.5 140.5,194.5 142.5,194.5C 140.393,195.468 138.059,195.802 135.5,195.5C 135.5,190.833 135.5,186.167 135.5,181.5C 138.059,181.198 140.393,181.532 142.5,182.5 Z"/></g>
<g><path style="opacity:1" fill="#fec45d" d="M 142.5,182.5 C 147.577,184.334 148.744,187.667 146,192.5C 145.184,193.823 144.017,194.489 142.5,194.5C 140.5,194.5 138.5,194.5 136.5,194.5C 136.5,190.5 136.5,186.5 136.5,182.5C 138.5,182.5 140.5,182.5 142.5,182.5 Z"/></g>
<g><path style="opacity:1" fill="#f8d596" d="M 167.5,199.5 C 170.287,200.477 173.287,200.81 176.5,200.5C 176.819,195.637 176.486,190.97 175.5,186.5C 175.783,185.711 176.283,185.044 177,184.5C 177.499,190.157 177.666,195.824 177.5,201.5C 173.774,201.823 170.107,201.489 166.5,200.5C 166.624,199.893 166.957,199.56 167.5,199.5 Z"/></g>
<g><path style="opacity:1" fill="#fec45e" d="M 175.5,186.5 C 176.486,190.97 176.819,195.637 176.5,200.5C 173.287,200.81 170.287,200.477 167.5,199.5C 170.417,195.334 173.084,191.001 175.5,186.5 Z"/></g>
<g><path style="opacity:1" fill="#fad087" d="M 79.5,189.5 C 78.8333,198.833 78.1667,208.167 77.5,217.5C 77.5,217.167 77.5,216.833 77.5,216.5C 77.3335,205.495 77.5002,194.495 78,183.5C 78.5046,185.518 79.0046,187.518 79.5,189.5 Z"/></g>
<g><path style="opacity:1" fill="#f7daa6" d="M 158.5,207.5 C 164.833,207.5 171.167,207.5 177.5,207.5C 177.5,210.5 177.5,213.5 177.5,216.5C 180.167,216.5 182.833,216.5 185.5,216.5C 182.713,217.477 179.713,217.81 176.5,217.5C 176.5,214.5 176.5,211.5 176.5,208.5C 170.31,208.823 164.31,208.49 158.5,207.5 Z"/></g>
</svg>
