<?xml version="1.0" encoding="UTF-8"?>
<!DOCTYPE svg PUBLIC "-//W3C//DTD SVG 1.1//EN" "http://www.w3.org/Graphics/SVG/1.1/DTD/svg11.dtd">
<svg xmlns="http://www.w3.org/2000/svg" version="1.1" width="256px" height="256px" style="shape-rendering:geometricPrecision; text-rendering:geometricPrecision; image-rendering:optimizeQuality; fill-rule:evenodd; clip-rule:evenodd" xmlns:xlink="http://www.w3.org/1999/xlink">
<g><path style="opacity:1" fill="#998b79" d="M 137.5,2.5 C 137.5,28.8333 137.5,55.1667 137.5,81.5C 164.167,81.5 190.833,81.5 217.5,81.5C 217.5,81.8333 217.5,82.1667 217.5,82.5C 191.491,82.1669 165.491,82.5002 139.5,83.5C 165.494,109.161 191.494,134.827 217.5,160.5C 217.667,190.169 217.5,219.835 217,249.5C 216.167,250.333 215.333,251.167 214.5,252C 156.5,252.667 98.5,252.667 40.5,252C 39.6667,251.167 38.8333,250.333 38,249.5C 37.3333,168.167 37.3333,86.8333 38,5.5C 38.8333,4.66667 39.6667,3.83333 40.5,3C 72.8316,2.50002 105.165,2.33335 137.5,2.5 Z"/></g>
<g><path style="opacity:0.992" fill="#a2968c" d="M 137.5,2.5 C 164.783,28.1162 191.45,54.4496 217.5,81.5C 190.833,81.5 164.167,81.5 137.5,81.5C 137.5,55.1667 137.5,28.8333 137.5,2.5 Z"/></g>
<g><path style="opacity:1" fill="#8f8272" d="M 217.5,82.5 C 217.5,108.5 217.5,134.5 217.5,160.5C 191.494,134.827 165.494,109.161 139.5,83.5C 165.491,82.5002 191.491,82.1669 217.5,82.5 Z"/></g>
<g><path style="opacity:1" fill="#ecedec" d="M 70.5,175.5 C 74.3112,174.355 78.3112,174.188 82.5,175C 85.4006,179.968 87.9006,185.135 90,190.5C 91.9728,185.221 94.4728,180.221 97.5,175.5C 101.122,174.341 104.789,174.175 108.5,175C 104.084,181.753 100.084,188.753 96.5,196C 100.818,202.99 105.151,209.99 109.5,217C 105.459,217.827 101.459,217.66 97.5,216.5C 94.8333,211.833 92.1667,207.167 89.5,202.5C 86.3276,206.841 83.6609,211.508 81.5,216.5C 77.8927,217.489 74.226,217.823 70.5,217.5C 70.4914,215.692 70.9914,214.025 72,212.5C 76.0164,207.13 79.5164,201.463 82.5,195.5C 78.9926,188.476 74.9926,181.81 70.5,175.5 Z"/></g>
<g><path style="opacity:1" fill="#cdc8c1" d="M 120.5,174.5 C 120.5,188.5 120.5,202.5 120.5,216.5C 128.5,216.5 136.5,216.5 144.5,216.5C 136.016,217.493 127.349,217.826 118.5,217.5C 117.85,202.794 118.517,188.461 120.5,174.5 Z"/></g>
<g><path style="opacity:1" fill="#eff0f1" d="M 120.5,174.5 C 123.167,174.5 125.833,174.5 128.5,174.5C 128.5,186.167 128.5,197.833 128.5,209.5C 133.833,209.5 139.167,209.5 144.5,209.5C 144.5,211.833 144.5,214.167 144.5,216.5C 136.5,216.5 128.5,216.5 120.5,216.5C 120.5,202.5 120.5,188.5 120.5,174.5 Z"/></g>
<g><path style="opacity:1" fill="#edeeed" d="M 162.5,174.5 C 167.866,174.042 173.033,174.709 178,176.5C 178.818,179.227 178.652,181.894 177.5,184.5C 173.33,182.648 168.996,182.148 164.5,183C 160.595,185.475 160.595,188.142 164.5,191C 171.006,192.659 176.173,196.159 180,201.5C 181.897,209.494 179.064,214.994 171.5,218C 165.833,218.667 160.167,218.667 154.5,218C 153.584,217.626 152.75,217.126 152,216.5C 151.333,213.5 151.333,210.5 152,207.5C 157.089,211.417 162.589,212.251 168.5,210C 171.192,207.368 170.859,205.034 167.5,203C 161.306,200.834 156.14,197.334 152,192.5C 149.611,182.933 153.111,176.933 162.5,174.5 Z"/></g>
</svg>
