<?xml version="1.0" encoding="UTF-8"?>
<!DOCTYPE svg PUBLIC "-//W3C//DTD SVG 1.1//EN" "http://www.w3.org/Graphics/SVG/1.1/DTD/svg11.dtd">
<svg xmlns="http://www.w3.org/2000/svg" version="1.1" width="256px" height="256px" style="shape-rendering:geometricPrecision; text-rendering:geometricPrecision; image-rendering:optimizeQuality; fill-rule:evenodd; clip-rule:evenodd" xmlns:xlink="http://www.w3.org/1999/xlink">
<g><path style="opacity:1" fill="#998b79" d="M 137.5,2.5 C 137.5,28.8333 137.5,55.1667 137.5,81.5C 164.167,81.5 190.833,81.5 217.5,81.5C 217.5,81.8333 217.5,82.1667 217.5,82.5C 191.491,82.1669 165.491,82.5002 139.5,83.5C 165.494,109.161 191.494,134.827 217.5,160.5C 217.667,190.169 217.5,219.835 217,249.5C 216.167,250.333 215.333,251.167 214.5,252C 156.5,252.667 98.5,252.667 40.5,252C 39.6667,251.167 38.8333,250.333 38,249.5C 37.3333,168.167 37.3333,86.8333 38,5.5C 38.8333,4.66667 39.6667,3.83333 40.5,3C 72.8316,2.50002 105.165,2.33335 137.5,2.5 Z"/></g>
<g><path style="opacity:0.992" fill="#a2968c" d="M 137.5,2.5 C 164.783,28.1162 191.45,54.4496 217.5,81.5C 190.833,81.5 164.167,81.5 137.5,81.5C 137.5,55.1667 137.5,28.8333 137.5,2.5 Z"/></g>
<g><path style="opacity:1" fill="#8f8272" d="M 217.5,82.5 C 217.5,108.5 217.5,134.5 217.5,160.5C 191.494,134.827 165.494,109.161 139.5,83.5C 165.491,82.5002 191.491,82.1669 217.5,82.5 Z"/></g>
<g><path style="opacity:1" fill="#ecedec" d="M 49.5,174.5 C 53.3112,173.355 57.3112,173.188 61.5,174C 64.4006,178.968 66.9006,184.135 69,189.5C 70.9728,184.221 73.4728,179.221 76.5,174.5C 80.122,173.341 83.7887,173.175 87.5,174C 83.0838,180.753 79.0838,187.753 75.5,195C 79.8176,201.99 84.151,208.99 88.5,216C 84.4589,216.827 80.4589,216.66 76.5,215.5C 73.8333,210.833 71.1667,206.167 68.5,201.5C 65.3276,205.841 62.6609,210.508 60.5,215.5C 56.8927,216.489 53.226,216.823 49.5,216.5C 49.4914,214.692 49.9914,213.025 51,211.5C 55.0164,206.13 58.5164,200.463 61.5,194.5C 57.9926,187.476 53.9926,180.81 49.5,174.5 Z"/></g>
<g><path style="opacity:1" fill="#cdc8c1" d="M 98.5,173.5 C 98.5,187.5 98.5,201.5 98.5,215.5C 106.5,215.5 114.5,215.5 122.5,215.5C 114.016,216.493 105.349,216.826 96.5,216.5C 95.8505,201.794 96.5172,187.461 98.5,173.5 Z"/></g>
<g><path style="opacity:1" fill="#eff0f1" d="M 98.5,173.5 C 101.167,173.5 103.833,173.5 106.5,173.5C 106.5,185.167 106.5,196.833 106.5,208.5C 111.833,208.5 117.167,208.5 122.5,208.5C 122.5,210.833 122.5,213.167 122.5,215.5C 114.5,215.5 106.5,215.5 98.5,215.5C 98.5,201.5 98.5,187.5 98.5,173.5 Z"/></g>
<g><path style="opacity:1" fill="#ecedec" d="M 167.5,174.5 C 171.311,173.355 175.311,173.188 179.5,174C 182.401,178.968 184.901,184.135 187,189.5C 188.973,184.221 191.473,179.221 194.5,174.5C 198.122,173.341 201.789,173.175 205.5,174C 201.084,180.753 197.084,187.753 193.5,195C 197.818,201.99 202.151,208.99 206.5,216C 202.459,216.827 198.459,216.66 194.5,215.5C 191.833,210.833 189.167,206.167 186.5,201.5C 183.328,205.841 180.661,210.508 178.5,215.5C 174.893,216.489 171.226,216.823 167.5,216.5C 167.491,214.692 167.991,213.025 169,211.5C 173.016,206.13 176.516,200.463 179.5,194.5C 175.993,187.476 171.993,180.81 167.5,174.5 Z"/></g>
<g><path style="opacity:1" fill="#edeeed" d="M 141.5,173.5 C 146.866,173.042 152.033,173.709 157,175.5C 157.818,178.227 157.652,180.894 156.5,183.5C 152.33,181.648 147.996,181.148 143.5,182C 139.595,184.475 139.595,187.142 143.5,190C 150.006,191.659 155.173,195.159 159,200.5C 160.897,208.494 158.064,213.994 150.5,217C 144.833,217.667 139.167,217.667 133.5,217C 132.584,216.626 131.75,216.126 131,215.5C 130.333,212.5 130.333,209.5 131,206.5C 136.089,210.417 141.589,211.251 147.5,209C 150.192,206.368 149.859,204.034 146.5,202C 140.306,199.834 135.14,196.334 131,191.5C 128.611,181.933 132.111,175.933 141.5,173.5 Z"/></g>
</svg>
