<?xml version="1.0" encoding="UTF-8"?>
<!DOCTYPE svg PUBLIC "-//W3C//DTD SVG 1.1//EN" "http://www.w3.org/Graphics/SVG/1.1/DTD/svg11.dtd">
<svg xmlns="http://www.w3.org/2000/svg" version="1.1" width="256px" height="256px" style="shape-rendering:geometricPrecision; text-rendering:geometricPrecision; image-rendering:optimizeQuality; fill-rule:evenodd; clip-rule:evenodd" xmlns:xlink="http://www.w3.org/1999/xlink">
<g><path style="opacity:1" fill="#f6974a" d="M 137.5,2.5 C 137.5,28.8333 137.5,55.1667 137.5,81.5C 164.14,107.806 190.806,134.139 217.5,160.5C 217.667,190.169 217.5,219.835 217,249.5C 216.167,250.333 215.333,251.167 214.5,252C 156.5,252.667 98.5,252.667 40.5,252C 39.6667,251.167 38.8333,250.333 38,249.5C 37.3333,168.167 37.3333,86.8333 38,5.5C 38.8333,4.66667 39.6667,3.83333 40.5,3C 72.8316,2.50002 105.165,2.33335 137.5,2.5 Z"/></g>
<g><path style="opacity:0.985" fill="#fbaa75" d="M 137.5,2.5 C 164.783,28.1162 191.45,54.4496 217.5,81.5C 190.833,81.5 164.167,81.5 137.5,81.5C 137.5,55.1667 137.5,28.8333 137.5,2.5 Z"/></g>
<g><path style="opacity:1" fill="#e38d48" d="M 137.5,81.5 C 164.167,81.5 190.833,81.5 217.5,81.5C 217.5,107.833 217.5,134.167 217.5,160.5C 190.806,134.139 164.14,107.806 137.5,81.5 Z"/></g>
<g><path style="opacity:1" fill="#f0f0ef" d="M 75.5,216.5 C 75.1936,213.615 75.5269,210.948 76.5,208.5C 82.2438,210.543 85.7438,208.543 87,202.5C 87.4998,193.173 87.6665,183.839 87.5,174.5C 90.5,174.5 93.5,174.5 96.5,174.5C 96.9355,186.243 96.4355,197.91 95,209.5C 92.351,215.496 87.6843,218.163 81,217.5C 78.9674,217.494 77.134,217.161 75.5,216.5 Z"/></g>
<g><path style="opacity:1" fill="#f0efed" d="M 140.5,215.5 C 137.375,216.479 134.042,216.813 130.5,216.5C 129.798,213.56 128.798,210.727 127.5,208C 122.5,207.333 117.5,207.333 112.5,208C 111.202,210.727 110.202,213.56 109.5,216.5C 105.958,216.813 102.625,216.479 99.5,215.5C 104.228,202.152 109.061,188.819 114,175.5C 116.075,174.866 118.241,174.532 120.5,174.5C 122.964,174.59 125.13,175.257 127,176.5C 131.606,189.486 136.106,202.486 140.5,215.5 Z"/></g>
<g><path style="opacity:1" fill="#f3c9a7" d="M 145.5,174.5 C 145.5,188.5 145.5,202.5 145.5,216.5C 148.5,216.5 151.5,216.5 154.5,216.5C 151.375,217.479 148.042,217.813 144.5,217.5C 144.171,202.99 144.504,188.657 145.5,174.5 Z"/></g>
<g><path style="opacity:1" fill="#f0efee" d="M 145.5,174.5 C 152.508,174.334 159.508,174.5 166.5,175C 174.877,177.059 177.711,182.226 175,190.5C 173.108,194.058 170.275,196.558 166.5,198C 168.286,198.785 169.786,199.951 171,201.5C 174.167,206.5 177.333,211.5 180.5,216.5C 176.833,217.833 173.167,217.833 169.5,216.5C 166.468,211.965 163.635,207.298 161,202.5C 159.103,200.984 156.936,200.317 154.5,200.5C 154.5,205.833 154.5,211.167 154.5,216.5C 151.5,216.5 148.5,216.5 145.5,216.5C 145.5,202.5 145.5,188.5 145.5,174.5 Z"/></g>
<g><path style="opacity:1" fill="#f69a50" d="M 154.5,181.5 C 158.516,180.9 162.016,181.9 165,184.5C 165.663,191.958 162.163,194.958 154.5,193.5C 154.5,189.5 154.5,185.5 154.5,181.5 Z"/></g>
<g><path style="opacity:1" fill="#f79e57" d="M 119.5,182.5 C 121.466,188.058 123.466,193.724 125.5,199.5C 121.833,200.833 118.167,200.833 114.5,199.5C 116.779,193.998 118.446,188.331 119.5,182.5 Z"/></g>
<g><path style="opacity:1" fill="#f3c198" d="M 76.5,208.5 C 75.5269,210.948 75.1936,213.615 75.5,216.5C 74.1968,213.645 74.1968,210.645 75.5,207.5C 76.1067,207.624 76.44,207.957 76.5,208.5 Z"/></g>
<g><path style="opacity:1" fill="#f3c6a1" d="M 99.5,215.5 C 102.625,216.479 105.958,216.813 109.5,216.5C 105.981,217.808 102.315,217.808 98.5,216.5C 98.6236,215.893 98.9569,215.56 99.5,215.5 Z"/></g>
<g><path style="opacity:1" fill="#f3c7a3" d="M 140.5,215.5 C 141.043,215.56 141.376,215.893 141.5,216.5C 137.685,217.808 134.019,217.808 130.5,216.5C 134.042,216.813 137.375,216.479 140.5,215.5 Z"/></g>
</svg>
