<?xml version="1.0" encoding="UTF-8"?>
<!DOCTYPE svg PUBLIC "-//W3C//DTD SVG 1.1//EN" "http://www.w3.org/Graphics/SVG/1.1/DTD/svg11.dtd">
<svg xmlns="http://www.w3.org/2000/svg" version="1.1" width="256px" height="256px" style="shape-rendering:geometricPrecision; text-rendering:geometricPrecision; image-rendering:optimizeQuality; fill-rule:evenodd; clip-rule:evenodd" xmlns:xlink="http://www.w3.org/1999/xlink">
<g><path style="opacity:1" fill="#2fbd77" d="M 137.5,2.5 C 137.169,29.0053 137.502,55.3386 138.5,81.5C 164.425,108.092 190.758,134.425 217.5,160.5C 217.667,190.169 217.5,219.835 217,249.5C 216.167,250.333 215.333,251.167 214.5,252C 156.5,252.667 98.5,252.667 40.5,252C 39.6667,251.167 38.8333,250.333 38,249.5C 37.3333,168.167 37.3333,86.8333 38,5.5C 38.8333,4.66667 39.6667,3.83333 40.5,3C 72.8316,2.50002 105.165,2.33335 137.5,2.5 Z"/></g>
<g><path style="opacity:0.994" fill="#48c784" d="M 137.5,2.5 C 164.783,28.1162 191.45,54.4496 217.5,81.5C 191.167,81.5 164.833,81.5 138.5,81.5C 137.502,55.3386 137.169,29.0053 137.5,2.5 Z"/></g>
<g><path style="opacity:1" fill="#2fb070" d="M 138.5,81.5 C 164.833,81.5 191.167,81.5 217.5,81.5C 217.5,107.833 217.5,134.167 217.5,160.5C 190.758,134.425 164.425,108.092 138.5,81.5 Z"/></g>
<g><path style="opacity:1" fill="#ebeeed" d="M 68.5,171.5 C 72.1817,171.335 75.8484,171.501 79.5,172C 81.8558,177.212 84.3558,182.379 87,187.5C 89.2633,182.397 91.7633,177.397 94.5,172.5C 98.122,171.341 101.789,171.175 105.5,172C 101.263,178.727 97.263,185.56 93.5,192.5C 97.4621,199.477 101.462,206.477 105.5,213.5C 101.833,214.833 98.1667,214.833 94.5,213.5C 91.6667,208.5 88.8333,203.5 86,198.5C 83.562,203.875 80.7286,209.042 77.5,214C 74.1832,214.498 70.8499,214.665 67.5,214.5C 71.0353,206.951 75.0353,199.618 79.5,192.5C 75.5703,185.641 71.9036,178.641 68.5,171.5 Z"/></g>
<g><path style="opacity:1" fill="#ebefee" d="M 112.5,171.5 C 117.214,171.173 121.88,171.507 126.5,172.5C 129.519,182.061 133.019,191.394 137,200.5C 140.673,190.981 143.84,181.315 146.5,171.5C 151.167,171.5 155.833,171.5 160.5,171.5C 160.5,185.833 160.5,200.167 160.5,214.5C 157.5,214.5 154.5,214.5 151.5,214.5C 151.667,203.828 151.5,193.161 151,182.5C 147.752,193.247 143.919,203.747 139.5,214C 136.901,214.769 134.401,214.602 132,213.5C 128.132,202.897 124.466,192.23 121,181.5C 120.5,192.495 120.333,203.495 120.5,214.5C 117.833,214.5 115.167,214.5 112.5,214.5C 112.5,200.167 112.5,185.833 112.5,171.5 Z"/></g>
<g><path style="opacity:1" fill="#9fddcb" d="M 171.5,171.5 C 171.5,185.167 171.5,198.833 171.5,212.5C 179.5,212.5 187.5,212.5 195.5,212.5C 187.231,214.47 178.565,215.136 169.5,214.5C 168.85,199.794 169.517,185.461 171.5,171.5 Z"/></g>
<g><path style="opacity:1" fill="#eff0f1" d="M 171.5,171.5 C 174.167,171.5 176.833,171.5 179.5,171.5C 179.5,183.167 179.5,194.833 179.5,206.5C 184.833,206.5 190.167,206.5 195.5,206.5C 195.5,208.5 195.5,210.5 195.5,212.5C 187.5,212.5 179.5,212.5 171.5,212.5C 171.5,198.833 171.5,185.167 171.5,171.5 Z"/></g>
</svg>
