<?xml version="1.0" encoding="UTF-8"?>
<!DOCTYPE svg PUBLIC "-//W3C//DTD SVG 1.1//EN" "http://www.w3.org/Graphics/SVG/1.1/DTD/svg11.dtd">
<svg xmlns="http://www.w3.org/2000/svg" version="1.1" width="256px" height="256px" style="shape-rendering:geometricPrecision; text-rendering:geometricPrecision; image-rendering:optimizeQuality; fill-rule:evenodd; clip-rule:evenodd" xmlns:xlink="http://www.w3.org/1999/xlink">
<g><path style="opacity:1" fill="#998b79" d="M 137.5,2.5 C 137.5,28.8333 137.5,55.1667 137.5,81.5C 164.167,81.5 190.833,81.5 217.5,81.5C 217.5,81.8333 217.5,82.1667 217.5,82.5C 191.491,82.1669 165.491,82.5002 139.5,83.5C 165.494,109.161 191.494,134.827 217.5,160.5C 217.667,190.169 217.5,219.835 217,249.5C 216.167,250.333 215.333,251.167 214.5,252C 156.5,252.667 98.5,252.667 40.5,252C 39.6667,251.167 38.8333,250.333 38,249.5C 37.3333,168.167 37.3333,86.8333 38,5.5C 38.8333,4.66667 39.6667,3.83333 40.5,3C 72.8316,2.50002 105.165,2.33335 137.5,2.5 Z"/></g>
<g><path style="opacity:0.991" fill="#a2958c" d="M 137.5,2.5 C 164.783,28.1162 191.45,54.4496 217.5,81.5C 190.833,81.5 164.167,81.5 137.5,81.5C 137.5,55.1667 137.5,28.8333 137.5,2.5 Z"/></g>
<g><path style="opacity:1" fill="#8f8272" d="M 217.5,82.5 C 217.5,108.5 217.5,134.5 217.5,160.5C 191.494,134.827 165.494,109.161 139.5,83.5C 165.491,82.5002 191.491,82.1669 217.5,82.5 Z"/></g>
<g><path style="opacity:1" fill="#edeeed" d="M 91.5,173.5 C 96.8659,173.042 102.033,173.709 107,175.5C 107.818,178.227 107.652,180.894 106.5,183.5C 102.33,181.648 97.9963,181.148 93.5,182C 89.5946,184.475 89.5946,187.142 93.5,190C 100.006,191.659 105.173,195.159 109,200.5C 110.897,208.494 108.064,213.994 100.5,217C 94.8333,217.667 89.1667,217.667 83.5,217C 82.5838,216.626 81.7504,216.126 81,215.5C 80.3333,212.5 80.3333,209.5 81,206.5C 86.0894,210.417 91.5894,211.251 97.5,209C 100.192,206.368 99.859,204.034 96.5,202C 90.3064,199.834 85.1398,196.334 81,191.5C 78.6111,181.933 82.1111,175.933 91.5,173.5 Z"/></g>
<g><path style="opacity:1" fill="#edeeed" d="M 110.5,174.5 C 114.226,174.177 117.893,174.511 121.5,175.5C 124,181.167 126.5,186.833 129,192.5C 131.5,186.833 134,181.167 136.5,175.5C 140.122,174.341 143.789,174.175 147.5,175C 143,183.5 138.5,192 134,200.5C 133.501,206.157 133.334,211.824 133.5,217.5C 130.167,217.5 126.833,217.5 123.5,217.5C 123.666,211.824 123.499,206.157 123,200.5C 118.549,191.933 114.383,183.267 110.5,174.5 Z"/></g>
<g><path style="opacity:1" fill="#ecedec" d="M 158.5,173.5 C 163.599,173.175 168.599,173.675 173.5,175C 174.704,176.353 175.371,178.019 175.5,180C 175.333,181.5 175.167,183 175,184.5C 170.559,181.669 165.726,180.836 160.5,182C 157.141,184.034 156.808,186.368 159.5,189C 163.5,191 167.5,193 171.5,195C 177.944,199.777 179.111,205.61 175,212.5C 173.048,214.894 170.548,216.394 167.5,217C 162.167,217.667 156.833,217.667 151.5,217C 150.234,216.691 149.067,216.191 148,215.5C 147.179,212.446 147.345,209.446 148.5,206.5C 153.783,210.732 159.45,211.398 165.5,208.5C 166.91,206.051 166.576,203.884 164.5,202C 160.29,200.377 156.29,198.377 152.5,196C 147.552,191.701 146.385,186.534 149,180.5C 151.529,177.115 154.696,174.782 158.5,173.5 Z"/></g>
</svg>
