<?xml version="1.0" encoding="UTF-8"?>
<!DOCTYPE svg PUBLIC "-//W3C//DTD SVG 1.1//EN" "http://www.w3.org/Graphics/SVG/1.1/DTD/svg11.dtd">
<svg xmlns="http://www.w3.org/2000/svg" version="1.1" width="256px" height="256px" style="shape-rendering:geometricPrecision; text-rendering:geometricPrecision; image-rendering:optimizeQuality; fill-rule:evenodd; clip-rule:evenodd" xmlns:xlink="http://www.w3.org/1999/xlink">
<g><path style="opacity:1" fill="#77645c" d="M 137.5,2.5 C 137.5,28.8333 137.5,55.1667 137.5,81.5C 164.167,81.5 190.833,81.5 217.5,81.5C 217.5,81.8333 217.5,82.1667 217.5,82.5C 191.165,82.3334 164.831,82.5 138.5,83C 164.167,107.333 189.167,132.333 213.5,158C 214.984,158.662 216.317,159.496 217.5,160.5C 217.667,190.169 217.5,219.835 217,249.5C 216.167,250.333 215.333,251.167 214.5,252C 156.5,252.667 98.5,252.667 40.5,252C 39.6667,251.167 38.8333,250.333 38,249.5C 37.3333,168.167 37.3333,86.8333 38,5.5C 38.8333,4.66667 39.6667,3.83333 40.5,3C 72.8316,2.50002 105.165,2.33335 137.5,2.5 Z"/></g>
<g><path style="opacity:0.989" fill="#81766e" d="M 137.5,2.5 C 164.783,28.1162 191.45,54.4496 217.5,81.5C 190.833,81.5 164.167,81.5 137.5,81.5C 137.5,55.1667 137.5,28.8333 137.5,2.5 Z"/></g>
<g><path style="opacity:1" fill="#705f58" d="M 217.5,82.5 C 217.5,108.5 217.5,134.5 217.5,160.5C 216.317,159.496 214.984,158.662 213.5,158C 189.167,132.333 164.167,107.333 138.5,83C 164.831,82.5 191.165,82.3334 217.5,82.5 Z"/></g>
<g><path style="opacity:1" fill="#ececec" d="M 110.5,216.5 C 107.287,216.81 104.287,216.477 101.5,215.5C 105.75,204.498 110.417,193.665 115.5,183C 108.842,182.5 102.175,182.334 95.5,182.5C 95.5,179.833 95.5,177.167 95.5,174.5C 105.5,174.5 115.5,174.5 125.5,174.5C 125.662,176.527 125.495,178.527 125,180.5C 120.061,192.489 115.228,204.489 110.5,216.5 Z"/></g>
<g><path style="opacity:1" fill="#edeeee" d="M 142.5,207.5 C 141.957,207.56 141.624,207.893 141.5,208.5C 148.134,209.497 154.8,209.83 161.5,209.5C 161.5,211.833 161.5,214.167 161.5,216.5C 150.167,216.5 138.833,216.5 127.5,216.5C 127.338,214.473 127.505,212.473 128,210.5C 135.025,201.642 141.859,192.642 148.5,183.5C 142.202,182.504 135.868,182.17 129.5,182.5C 129.5,179.833 129.5,177.167 129.5,174.5C 140.5,174.5 151.5,174.5 162.5,174.5C 162.662,176.527 162.495,178.527 162,180.5C 155.001,189.176 148.501,198.176 142.5,207.5 Z"/></g>
<g><path style="opacity:1" fill="#948680" d="M 142.5,207.5 C 149.167,208.167 155.833,208.833 162.5,209.5C 162.167,209.5 161.833,209.5 161.5,209.5C 154.8,209.83 148.134,209.497 141.5,208.5C 141.624,207.893 141.957,207.56 142.5,207.5 Z"/></g>
<g><path style="opacity:1" fill="#bcb5b1" d="M 101.5,215.5 C 104.287,216.477 107.287,216.81 110.5,216.5C 107.313,217.806 103.98,217.806 100.5,216.5C 100.624,215.893 100.957,215.56 101.5,215.5 Z"/></g>
<g><path style="opacity:1" fill="#bdb6b3" d="M 161.5,209.5 C 161.833,209.5 162.167,209.5 162.5,209.5C 162.5,212.167 162.5,214.833 162.5,217.5C 150.655,217.828 138.988,217.495 127.5,216.5C 138.833,216.5 150.167,216.5 161.5,216.5C 161.5,214.167 161.5,211.833 161.5,209.5 Z"/></g>
</svg>
