<?xml version="1.0" encoding="UTF-8"?>
<!DOCTYPE svg PUBLIC "-//W3C//DTD SVG 1.1//EN" "http://www.w3.org/Graphics/SVG/1.1/DTD/svg11.dtd">
<svg xmlns="http://www.w3.org/2000/svg" version="1.1" width="256px" height="256px" style="shape-rendering:geometricPrecision; text-rendering:geometricPrecision; image-rendering:optimizeQuality; fill-rule:evenodd; clip-rule:evenodd" xmlns:xlink="http://www.w3.org/1999/xlink">
<g><path style="opacity:1" fill="#77645c" d="M 137.5,2.5 C 137.5,28.8333 137.5,55.1667 137.5,81.5C 164.167,81.5 190.833,81.5 217.5,81.5C 217.5,81.8333 217.5,82.1667 217.5,82.5C 191.165,82.3334 164.831,82.5 138.5,83C 164.167,107.333 189.167,132.333 213.5,158C 214.984,158.662 216.317,159.496 217.5,160.5C 217.667,190.169 217.5,219.835 217,249.5C 216.167,250.333 215.333,251.167 214.5,252C 156.5,252.667 98.5,252.667 40.5,252C 39.6667,251.167 38.8333,250.333 38,249.5C 37.3333,168.167 37.3333,86.8333 38,5.5C 38.8333,4.66667 39.6667,3.83333 40.5,3C 72.8316,2.50002 105.165,2.33335 137.5,2.5 Z"/></g>
<g><path style="opacity:0.988" fill="#81766e" d="M 137.5,2.5 C 164.783,28.1162 191.45,54.4496 217.5,81.5C 190.833,81.5 164.167,81.5 137.5,81.5C 137.5,55.1667 137.5,28.8333 137.5,2.5 Z"/></g>
<g><path style="opacity:1" fill="#705f58" d="M 217.5,82.5 C 217.5,108.5 217.5,134.5 217.5,160.5C 216.317,159.496 214.984,158.662 213.5,158C 189.167,132.333 164.167,107.333 138.5,83C 164.831,82.5 191.165,82.3334 217.5,82.5 Z"/></g>
<g><path style="opacity:1" fill="#ececec" d="M 108.5,173.5 C 114.245,173.211 119.912,173.711 125.5,175C 126.617,178.073 126.784,181.24 126,184.5C 106.821,178.014 99.1544,184.681 103,204.5C 107.14,209.211 112.306,210.711 118.5,209C 119.444,206.281 119.777,203.448 119.5,200.5C 116.5,200.5 113.5,200.5 110.5,200.5C 110.5,197.833 110.5,195.167 110.5,192.5C 116.5,192.5 122.5,192.5 128.5,192.5C 128.814,200.087 128.481,207.587 127.5,215C 117.104,218.892 107.104,218.226 97.5,213C 87.6942,200.727 88.3609,189.06 99.5,178C 102.592,176.454 105.592,174.954 108.5,173.5 Z"/></g>
<g><path style="opacity:1" fill="#edeeee" d="M 146.5,207.5 C 145.957,207.56 145.624,207.893 145.5,208.5C 152.468,209.497 159.468,209.83 166.5,209.5C 166.5,211.833 166.5,214.167 166.5,216.5C 155.167,216.5 143.833,216.5 132.5,216.5C 132.5,214.5 132.5,212.5 132.5,210.5C 139.284,201.21 146.284,192.043 153.5,183C 146.842,182.5 140.175,182.334 133.5,182.5C 133.5,179.833 133.5,177.167 133.5,174.5C 144.5,174.5 155.5,174.5 166.5,174.5C 166.662,176.527 166.495,178.527 166,180.5C 159.491,189.529 152.991,198.529 146.5,207.5 Z"/></g>
<g><path style="opacity:1" fill="#958781" d="M 146.5,207.5 C 153.167,208.167 159.833,208.833 166.5,209.5C 159.468,209.83 152.468,209.497 145.5,208.5C 145.624,207.893 145.957,207.56 146.5,207.5 Z"/></g>
<g><path style="opacity:1" fill="#bbb4b0" d="M 132.5,210.5 C 132.5,212.5 132.5,214.5 132.5,216.5C 143.833,216.5 155.167,216.5 166.5,216.5C 155.012,217.495 143.345,217.828 131.5,217.5C 131.198,214.941 131.532,212.607 132.5,210.5 Z"/></g>
</svg>
