<?xml version="1.0" encoding="UTF-8"?>
<!DOCTYPE svg PUBLIC "-//W3C//DTD SVG 1.1//EN" "http://www.w3.org/Graphics/SVG/1.1/DTD/svg11.dtd">
<svg xmlns="http://www.w3.org/2000/svg" version="1.1" width="256px" height="256px" style="shape-rendering:geometricPrecision; text-rendering:geometricPrecision; image-rendering:optimizeQuality; fill-rule:evenodd; clip-rule:evenodd" xmlns:xlink="http://www.w3.org/1999/xlink">
<g><path style="opacity:1" fill="#47b8f6" d="M 137.5,2.5 C 137.169,29.0053 137.502,55.3386 138.5,81.5C 164.425,108.092 190.758,134.425 217.5,160.5C 217.667,190.169 217.5,219.835 217,249.5C 216.167,250.333 215.333,251.167 214.5,252C 156.5,252.667 98.5,252.667 40.5,252C 39.6667,251.167 38.8333,250.333 38,249.5C 37.3333,168.167 37.3333,86.8333 38,5.5C 38.8333,4.66667 39.6667,3.83333 40.5,3C 72.8316,2.50002 105.165,2.33335 137.5,2.5 Z"/></g>
<g><path style="opacity:0.989" fill="#6acffb" d="M 137.5,2.5 C 164.783,28.1162 191.45,54.4496 217.5,81.5C 191.167,81.5 164.833,81.5 138.5,81.5C 137.502,55.3386 137.169,29.0053 137.5,2.5 Z"/></g>
<g><path style="opacity:1" fill="#45aae3" d="M 138.5,81.5 C 164.833,81.5 191.167,81.5 217.5,81.5C 217.5,107.833 217.5,134.167 217.5,160.5C 190.758,134.425 164.425,108.092 138.5,81.5 Z"/></g>
<g><path style="opacity:1" fill="#eef0f1" d="M 61.5,174.5 C 66.2137,174.173 70.8804,174.507 75.5,175.5C 79.2993,185.398 82.7993,195.398 86,205.5C 89.172,195.159 92.3387,184.826 95.5,174.5C 100.167,174.5 104.833,174.5 109.5,174.5C 109.5,188.5 109.5,202.5 109.5,216.5C 106.5,216.5 103.5,216.5 100.5,216.5C 100.666,206.161 100.5,195.828 100,185.5C 96.1961,195.745 92.6961,206.079 89.5,216.5C 86.3915,216.736 83.3915,216.403 80.5,215.5C 77.8968,206.69 74.8968,198.024 71.5,189.5C 70.9396,187.199 70.4396,184.866 70,182.5C 69.5001,193.828 69.3335,205.162 69.5,216.5C 66.8333,216.5 64.1667,216.5 61.5,216.5C 61.5,202.5 61.5,188.5 61.5,174.5 Z"/></g>
<g><path style="opacity:1" fill="#a5d7f4" d="M 109.5,174.5 C 110.496,188.657 110.829,202.99 110.5,217.5C 106.958,217.813 103.625,217.479 100.5,216.5C 103.5,216.5 106.5,216.5 109.5,216.5C 109.5,202.5 109.5,188.5 109.5,174.5 Z"/></g>
<g><path style="opacity:1" fill="#eceff1" d="M 131.5,173.5 C 143.827,172.239 152.327,177.239 157,188.5C 159.609,209.556 150.442,219.056 129.5,217C 117.969,211.459 113.469,202.292 116,189.5C 118.685,181.65 123.852,176.316 131.5,173.5 Z"/></g>
<g><path style="opacity:1" fill="#eceff1" d="M 158.5,175.5 C 161.962,174.518 165.629,174.185 169.5,174.5C 172.174,185.02 175.341,195.354 179,205.5C 182.202,195.56 185.202,185.56 188,175.5C 191.455,174.209 194.955,174.209 198.5,175.5C 193.427,189.053 188.76,202.719 184.5,216.5C 180.5,216.5 176.5,216.5 172.5,216.5C 168.208,202.622 163.541,188.955 158.5,175.5 Z"/></g>
<g><path style="opacity:1" fill="#4cb9f6" d="M 132.5,182.5 C 139.838,180.678 144.671,183.344 147,190.5C 148.38,197.148 146.88,202.981 142.5,208C 134.282,211.445 128.782,208.945 126,200.5C 124.003,192.854 126.17,186.854 132.5,182.5 Z"/></g>
<g><path style="opacity:1" fill="#87cdf4" d="M 61.5,174.5 C 61.5,188.5 61.5,202.5 61.5,216.5C 64.1667,216.5 66.8333,216.5 69.5,216.5C 69.3335,205.162 69.5001,193.828 70,182.5C 70.4396,184.866 70.9396,187.199 71.5,189.5C 70.5064,198.652 70.1731,207.985 70.5,217.5C 67.1667,217.5 63.8333,217.5 60.5,217.5C 60.1707,202.99 60.5041,188.657 61.5,174.5 Z"/></g>
<g><path style="opacity:1" fill="#9ed5f4" d="M 80.5,215.5 C 83.3915,216.403 86.3915,216.736 89.5,216.5C 88.2067,217.158 86.7067,217.492 85,217.5C 83.0145,217.431 81.5145,216.765 80.5,215.5 Z"/></g>
</svg>
