<?xml version="1.0" encoding="UTF-8"?>
<!DOCTYPE svg PUBLIC "-//W3C//DTD SVG 1.1//EN" "http://www.w3.org/Graphics/SVG/1.1/DTD/svg11.dtd">
<svg xmlns="http://www.w3.org/2000/svg" version="1.1" width="256px" height="256px" style="shape-rendering:geometricPrecision; text-rendering:geometricPrecision; image-rendering:optimizeQuality; fill-rule:evenodd; clip-rule:evenodd" xmlns:xlink="http://www.w3.org/1999/xlink">
<g><path style="opacity:1" fill="#f66081" d="M 137.5,2.5 C 137.5,28.8333 137.5,55.1667 137.5,81.5C 164.14,107.806 190.806,134.139 217.5,160.5C 217.667,190.169 217.5,219.835 217,249.5C 216.167,250.333 215.333,251.167 214.5,252C 156.5,252.667 98.5,252.667 40.5,252C 39.6667,251.167 38.8333,250.333 38,249.5C 37.3333,168.167 37.3333,86.8333 38,5.5C 38.8333,4.66667 39.6667,3.83333 40.5,3C 72.8316,2.50002 105.165,2.33335 137.5,2.5 Z"/></g>
<g><path style="opacity:0.989" fill="#f77aa0" d="M 137.5,2.5 C 164.783,28.1162 191.45,54.4496 217.5,81.5C 190.833,81.5 164.167,81.5 137.5,81.5C 137.5,55.1667 137.5,28.8333 137.5,2.5 Z"/></g>
<g><path style="opacity:1" fill="#e35b79" d="M 137.5,81.5 C 164.167,81.5 190.833,81.5 217.5,81.5C 217.5,107.833 217.5,134.167 217.5,160.5C 190.806,134.139 164.14,107.806 137.5,81.5 Z"/></g>
<g><path style="opacity:1" fill="#f0edee" d="M 59.5,174.5 C 66.5079,174.334 73.5079,174.5 80.5,175C 91.8205,176.319 97.4872,182.652 97.5,194C 97.745,207.089 91.4116,214.756 78.5,217C 72.1754,217.5 65.8421,217.666 59.5,217.5C 59.5,203.167 59.5,188.833 59.5,174.5 Z"/></g>
<g><path style="opacity:1" fill="#f0eced" d="M 148.5,216.5 C 144.4,216.763 140.4,216.43 136.5,215.5C 134.747,206.666 132.414,197.999 129.5,189.5C 125.908,198.527 123.242,207.861 121.5,217.5C 117.563,217.793 113.73,217.46 110,216.5C 106.052,202.59 102.552,188.59 99.5,174.5C 102.833,174.5 106.167,174.5 109.5,174.5C 111.665,184.82 113.832,195.153 116,205.5C 118.826,195.861 121.493,186.195 124,176.5C 125.698,175.267 127.698,174.6 130,174.5C 132.302,174.6 134.302,175.267 136,176.5C 137.709,186.001 140.042,195.334 143,204.5C 145.105,194.474 147.272,184.474 149.5,174.5C 152.85,174.335 156.183,174.502 159.5,175C 155.687,188.794 152.02,202.627 148.5,216.5 Z"/></g>
<g><path style="opacity:1" fill="#f0eced" d="M 178.5,173.5 C 184.667,173.101 190.667,173.768 196.5,175.5C 196.817,178.572 196.484,181.572 195.5,184.5C 184.835,178.671 176.668,181.004 171,191.5C 169.413,204.243 174.913,210.076 187.5,209C 188.444,206.281 188.777,203.448 188.5,200.5C 185.833,200.5 183.167,200.5 180.5,200.5C 180.5,197.833 180.5,195.167 180.5,192.5C 186.5,192.5 192.5,192.5 198.5,192.5C 198.831,199.863 198.497,207.197 197.5,214.5C 187.731,218.66 178.064,218.493 168.5,214C 161.45,207.316 158.95,199.149 161,189.5C 164.528,181.465 170.361,176.132 178.5,173.5 Z"/></g>
<g><path style="opacity:1" fill="#f76282" d="M 69.5,182.5 C 83.2105,180.949 89.0438,186.949 87,200.5C 83.4791,207.698 77.6458,210.698 69.5,209.5C 69.5,200.5 69.5,191.5 69.5,182.5 Z"/></g>
<g><path style="opacity:1" fill="#f3aaba" d="M 136.5,215.5 C 140.4,216.43 144.4,216.763 148.5,216.5C 146.696,217.162 144.696,217.495 142.5,217.5C 140.048,217.461 138.048,216.794 136.5,215.5 Z"/></g>
</svg>
