<?xml version="1.0" encoding="UTF-8"?>
<!DOCTYPE svg PUBLIC "-//W3C//DTD SVG 1.1//EN" "http://www.w3.org/Graphics/SVG/1.1/DTD/svg11.dtd">
<svg xmlns="http://www.w3.org/2000/svg" version="1.1" width="256px" height="256px" style="shape-rendering:geometricPrecision; text-rendering:geometricPrecision; image-rendering:optimizeQuality; fill-rule:evenodd; clip-rule:evenodd" xmlns:xlink="http://www.w3.org/1999/xlink">
<g><path style="opacity:1" fill="#47b8f6" d="M 137.5,2.5 C 137.169,29.0053 137.502,55.3386 138.5,81.5C 164.425,108.092 190.758,134.425 217.5,160.5C 217.667,190.169 217.5,219.835 217,249.5C 216.167,250.333 215.333,251.167 214.5,252C 156.5,252.667 98.5,252.667 40.5,252C 39.6667,251.167 38.8333,250.333 38,249.5C 37.3333,168.167 37.3333,86.8333 38,5.5C 38.8333,4.66667 39.6667,3.83333 40.5,3C 72.8316,2.50002 105.165,2.33335 137.5,2.5 Z"/></g>
<g><path style="opacity:0.99" fill="#6acffb" d="M 137.5,2.5 C 164.783,28.1162 191.45,54.4496 217.5,81.5C 191.167,81.5 164.833,81.5 138.5,81.5C 137.502,55.3386 137.169,29.0053 137.5,2.5 Z"/></g>
<g><path style="opacity:1" fill="#45aae3" d="M 138.5,81.5 C 164.833,81.5 191.167,81.5 217.5,81.5C 217.5,107.833 217.5,134.167 217.5,160.5C 190.758,134.425 164.425,108.092 138.5,81.5 Z"/></g>
<g><path style="opacity:1" fill="#edf0f1" d="M 114.5,174.5 C 121.508,174.334 128.508,174.5 135.5,175C 147.161,176.807 152.828,183.64 152.5,195.5C 152.308,206.399 146.974,213.232 136.5,216C 129.174,216.5 121.841,216.666 114.5,216.5C 114.5,202.5 114.5,188.5 114.5,174.5 Z"/></g>
<g><path style="opacity:1" fill="#eceff1" d="M 168.5,173.5 C 173.699,173.014 178.699,173.681 183.5,175.5C 184.833,178.167 184.833,180.833 183.5,183.5C 178.527,181.25 173.527,181.083 168.5,183C 166.972,185.881 167.638,188.214 170.5,190C 177.006,191.659 182.173,195.159 186,200.5C 188.041,209.073 184.874,214.573 176.5,217C 171.167,217.667 165.833,217.667 160.5,217C 159.584,216.626 158.75,216.126 158,215.5C 157.333,212.5 157.333,209.5 158,206.5C 163.045,210.567 168.545,211.401 174.5,209C 175.574,208.261 176.241,207.261 176.5,206C 175.561,204.056 174.227,202.389 172.5,201C 166.042,199.541 161.209,196.041 158,190.5C 155.99,181.357 159.49,175.69 168.5,173.5 Z"/></g>
<g><path style="opacity:1" fill="#eceff1" d="M 83.5,174.5 C 95.8274,173.239 104.327,178.239 109,189.5C 111.609,210.556 102.442,220.056 81.5,218C 69.9689,212.459 65.4689,203.292 68,190.5C 70.685,182.65 75.8517,177.316 83.5,174.5 Z"/></g>
<g><path style="opacity:1" fill="#4bb9f6" d="M 124.5,182.5 C 139.225,181.631 144.725,188.298 141,202.5C 140.215,204.286 139.049,205.786 137.5,207C 133.379,208.899 129.046,209.732 124.5,209.5C 124.5,200.5 124.5,191.5 124.5,182.5 Z"/></g>
<g><path style="opacity:1" fill="#4cb9f6" d="M 84.5,183.5 C 91.8377,181.678 96.671,184.344 99,191.5C 100.38,198.148 98.8802,203.981 94.5,209C 86.2824,212.445 80.7824,209.945 78,201.5C 76.0034,193.854 78.17,187.854 84.5,183.5 Z"/></g>
</svg>
