<?xml version="1.0" encoding="UTF-8"?>
<!DOCTYPE svg PUBLIC "-//W3C//DTD SVG 1.1//EN" "http://www.w3.org/Graphics/SVG/1.1/DTD/svg11.dtd">
<svg xmlns="http://www.w3.org/2000/svg" version="1.1" width="256px" height="256px" style="shape-rendering:geometricPrecision; text-rendering:geometricPrecision; image-rendering:optimizeQuality; fill-rule:evenodd; clip-rule:evenodd" xmlns:xlink="http://www.w3.org/1999/xlink">
<g><path style="opacity:1" fill="#998b79" d="M 137.5,2.5 C 137.5,28.8333 137.5,55.1667 137.5,81.5C 164.167,81.5 190.833,81.5 217.5,81.5C 217.5,81.8333 217.5,82.1667 217.5,82.5C 191.491,82.1669 165.491,82.5002 139.5,83.5C 165.494,109.161 191.494,134.827 217.5,160.5C 217.667,190.169 217.5,219.835 217,249.5C 216.167,250.333 215.333,251.167 214.5,252C 156.5,252.667 98.5,252.667 40.5,252C 39.6667,251.167 38.8333,250.333 38,249.5C 37.3333,168.167 37.3333,86.8333 38,5.5C 38.8333,4.66667 39.6667,3.83333 40.5,3C 72.8316,2.50002 105.165,2.33335 137.5,2.5 Z"/></g>
<g><path style="opacity:0.992" fill="#a2958c" d="M 137.5,2.5 C 164.783,28.1162 191.45,54.4496 217.5,81.5C 190.833,81.5 164.167,81.5 137.5,81.5C 137.5,55.1667 137.5,28.8333 137.5,2.5 Z"/></g>
<g><path style="opacity:1" fill="#8f8272" d="M 217.5,82.5 C 217.5,108.5 217.5,134.5 217.5,160.5C 191.494,134.827 165.494,109.161 139.5,83.5C 165.491,82.5002 191.491,82.1669 217.5,82.5 Z"/></g>
<g><path style="opacity:1" fill="#edeeed" d="M 73.5,174.5 C 80.5079,174.334 87.5079,174.5 94.5,175C 98.6641,175.823 101.831,177.99 104,181.5C 105.892,196.777 99.0584,203.777 83.5,202.5C 83.5,207.5 83.5,212.5 83.5,217.5C 80.1667,217.5 76.8333,217.5 73.5,217.5C 73.5,203.167 73.5,188.833 73.5,174.5 Z"/></g>
<g><path style="opacity:1" fill="#e1e1dd" d="M 110.5,174.5 C 110.5,188.5 110.5,202.5 110.5,216.5C 113.167,216.5 115.833,216.5 118.5,216.5C 118.178,210.642 118.511,204.975 119.5,199.5C 119.5,205.5 119.5,211.5 119.5,217.5C 116.167,217.5 112.833,217.5 109.5,217.5C 109.171,202.99 109.504,188.657 110.5,174.5 Z"/></g>
<g><path style="opacity:1" fill="#eeefef" d="M 110.5,174.5 C 113.5,174.5 116.5,174.5 119.5,174.5C 119.5,180.167 119.5,185.833 119.5,191.5C 125.167,191.5 130.833,191.5 136.5,191.5C 136.5,185.833 136.5,180.167 136.5,174.5C 139.833,174.5 143.167,174.5 146.5,174.5C 146.5,188.5 146.5,202.5 146.5,216.5C 143.5,216.5 140.5,216.5 137.5,216.5C 137.822,210.642 137.489,204.975 136.5,199.5C 130.833,199.5 125.167,199.5 119.5,199.5C 118.511,204.975 118.178,210.642 118.5,216.5C 115.833,216.5 113.167,216.5 110.5,216.5C 110.5,202.5 110.5,188.5 110.5,174.5 Z"/></g>
<g><path style="opacity:1" fill="#c9c4bc" d="M 155.5,174.5 C 155.5,188.5 155.5,202.5 155.5,216.5C 158.5,216.5 161.5,216.5 164.5,216.5C 161.375,217.479 158.042,217.813 154.5,217.5C 154.171,202.99 154.504,188.657 155.5,174.5 Z"/></g>
<g><path style="opacity:1" fill="#eeefef" d="M 155.5,174.5 C 162.508,174.334 169.508,174.5 176.5,175C 184.429,177.686 187.596,183.186 186,191.5C 181.813,200.512 174.647,204.179 164.5,202.5C 164.5,207.167 164.5,211.833 164.5,216.5C 161.5,216.5 158.5,216.5 155.5,216.5C 155.5,202.5 155.5,188.5 155.5,174.5 Z"/></g>
<g><path style="opacity:1" fill="#9b8d7c" d="M 83.5,181.5 C 87.1309,181.16 90.4642,181.994 93.5,184C 95.9752,192.696 92.6419,196.196 83.5,194.5C 83.5,190.167 83.5,185.833 83.5,181.5 Z"/></g>
<g><path style="opacity:1" fill="#afa598" d="M 170.5,182.5 C 168.833,182.5 167.167,182.5 165.5,182.5C 165.5,186.5 165.5,190.5 165.5,194.5C 167.5,194.5 169.5,194.5 171.5,194.5C 169.393,195.468 167.059,195.802 164.5,195.5C 164.5,190.833 164.5,186.167 164.5,181.5C 166.735,181.205 168.735,181.539 170.5,182.5 Z"/></g>
<g><path style="opacity:1" fill="#998c7a" d="M 170.5,182.5 C 174.305,182.643 175.971,184.643 175.5,188.5C 176.099,191.886 174.766,193.886 171.5,194.5C 169.5,194.5 167.5,194.5 165.5,194.5C 165.5,190.5 165.5,186.5 165.5,182.5C 167.167,182.5 168.833,182.5 170.5,182.5 Z"/></g>
<g><path style="opacity:1" fill="#c5bfb6" d="M 136.5,199.5 C 137.489,204.975 137.822,210.642 137.5,216.5C 140.5,216.5 143.5,216.5 146.5,216.5C 143.375,217.479 140.042,217.813 136.5,217.5C 136.5,211.5 136.5,205.5 136.5,199.5 Z"/></g>
</svg>
