<?xml version="1.0" encoding="UTF-8"?>
<!DOCTYPE svg PUBLIC "-//W3C//DTD SVG 1.1//EN" "http://www.w3.org/Graphics/SVG/1.1/DTD/svg11.dtd">
<svg xmlns="http://www.w3.org/2000/svg" version="1.1" width="256px" height="256px" style="shape-rendering:geometricPrecision; text-rendering:geometricPrecision; image-rendering:optimizeQuality; fill-rule:evenodd; clip-rule:evenodd" xmlns:xlink="http://www.w3.org/1999/xlink">
<g><path style="opacity:1" fill="#ec5757" d="M 137.5,2.5 C 137.5,28.8333 137.5,55.1667 137.5,81.5C 164.14,107.806 190.806,134.139 217.5,160.5C 217.667,190.169 217.5,219.835 217,249.5C 216.167,250.333 215.333,251.167 214.5,252C 156.5,252.667 98.5,252.667 40.5,252C 39.6667,251.167 38.8333,250.333 38,249.5C 37.3333,168.167 37.3333,86.8333 38,5.5C 38.8333,4.66667 39.6667,3.83333 40.5,3C 72.8316,2.50002 105.165,2.33335 137.5,2.5 Z"/></g>
<g><path style="opacity:0.99" fill="#f47777" d="M 137.5,2.5 C 164.783,28.1162 191.45,54.4496 217.5,81.5C 190.833,81.5 164.167,81.5 137.5,81.5C 137.5,55.1667 137.5,28.8333 137.5,2.5 Z"/></g>
<g><path style="opacity:1" fill="#d95353" d="M 137.5,81.5 C 164.167,81.5 190.833,81.5 217.5,81.5C 217.5,107.833 217.5,134.167 217.5,160.5C 190.806,134.139 164.14,107.806 137.5,81.5 Z"/></g>
<g><path style="opacity:1" fill="#eea6a6" d="M 82.5,174.5 C 82.5,188.5 82.5,202.5 82.5,216.5C 90.8333,216.5 99.1667,216.5 107.5,216.5C 99.0161,217.493 90.3494,217.826 81.5,217.5C 81.1707,202.99 81.5041,188.657 82.5,174.5 Z"/></g>
<g><path style="opacity:1" fill="#f0efef" d="M 82.5,174.5 C 90.5,174.5 98.5,174.5 106.5,174.5C 106.5,177.167 106.5,179.833 106.5,182.5C 101.5,182.5 96.5,182.5 91.5,182.5C 91.5,185.5 91.5,188.5 91.5,191.5C 96.1667,191.5 100.833,191.5 105.5,191.5C 105.5,194.167 105.5,196.833 105.5,199.5C 101.167,199.5 96.8333,199.5 92.5,199.5C 91.5206,202.625 91.1872,205.958 91.5,209.5C 96.8333,209.5 102.167,209.5 107.5,209.5C 107.5,211.833 107.5,214.167 107.5,216.5C 99.1667,216.5 90.8333,216.5 82.5,216.5C 82.5,202.5 82.5,188.5 82.5,174.5 Z"/></g>
<g><path style="opacity:1" fill="#f0ecec" d="M 147.5,215.5 C 144.038,216.482 140.371,216.815 136.5,216.5C 133.852,211.511 131.186,206.511 128.5,201.5C 125.583,206.332 122.916,211.332 120.5,216.5C 116.541,217.66 112.541,217.827 108.5,217C 113.069,209.941 117.402,202.774 121.5,195.5C 117.894,188.458 113.894,181.625 109.5,175C 113.5,174.333 117.5,174.333 121.5,175C 124.401,179.968 126.901,185.135 129,190.5C 130.973,185.221 133.473,180.221 136.5,175.5C 140.167,174.167 143.833,174.167 147.5,175.5C 142.886,181.954 138.886,188.787 135.5,196C 139.313,202.639 143.313,209.139 147.5,215.5 Z"/></g>
<g><path style="opacity:1" fill="#efc2c2" d="M 152.5,174.5 C 152.5,188.5 152.5,202.5 152.5,216.5C 160.833,216.5 169.167,216.5 177.5,216.5C 169.016,217.493 160.349,217.826 151.5,217.5C 151.171,202.99 151.504,188.657 152.5,174.5 Z"/></g>
<g><path style="opacity:1" fill="#f0efef" d="M 152.5,174.5 C 160.5,174.5 168.5,174.5 176.5,174.5C 176.5,177.167 176.5,179.833 176.5,182.5C 171.5,182.5 166.5,182.5 161.5,182.5C 161.5,185.5 161.5,188.5 161.5,191.5C 166.167,191.5 170.833,191.5 175.5,191.5C 175.5,194.167 175.5,196.833 175.5,199.5C 170.833,199.5 166.167,199.5 161.5,199.5C 161.5,202.833 161.5,206.167 161.5,209.5C 166.833,209.5 172.167,209.5 177.5,209.5C 177.5,211.833 177.5,214.167 177.5,216.5C 169.167,216.5 160.833,216.5 152.5,216.5C 152.5,202.5 152.5,188.5 152.5,174.5 Z"/></g>
<g><path style="opacity:1" fill="#ed7c7c" d="M 92.5,199.5 C 92.5,202.5 92.5,205.5 92.5,208.5C 97.6946,208.179 102.695,208.513 107.5,209.5C 102.167,209.5 96.8333,209.5 91.5,209.5C 91.1872,205.958 91.5206,202.625 92.5,199.5 Z"/></g>
<g><path style="opacity:1" fill="#eea8a7" d="M 147.5,215.5 C 148.043,215.56 148.376,215.893 148.5,216.5C 144.351,217.809 140.351,217.809 136.5,216.5C 140.371,216.815 144.038,216.482 147.5,215.5 Z"/></g>
</svg>
