<?xml version="1.0" encoding="UTF-8"?>
<!DOCTYPE svg PUBLIC "-//W3C//DTD SVG 1.1//EN" "http://www.w3.org/Graphics/SVG/1.1/DTD/svg11.dtd">
<svg xmlns="http://www.w3.org/2000/svg" version="1.1" width="256px" height="256px" style="shape-rendering:geometricPrecision; text-rendering:geometricPrecision; image-rendering:optimizeQuality; fill-rule:evenodd; clip-rule:evenodd" xmlns:xlink="http://www.w3.org/1999/xlink">
<g><path style="opacity:1" fill="#37c49c" d="M 137.5,2.5 C 137.169,29.0053 137.502,55.3386 138.5,81.5C 164.425,108.092 190.758,134.425 217.5,160.5C 217.667,190.169 217.5,219.835 217,249.5C 216.167,250.333 215.333,251.167 214.5,252C 156.5,252.667 98.5,252.667 40.5,252C 39.6667,251.167 38.8333,250.333 38,249.5C 37.3333,168.167 37.3333,86.8333 38,5.5C 38.8333,4.66667 39.6667,3.83333 40.5,3C 72.8316,2.50002 105.165,2.33335 137.5,2.5 Z"/></g>
<g><path style="opacity:0.984" fill="#4dcda6" d="M 137.5,2.5 C 164.783,28.1162 191.45,54.4496 217.5,81.5C 191.167,81.5 164.833,81.5 138.5,81.5C 137.502,55.3386 137.169,29.0053 137.5,2.5 Z"/></g>
<g><path style="opacity:1" fill="#37b591" d="M 138.5,81.5 C 164.833,81.5 191.167,81.5 217.5,81.5C 217.5,107.833 217.5,134.167 217.5,160.5C 190.758,134.425 164.425,108.092 138.5,81.5 Z"/></g>
<g><path style="opacity:1" fill="#eaefee" d="M 111.5,174.5 C 114.833,174.5 118.167,174.5 121.5,174.5C 121.666,184.506 121.5,194.506 121,204.5C 118.13,215.532 110.964,219.865 99.5,217.5C 99.1826,214.428 99.5159,211.428 100.5,208.5C 105.371,210.665 108.871,209.332 111,204.5C 111.5,194.506 111.666,184.506 111.5,174.5 Z"/></g>
<g><path style="opacity:1" fill="#eaefee" d="M 127.5,215.5 C 127.194,212.615 127.527,209.948 128.5,207.5C 133.839,210.907 139.339,211.241 145,208.5C 145.667,206.833 145.667,205.167 145,203.5C 140.742,200.62 136.242,198.12 131.5,196C 123.406,186.05 125.406,178.717 137.5,174C 142.989,173.068 148.323,173.568 153.5,175.5C 154.655,178.446 154.821,181.446 154,184.5C 149.52,181.778 144.687,180.945 139.5,182C 136.014,183.947 135.681,186.28 138.5,189C 143.326,191.246 147.992,193.746 152.5,196.5C 157.252,201.368 157.752,206.701 154,212.5C 149.698,216.656 144.531,218.323 138.5,217.5C 134.607,217.702 130.94,217.035 127.5,215.5 Z"/></g>
<g><path style="opacity:1" fill="#ade0d2" d="M 128.5,207.5 C 127.527,209.948 127.194,212.615 127.5,215.5C 126.197,212.645 126.197,209.645 127.5,206.5C 128.107,206.624 128.44,206.957 128.5,207.5 Z"/></g>
</svg>
