<?xml version="1.0" encoding="UTF-8"?>
<!DOCTYPE svg PUBLIC "-//W3C//DTD SVG 1.1//EN" "http://www.w3.org/Graphics/SVG/1.1/DTD/svg11.dtd">
<svg xmlns="http://www.w3.org/2000/svg" version="1.1" width="256px" height="256px" style="shape-rendering:geometricPrecision; text-rendering:geometricPrecision; image-rendering:optimizeQuality; fill-rule:evenodd; clip-rule:evenodd" xmlns:xlink="http://www.w3.org/1999/xlink">
<g><path style="opacity:1" fill="#47b8f6" d="M 137.5,2.5 C 137.169,29.0053 137.502,55.3386 138.5,81.5C 164.425,108.092 190.758,134.425 217.5,160.5C 217.667,190.169 217.5,219.835 217,249.5C 216.167,250.333 215.333,251.167 214.5,252C 156.5,252.667 98.5,252.667 40.5,252C 39.6667,251.167 38.8333,250.333 38,249.5C 37.3333,168.167 37.3333,86.8333 38,5.5C 38.8333,4.66667 39.6667,3.83333 40.5,3C 72.8316,2.50002 105.165,2.33335 137.5,2.5 Z"/></g>
<g><path style="opacity:0.99" fill="#6acffb" d="M 137.5,2.5 C 164.783,28.1162 191.45,54.4496 217.5,81.5C 191.167,81.5 164.833,81.5 138.5,81.5C 137.502,55.3386 137.169,29.0053 137.5,2.5 Z"/></g>
<g><path style="opacity:1" fill="#45aae3" d="M 138.5,81.5 C 164.833,81.5 191.167,81.5 217.5,81.5C 217.5,107.833 217.5,134.167 217.5,160.5C 190.758,134.425 164.425,108.092 138.5,81.5 Z"/></g>
<g><path style="opacity:1" fill="#edf0f1" d="M 113.5,174.5 C 120.508,174.334 127.508,174.5 134.5,175C 146.161,176.807 151.828,183.64 151.5,195.5C 151.308,206.399 145.974,213.232 135.5,216C 128.174,216.5 120.841,216.666 113.5,216.5C 113.5,202.5 113.5,188.5 113.5,174.5 Z"/></g>
<g><path style="opacity:1" fill="#eceff1" d="M 83.5,174.5 C 95.8274,173.239 104.327,178.239 109,189.5C 111.609,210.556 102.442,220.056 81.5,218C 69.9689,212.459 65.4689,203.292 68,190.5C 70.685,182.65 75.8517,177.316 83.5,174.5 Z"/></g>
<g><path style="opacity:1" fill="#eff0ee" d="M 152.5,175.5 C 163.833,175.5 175.167,175.5 186.5,175.5C 186.5,178.167 186.5,180.833 186.5,183.5C 182.5,183.5 178.5,183.5 174.5,183.5C 174.5,194.833 174.5,206.167 174.5,217.5C 171.167,217.5 167.833,217.5 164.5,217.5C 164.5,206.167 164.5,194.833 164.5,183.5C 160.5,183.5 156.5,183.5 152.5,183.5C 152.5,180.833 152.5,178.167 152.5,175.5 Z"/></g>
<g><path style="opacity:1" fill="#4bb9f6" d="M 123.5,182.5 C 138.225,181.631 143.725,188.298 140,202.5C 139.215,204.286 138.049,205.786 136.5,207C 132.379,208.899 128.046,209.732 123.5,209.5C 123.5,200.5 123.5,191.5 123.5,182.5 Z"/></g>
<g><path style="opacity:1" fill="#4cb9f6" d="M 84.5,183.5 C 91.8377,181.678 96.671,184.344 99,191.5C 100.38,198.148 98.8802,203.981 94.5,209C 86.2824,212.445 80.7824,209.945 78,201.5C 76.0034,193.854 78.17,187.854 84.5,183.5 Z"/></g>
</svg>
