<?xml version="1.0" encoding="UTF-8"?>
<!DOCTYPE svg PUBLIC "-//W3C//DTD SVG 1.1//EN" "http://www.w3.org/Graphics/SVG/1.1/DTD/svg11.dtd">
<svg xmlns="http://www.w3.org/2000/svg" version="1.1" width="256px" height="256px" style="shape-rendering:geometricPrecision; text-rendering:geometricPrecision; image-rendering:optimizeQuality; fill-rule:evenodd; clip-rule:evenodd" xmlns:xlink="http://www.w3.org/1999/xlink">
<g><path style="opacity:1" fill="#c5d773" d="M 137.5,2.5 C 137.169,29.0053 137.502,55.3386 138.5,81.5C 164.425,108.092 190.758,134.425 217.5,160.5C 217.667,190.169 217.5,219.835 217,249.5C 216.167,250.333 215.333,251.167 214.5,252C 156.5,252.667 98.5,252.667 40.5,252C 39.6667,251.167 38.8333,250.333 38,249.5C 37.3333,168.167 37.3333,86.8333 38,5.5C 38.8333,4.66667 39.6667,3.83333 40.5,3C 72.8316,2.50002 105.165,2.33335 137.5,2.5 Z"/></g>
<g><path style="opacity:0.988" fill="#d2de87" d="M 137.5,2.5 C 164.783,28.1162 191.45,54.4496 217.5,81.5C 191.167,81.5 164.833,81.5 138.5,81.5C 137.502,55.3386 137.169,29.0053 137.5,2.5 Z"/></g>
<g><path style="opacity:1" fill="#b6c66c" d="M 138.5,81.5 C 164.833,81.5 191.167,81.5 217.5,81.5C 217.5,107.833 217.5,134.167 217.5,160.5C 190.758,134.425 164.425,108.092 138.5,81.5 Z"/></g>
<g><path style="opacity:1" fill="#eff0ef" d="M 94.5,182.5 C 93.5052,193.654 93.1719,204.988 93.5,216.5C 90.5,216.5 87.5,216.5 84.5,216.5C 84.5,205.167 84.5,193.833 84.5,182.5C 80.5,182.5 76.5,182.5 72.5,182.5C 72.5,179.833 72.5,177.167 72.5,174.5C 83.8333,174.5 95.1667,174.5 106.5,174.5C 106.5,177.167 106.5,179.833 106.5,182.5C 102.5,182.5 98.5,182.5 94.5,182.5 Z"/></g>
<g><path style="opacity:1" fill="#eef0ed" d="M 112.5,216.5 C 108.958,216.813 105.625,216.479 102.5,215.5C 106.89,202.498 111.39,189.498 116,176.5C 117.87,175.257 120.036,174.59 122.5,174.5C 124.759,174.532 126.925,174.866 129,175.5C 134.338,189.348 139.171,203.348 143.5,217.5C 140.15,217.665 136.817,217.498 133.5,217C 132.58,214.165 131.58,211.332 130.5,208.5C 125.208,207.505 119.875,207.172 114.5,207.5C 113.833,210.5 113.167,213.5 112.5,216.5 Z"/></g>
<g><path style="opacity:1" fill="#eff0ef" d="M 182.5,215.5 C 179.375,216.479 176.042,216.813 172.5,216.5C 169.085,211.236 165.418,206.069 161.5,201C 160.207,200.51 158.873,200.343 157.5,200.5C 156.512,205.64 156.179,210.974 156.5,216.5C 153.5,216.5 150.5,216.5 147.5,216.5C 147.5,202.5 147.5,188.5 147.5,174.5C 154.841,174.334 162.174,174.5 169.5,175C 178.074,177.652 180.574,183.152 177,191.5C 175.437,194.728 172.937,196.895 169.5,198C 174.821,203.147 179.155,208.98 182.5,215.5 Z"/></g>
<g><path style="opacity:1" fill="#e5ead3" d="M 94.5,182.5 C 94.5,194.167 94.5,205.833 94.5,217.5C 90.9581,217.813 87.6248,217.479 84.5,216.5C 87.5,216.5 90.5,216.5 93.5,216.5C 93.1719,204.988 93.5052,193.654 94.5,182.5 Z"/></g>
<g><path style="opacity:1" fill="#c6d777" d="M 157.5,181.5 C 161.516,180.9 165.016,181.9 168,184.5C 168.218,191.434 164.718,194.434 157.5,193.5C 157.5,189.5 157.5,185.5 157.5,181.5 Z"/></g>
<g><path style="opacity:1" fill="#c9d97e" d="M 121.5,184.5 C 122.497,184.47 123.164,184.97 123.5,186C 125.35,190.714 126.684,195.547 127.5,200.5C 124.167,200.5 120.833,200.5 117.5,200.5C 118.627,195.118 119.961,189.784 121.5,184.5 Z"/></g>
<g><path style="opacity:1" fill="#e2e9cb" d="M 157.5,200.5 C 157.5,206.167 157.5,211.833 157.5,217.5C 153.958,217.813 150.625,217.479 147.5,216.5C 150.5,216.5 153.5,216.5 156.5,216.5C 156.179,210.974 156.512,205.64 157.5,200.5 Z"/></g>
<g><path style="opacity:1" fill="#dce5b8" d="M 102.5,215.5 C 105.625,216.479 108.958,216.813 112.5,216.5C 108.981,217.808 105.315,217.808 101.5,216.5C 101.624,215.893 101.957,215.56 102.5,215.5 Z"/></g>
<g><path style="opacity:1" fill="#dce5b8" d="M 182.5,215.5 C 183.043,215.56 183.376,215.893 183.5,216.5C 179.685,217.808 176.019,217.808 172.5,216.5C 176.042,216.813 179.375,216.479 182.5,215.5 Z"/></g>
</svg>
