<?xml version="1.0" encoding="UTF-8"?>
<!DOCTYPE svg PUBLIC "-//W3C//DTD SVG 1.1//EN" "http://www.w3.org/Graphics/SVG/1.1/DTD/svg11.dtd">
<svg xmlns="http://www.w3.org/2000/svg" version="1.1" width="256px" height="256px" style="shape-rendering:geometricPrecision; text-rendering:geometricPrecision; image-rendering:optimizeQuality; fill-rule:evenodd; clip-rule:evenodd" xmlns:xlink="http://www.w3.org/1999/xlink">
<g><path style="opacity:1" fill="#37c49c" d="M 137.5,2.5 C 137.5,28.8333 137.5,55.1667 137.5,81.5C 135.801,81.3398 134.134,81.5065 132.5,82C 159.305,107.805 185.805,133.972 212,160.5C 212.5,134.169 212.667,107.835 212.5,81.5C 214.167,81.5 215.833,81.5 217.5,81.5C 217.667,137.501 217.5,193.501 217,249.5C 216.167,250.333 215.333,251.167 214.5,252C 156.5,252.667 98.5,252.667 40.5,252C 39.6667,251.167 38.8333,250.333 38,249.5C 37.3333,168.167 37.3333,86.8333 38,5.5C 38.8333,4.66667 39.6667,3.83333 40.5,3C 72.8316,2.50002 105.165,2.33335 137.5,2.5 Z"/></g>
<g><path style="opacity:0.984" fill="#4ecda6" d="M 137.5,2.5 C 164.783,28.1162 191.45,54.4496 217.5,81.5C 215.833,81.5 214.167,81.5 212.5,81.5C 187.5,81.5 162.5,81.5 137.5,81.5C 137.5,55.1667 137.5,28.8333 137.5,2.5 Z"/></g>
<g><path style="opacity:1" fill="#37b591" d="M 137.5,81.5 C 162.5,81.5 187.5,81.5 212.5,81.5C 212.667,107.835 212.5,134.169 212,160.5C 185.805,133.972 159.305,107.805 132.5,82C 134.134,81.5065 135.801,81.3398 137.5,81.5 Z"/></g>
<g><path style="opacity:1" fill="#94dbc7" d="M 70.5,174.5 C 70.5,188.5 70.5,202.5 70.5,216.5C 73.5,216.5 76.5,216.5 79.5,216.5C 76.3752,217.479 73.0419,217.813 69.5,217.5C 69.1707,202.99 69.5041,188.657 70.5,174.5 Z"/></g>
<g><path style="opacity:1" fill="#eef0f0" d="M 70.5,174.5 C 79.347,173.874 88.0137,174.707 96.5,177C 102.729,183.725 103.062,190.725 97.5,198C 92.047,201.46 86.047,202.96 79.5,202.5C 79.5,207.167 79.5,211.833 79.5,216.5C 76.5,216.5 73.5,216.5 70.5,216.5C 70.5,202.5 70.5,188.5 70.5,174.5 Z"/></g>
<g><path style="opacity:1" fill="#9dddcb" d="M 106.5,174.5 C 106.5,188.5 106.5,202.5 106.5,216.5C 109.167,216.5 111.833,216.5 114.5,216.5C 114.168,206.81 114.502,197.144 115.5,187.5C 116.107,187.624 116.44,187.957 116.5,188.5C 115.506,197.986 115.173,207.652 115.5,217.5C 112.167,217.5 108.833,217.5 105.5,217.5C 105.171,202.99 105.504,188.657 106.5,174.5 Z"/></g>
<g><path style="opacity:1" fill="#edf0f0" d="M 106.5,174.5 C 109.85,174.335 113.183,174.502 116.5,175C 122.543,184.253 128.709,193.42 135,202.5C 135.5,193.173 135.666,183.839 135.5,174.5C 138.5,174.5 141.5,174.5 144.5,174.5C 144.5,188.833 144.5,203.167 144.5,217.5C 141.102,217.82 137.768,217.487 134.5,216.5C 128.079,207.418 122.079,198.084 116.5,188.5C 116.44,187.957 116.107,187.624 115.5,187.5C 114.502,197.144 114.168,206.81 114.5,216.5C 111.833,216.5 109.167,216.5 106.5,216.5C 106.5,202.5 106.5,188.5 106.5,174.5 Z"/></g>
<g><path style="opacity:1" fill="#ecf0ef" d="M 185.5,175.5 C 185.806,178.385 185.473,181.052 184.5,183.5C 177.505,180.377 170.839,180.877 164.5,185C 160.219,190.623 159.385,196.79 162,203.5C 165.636,209.177 170.803,211.01 177.5,209C 178.444,206.281 178.777,203.448 178.5,200.5C 175.833,200.5 173.167,200.5 170.5,200.5C 170.5,198.167 170.5,195.833 170.5,193.5C 176.167,193.5 181.833,193.5 187.5,193.5C 187.5,200.5 187.5,207.5 187.5,214.5C 177.736,218.633 168.069,218.466 158.5,214C 152.748,209.424 150.081,203.424 150.5,196C 151.492,181.178 159.492,173.678 174.5,173.5C 178.319,173.455 181.986,174.122 185.5,175.5 Z"/></g>
<g><path style="opacity:1" fill="#a0ddcc" d="M 185.5,175.5 C 186.803,178.355 186.803,181.355 185.5,184.5C 184.893,184.376 184.56,184.043 184.5,183.5C 185.473,181.052 185.806,178.385 185.5,175.5 Z"/></g>
<g><path style="opacity:1" fill="#71d1b5" d="M 86.5,182.5 C 84.5,182.5 82.5,182.5 80.5,182.5C 80.5,186.5 80.5,190.5 80.5,194.5C 82.5,194.5 84.5,194.5 86.5,194.5C 84.3926,195.468 82.0593,195.802 79.5,195.5C 79.5,190.833 79.5,186.167 79.5,181.5C 82.0593,181.198 84.3926,181.532 86.5,182.5 Z"/></g>
<g><path style="opacity:1" fill="#3dc59e" d="M 86.5,182.5 C 91.5775,184.334 92.7442,187.667 90,192.5C 89.1841,193.823 88.0174,194.489 86.5,194.5C 84.5,194.5 82.5,194.5 80.5,194.5C 80.5,190.5 80.5,186.5 80.5,182.5C 82.5,182.5 84.5,182.5 86.5,182.5 Z"/></g>
<g><path style="opacity:1" fill="#aadfd0" d="M 187.5,214.5 C 187.5,207.5 187.5,200.5 187.5,193.5C 181.833,193.5 176.167,193.5 170.5,193.5C 170.5,195.833 170.5,198.167 170.5,200.5C 169.527,198.052 169.194,195.385 169.5,192.5C 175.833,192.5 182.167,192.5 188.5,192.5C 188.825,200.019 188.492,207.352 187.5,214.5 Z"/></g>
</svg>
