<?xml version="1.0" encoding="UTF-8"?>
<!DOCTYPE svg PUBLIC "-//W3C//DTD SVG 1.1//EN" "http://www.w3.org/Graphics/SVG/1.1/DTD/svg11.dtd">
<svg xmlns="http://www.w3.org/2000/svg" version="1.1" width="256px" height="256px" style="shape-rendering:geometricPrecision; text-rendering:geometricPrecision; image-rendering:optimizeQuality; fill-rule:evenodd; clip-rule:evenodd" xmlns:xlink="http://www.w3.org/1999/xlink">
<g><path style="opacity:0.994" fill="#eb5757" d="M 137.5,2.5 C 136.502,28.328 136.169,54.328 136.5,80.5C 162.911,106.411 189.245,132.578 215.5,159C 216.094,159.464 216.761,159.631 217.5,159.5C 217.667,189.169 217.5,218.835 217,248.5C 216.626,249.416 216.126,250.25 215.5,251C 186.038,252.147 156.538,252.647 127,252.5C 99.1667,252.333 71.3333,252.167 43.5,252C 41.567,251.749 39.7337,251.249 38,250.5C 36.3392,168.915 36.0058,87.2481 37,5.5C 37.9761,3.11281 39.8094,1.94614 42.5,2C 74.336,1.16931 106.003,1.33597 137.5,2.5 Z"/></g>
<g><path style="opacity:0.982" fill="#f37676" d="M 137.5,2.5 C 165.115,27.1141 191.448,53.1141 216.5,80.5C 189.833,80.5 163.167,80.5 136.5,80.5C 136.169,54.328 136.502,28.328 137.5,2.5 Z"/></g>
<g><path style="opacity:0.986" fill="#d95353" d="M 136.5,80.5 C 163.167,80.5 189.833,80.5 216.5,80.5C 217.498,106.661 217.831,132.995 217.5,159.5C 216.761,159.631 216.094,159.464 215.5,159C 189.245,132.578 162.911,106.411 136.5,80.5 Z"/></g>
<g><path style="opacity:1" fill="#f0ecec" d="M 91.5,174.5 C 107.462,174.944 111.962,182.277 105,196.5C 102.195,199.653 98.6954,201.319 94.5,201.5C 91.8333,201.5 89.1667,201.5 86.5,201.5C 85.7705,206.13 85.4372,210.797 85.5,215.5C 82.8333,215.5 80.1667,215.5 77.5,215.5C 77.5,201.833 77.5,188.167 77.5,174.5C 82.1667,174.5 86.8333,174.5 91.5,174.5 Z"/></g>
<g><path style="opacity:1" fill="#ed9d9d" d="M 127.5,174.5 C 122.833,174.5 118.167,174.5 113.5,174.5C 113.5,188.5 113.5,202.5 113.5,216.5C 118.167,216.5 122.833,216.5 127.5,216.5C 122.695,217.487 117.695,217.821 112.5,217.5C 112.5,202.833 112.5,188.167 112.5,173.5C 117.695,173.179 122.695,173.513 127.5,174.5 Z"/></g>
<g><path style="opacity:1" fill="#f0eaea" d="M 127.5,174.5 C 146.271,174.023 153.771,183.023 150,201.5C 146.197,211.831 138.697,216.831 127.5,216.5C 122.833,216.5 118.167,216.5 113.5,216.5C 113.5,202.5 113.5,188.5 113.5,174.5C 118.167,174.5 122.833,174.5 127.5,174.5 Z"/></g>
<g><path style="opacity:1" fill="#efeeee" d="M 166.5,182.5 C 165.521,185.625 165.187,188.958 165.5,192.5C 170.167,192.5 174.833,192.5 179.5,192.5C 179.5,194.833 179.5,197.167 179.5,199.5C 174.968,199.182 170.634,199.515 166.5,200.5C 166.5,201.5 166.5,202.5 166.5,203.5C 165.517,207.298 165.183,211.298 165.5,215.5C 162.833,215.5 160.167,215.5 157.5,215.5C 157.5,201.833 157.5,188.167 157.5,174.5C 165.167,174.5 172.833,174.5 180.5,174.5C 180.5,176.833 180.5,179.167 180.5,181.5C 175.637,181.181 170.97,181.514 166.5,182.5 Z"/></g>
<g><path style="opacity:1" fill="#edacac" d="M 166.5,182.5 C 170.97,181.514 175.637,181.181 180.5,181.5C 180.5,179.167 180.5,176.833 180.5,174.5C 172.833,174.5 165.167,174.5 157.5,174.5C 157.5,188.167 157.5,201.833 157.5,215.5C 160.167,215.5 162.833,215.5 165.5,215.5C 165.183,211.298 165.517,207.298 166.5,203.5C 166.5,207.833 166.5,212.167 166.5,216.5C 163.167,216.5 159.833,216.5 156.5,216.5C 156.5,205.833 156.5,195.167 156.5,184.5C 156.5,180.833 156.5,177.167 156.5,173.5C 164.833,173.5 173.167,173.5 181.5,173.5C 181.5,176.5 181.5,179.5 181.5,182.5C 176.5,182.5 171.5,182.5 166.5,182.5 Z"/></g>
<g><path style="opacity:1" fill="#ed9796" d="M 93.5,182.5 C 91.5,182.5 89.5,182.5 87.5,182.5C 87.5,186.167 87.5,189.833 87.5,193.5C 89.5,193.5 91.5,193.5 93.5,193.5C 91.3926,194.468 89.0593,194.802 86.5,194.5C 86.5,190.167 86.5,185.833 86.5,181.5C 89.0593,181.198 91.3926,181.532 93.5,182.5 Z"/></g>
<g><path style="opacity:1" fill="#ec5a59" d="M 93.5,182.5 C 96.5248,183.033 97.8581,184.867 97.5,188C 97.8581,191.133 96.5248,192.967 93.5,193.5C 91.5,193.5 89.5,193.5 87.5,193.5C 87.5,189.833 87.5,186.167 87.5,182.5C 89.5,182.5 91.5,182.5 93.5,182.5 Z"/></g>
<g><path style="opacity:1" fill="#eea5a5" d="M 127.5,182.5 C 126.167,182.5 124.833,182.5 123.5,182.5C 123.5,191.167 123.5,199.833 123.5,208.5C 124.833,208.5 126.167,208.5 127.5,208.5C 126.081,209.451 124.415,209.784 122.5,209.5C 122.5,200.167 122.5,190.833 122.5,181.5C 124.415,181.216 126.081,181.549 127.5,182.5 Z"/></g>
<g><path style="opacity:1" fill="#ec5a5a" d="M 127.5,182.5 C 135.083,182.268 139.416,185.768 140.5,193C 140.148,197.389 138.982,201.556 137,205.5C 134.123,207.404 130.956,208.404 127.5,208.5C 126.167,208.5 124.833,208.5 123.5,208.5C 123.5,199.833 123.5,191.167 123.5,182.5C 124.833,182.5 126.167,182.5 127.5,182.5 Z"/></g>
<g><path style="opacity:1" fill="#eda1a1" d="M 166.5,182.5 C 166.5,185.5 166.5,188.5 166.5,191.5C 171.167,191.5 175.833,191.5 180.5,191.5C 180.5,194.5 180.5,197.5 180.5,200.5C 176.167,200.5 171.833,200.5 167.5,200.5C 167.167,200.5 166.833,200.5 166.5,200.5C 170.634,199.515 174.968,199.182 179.5,199.5C 179.5,197.167 179.5,194.833 179.5,192.5C 174.833,192.5 170.167,192.5 165.5,192.5C 165.187,188.958 165.521,185.625 166.5,182.5 Z"/></g>
<g><path style="opacity:1" fill="#ed9f9f" d="M 91.5,174.5 C 86.8333,174.5 82.1667,174.5 77.5,174.5C 77.5,188.167 77.5,201.833 77.5,215.5C 80.1667,215.5 82.8333,215.5 85.5,215.5C 85.4372,210.797 85.7705,206.13 86.5,201.5C 89.1667,201.5 91.8333,201.5 94.5,201.5C 92.3926,202.468 90.0593,202.802 87.5,202.5C 87.5,207.5 87.5,212.5 87.5,217.5C 83.7852,217.577 80.1185,217.244 76.5,216.5C 76.5,202.167 76.5,187.833 76.5,173.5C 81.6946,173.179 86.6946,173.513 91.5,174.5 Z"/></g>
<g><path style="opacity:1" fill="#ec7877" d="M 156.5,184.5 C 156.5,195.167 156.5,205.833 156.5,216.5C 159.833,216.5 163.167,216.5 166.5,216.5C 166.5,212.167 166.5,207.833 166.5,203.5C 166.5,202.5 166.5,201.5 166.5,200.5C 166.833,200.5 167.167,200.5 167.5,200.5C 167.5,206.167 167.5,211.833 167.5,217.5C 163.5,217.5 159.5,217.5 155.5,217.5C 155.172,206.321 155.505,195.321 156.5,184.5 Z"/></g>
</svg>
