<?xml version="1.0" encoding="UTF-8"?>
<!DOCTYPE svg PUBLIC "-//W3C//DTD SVG 1.1//EN" "http://www.w3.org/Graphics/SVG/1.1/DTD/svg11.dtd">
<svg xmlns="http://www.w3.org/2000/svg" version="1.1" width="512px" height="512px" style="shape-rendering:geometricPrecision; text-rendering:geometricPrecision; image-rendering:optimizeQuality; fill-rule:evenodd; clip-rule:evenodd" xmlns:xlink="http://www.w3.org/1999/xlink">
<g><path style="opacity:0.996" fill="#fec470" d="M 202.5,69.5 C 146.5,70.8333 90.5,70.8333 34.5,69.5C 36.4,65.3674 38.5667,61.3674 41,57.5C 43.2583,55.5704 45.7583,54.0704 48.5,53C 71.9657,51.8643 95.4657,51.3643 119,51.5C 142.534,51.3643 166.034,51.8643 189.5,53C 196.578,56.3144 200.911,61.8144 202.5,69.5 Z"/></g>
<g><path style="opacity:0.984" fill="#eff2f9" d="M 34.5,69.5 C 90.5,70.8333 146.5,70.8333 202.5,69.5C 297.501,69.3333 392.501,69.5 487.5,70C 489.848,70.3459 491.681,71.5125 493,73.5C 494.309,78.0658 494.809,82.7325 494.5,87.5C 401.166,87.3333 307.833,87.5 214.5,88C 212.061,88.7739 210.227,90.2739 209,92.5C 206.726,97.3874 204.226,102.054 201.5,106.5C 146.336,105.501 91.0025,105.168 35.5,105.5C 32.653,100.314 29.653,95.1477 26.5,90C 23.4642,87.9937 20.1309,87.1604 16.5,87.5C 14.1667,73.1667 20.1667,67.1667 34.5,69.5 Z"/></g>
<g><path style="opacity:1" fill="#fed682" d="M 16.5,87.5 C 20.1309,87.1604 23.4642,87.9937 26.5,90C 29.653,95.1477 32.653,100.314 35.5,105.5C 37.0891,113.186 41.4224,118.686 48.5,122C 95.1667,122.667 141.833,122.667 188.5,122C 195.273,118.994 199.607,113.828 201.5,106.5C 204.226,102.054 206.726,97.3874 209,92.5C 210.227,90.2739 212.061,88.7739 214.5,88C 307.833,87.5 401.166,87.3333 494.5,87.5C 502.883,87.8429 508.55,91.8429 511.5,99.5C 511.5,215.5 511.5,331.5 511.5,447.5C 508.158,454.661 502.492,458.494 494.5,459C 335.167,459.667 175.833,459.667 16.5,459C 8.50823,458.494 2.84156,454.661 -0.5,447.5C -0.5,331.5 -0.5,215.5 -0.5,99.5C 2.44989,91.8429 8.11656,87.8429 16.5,87.5 Z"/></g>
<g><path style="opacity:1" fill="#e1e5f1" d="M 35.5,105.5 C 91.0025,105.168 146.336,105.501 201.5,106.5C 199.607,113.828 195.273,118.994 188.5,122C 141.833,122.667 95.1667,122.667 48.5,122C 41.4224,118.686 37.0891,113.186 35.5,105.5 Z"/></g>
<g><path style="opacity:1" fill="#eff1f8" d="M 323.5,131.5 C 369.168,131.333 414.835,131.5 460.5,132C 463.583,132.786 465.749,134.619 467,137.5C 467.667,162.833 467.667,188.167 467,213.5C 466.167,217 464,219.167 460.5,220C 414.083,220.99 367.75,220.656 321.5,219C 319.951,217.786 318.785,216.286 318,214.5C 317.333,188.833 317.333,163.167 318,137.5C 319.36,134.977 321.193,132.977 323.5,131.5 Z"/></g>
<g><path style="opacity:1" fill="#c7cfe2" d="M 340.5,149.5 C 374.835,149.333 409.168,149.5 443.5,150C 449.544,152.932 451.044,157.432 448,163.5C 446.786,165.049 445.286,166.215 443.5,167C 409.5,167.667 375.5,167.667 341.5,167C 337.167,165.839 335.167,163.005 335.5,158.5C 335.377,154.405 337.044,151.405 340.5,149.5 Z"/></g>
<g><path style="opacity:1" fill="#d7deed" d="M 341.5,184.5 C 375.502,184.333 409.502,184.5 443.5,185C 449.821,188.362 451.155,193.195 447.5,199.5C 446.335,200.584 445.002,201.417 443.5,202C 409.167,202.667 374.833,202.667 340.5,202C 335.845,199.103 334.345,194.937 336,189.5C 337.73,187.598 339.563,185.931 341.5,184.5 Z"/></g>
<g><path style="opacity:1" fill="#ffc36e" d="M 22.5,423.5 C 177.834,423.333 333.167,423.5 488.5,424C 493.609,427.366 494.776,431.866 492,437.5C 491.097,438.701 489.931,439.535 488.5,440C 333.167,440.667 177.833,440.667 22.5,440C 17.391,436.634 16.2243,432.134 19,426.5C 20.1451,425.364 21.3117,424.364 22.5,423.5 Z"/></g>
</svg>
